<svg width="100" height="35" viewBox="0 0 100 35" fill="none" xmlns="http://www.w3.org/2000/svg">
<rect width="100" height="35" rx="17.5" fill="#016A70"/>
<path d="M21.7895 23.4671C19.4082 23.4534 17.4385 18.5924 17.4385 16.1168C17.4385 12.0729 20.4721 11.1876 21.6412 11.1876C22.1681 11.1876 22.7307 11.3945 23.2269 11.5776C23.5739 11.7054 23.9328 11.8372 24.1324 11.8372C24.2518 11.8372 24.5334 11.725 24.7819 11.6266C25.312 11.4156 25.9716 11.1533 26.7398 11.1533C26.7411 11.1533 26.743 11.1533 26.7443 11.1533C27.3179 11.1533 29.0569 11.2792 30.1025 12.8493L30.3474 13.2174L29.9949 13.4833C29.4914 13.8633 28.5726 14.5563 28.5726 15.9292C28.5726 17.5551 29.6131 18.1804 30.113 18.4812C30.3337 18.6139 30.5621 18.7508 30.5621 19.0502C30.5621 19.2457 29.002 23.4429 26.7365 23.4429C26.1822 23.4429 25.7904 23.2763 25.4447 23.1293C25.095 22.9805 24.7933 22.8524 24.2948 22.8524C24.0421 22.8524 23.7226 22.9719 23.3843 23.0987C22.922 23.2712 22.3988 23.4671 21.8051 23.4671H21.7895Z" fill="white"/>
<path d="M38.592 13.0001H39.642L38.214 8.80012H36.99L35.562 13.0001H36.612L36.822 12.3401H38.382L38.592 13.0001ZM37.11 11.4401L37.602 9.89812L38.094 11.4401H37.11Z" fill="white"/>
<path d="M41.7669 10.0001L41.1429 11.9021L40.5189 10.0001H39.5229L40.6329 13.0001H41.6529L42.7629 10.0001H41.7669Z" fill="white"/>
<path d="M45.154 10.0001V10.2821C44.956 10.0541 44.662 9.91612 44.26 9.91612C43.474 9.91612 42.826 10.6061 42.826 11.5001C42.826 12.3941 43.474 13.0841 44.26 13.0841C44.662 13.0841 44.956 12.9461 45.154 12.7181V13.0001H46.054V10.0001H45.154ZM44.44 12.2321C44.026 12.2321 43.726 11.9501 43.726 11.5001C43.726 11.0501 44.026 10.7681 44.44 10.7681C44.854 10.7681 45.154 11.0501 45.154 11.5001C45.154 11.9501 44.854 12.2321 44.44 12.2321Z" fill="white"/>
<path d="M46.7143 13.0001H47.6143V8.62012H46.7143V13.0001Z" fill="white"/>
<path d="M48.7229 9.73612C49.0169 9.73612 49.2629 9.49012 49.2629 9.19612C49.2629 8.90212 49.0169 8.65612 48.7229 8.65612C48.4289 8.65612 48.1829 8.90212 48.1829 9.19612C48.1829 9.49012 48.4289 9.73612 48.7229 9.73612ZM48.2729 13.0001H49.1729V10.0001H48.2729V13.0001Z" fill="white"/>
<path d="M51.6255 9.91612C51.2235 9.91612 50.9295 10.0541 50.7315 10.2821V8.80012H49.8315V13.0001H50.7315V12.7181C50.9295 12.9461 51.2235 13.0841 51.6255 13.0841C52.4115 13.0841 53.0595 12.3941 53.0595 11.5001C53.0595 10.6061 52.4115 9.91612 51.6255 9.91612ZM51.4455 12.2321C51.0315 12.2321 50.7315 11.9501 50.7315 11.5001C50.7315 11.0501 51.0315 10.7681 51.4455 10.7681C51.8595 10.7681 52.1595 11.0501 52.1595 11.5001C52.1595 11.9501 51.8595 12.2321 51.4455 12.2321Z" fill="white"/>
<path d="M53.5697 13.0001H54.4697V8.62012H53.5697V13.0001Z" fill="white"/>
<path d="M55.9323 11.8601H58.0623C58.0863 11.7461 58.0983 11.6261 58.0983 11.5001C58.0983 10.5941 57.4503 9.91612 56.5743 9.91612C55.6263 9.91612 54.9783 10.6061 54.9783 11.5001C54.9783 12.3941 55.6143 13.0841 56.6403 13.0841C57.2103 13.0841 57.6543 12.8741 57.9483 12.4661L57.2283 12.0521C57.1083 12.1841 56.8983 12.2801 56.6523 12.2801C56.3223 12.2801 56.0463 12.1721 55.9323 11.8601ZM55.9143 11.1881C55.9983 10.8821 56.2263 10.7141 56.5683 10.7141C56.8383 10.7141 57.1083 10.8401 57.2043 11.1881H55.9143Z" fill="white"/>
<path d="M61.5488 13.0841C62.4308 13.0841 63.1388 12.3941 63.1388 11.5001C63.1388 10.6061 62.4308 9.91612 61.5488 9.91612C60.6668 9.91612 59.9588 10.6061 59.9588 11.5001C59.9588 12.3941 60.6668 13.0841 61.5488 13.0841ZM61.5488 12.2081C61.1588 12.2081 60.8588 11.9261 60.8588 11.5001C60.8588 11.0741 61.1588 10.7921 61.5488 10.7921C61.9388 10.7921 62.2388 11.0741 62.2388 11.5001C62.2388 11.9261 61.9388 12.2081 61.5488 12.2081Z" fill="white"/>
<path d="M65.4059 9.91612C65.0099 9.91612 64.7099 10.0601 64.5479 10.2821V10.0001H63.6479V13.0001H64.5479V11.3621C64.5479 10.9361 64.7759 10.7441 65.1059 10.7441C65.3939 10.7441 65.6279 10.9181 65.6279 11.2901V13.0001H66.5279V11.1581C66.5279 10.3481 66.0119 9.91612 65.4059 9.91612Z" fill="white"/>
<path d="M70.4039 10.8641V10.0001H69.7859V9.16012L68.8859 9.43012V10.0001H68.4059V10.8641H68.8859V11.9261C68.8859 12.7661 69.2279 13.1201 70.4039 13.0001V12.1841C70.0079 12.2081 69.7859 12.1841 69.7859 11.9261V10.8641H70.4039Z" fill="white"/>
<path d="M72.6715 9.91612C72.2755 9.91612 71.9755 10.0601 71.8135 10.2821V8.80012H70.9135V13.0001H71.8135V11.3621C71.8135 10.9361 72.0415 10.7441 72.3715 10.7441C72.6595 10.7441 72.8935 10.9181 72.8935 11.2901V13.0001H73.7935V11.1581C73.7935 10.3481 73.2775 9.91612 72.6715 9.91612Z" fill="white"/>
<path d="M75.2155 11.8601H77.3455C77.3695 11.7461 77.3815 11.6261 77.3815 11.5001C77.3815 10.5941 76.7335 9.91612 75.8575 9.91612C74.9095 9.91612 74.2615 10.6061 74.2615 11.5001C74.2615 12.3941 74.8975 13.0841 75.9235 13.0841C76.4935 13.0841 76.9375 12.8741 77.2315 12.4661L76.5115 12.0521C76.3915 12.1841 76.1815 12.2801 75.9355 12.2801C75.6055 12.2801 75.3295 12.1721 75.2155 11.8601ZM75.1975 11.1881C75.2815 10.8821 75.5095 10.7141 75.8515 10.7141C76.1215 10.7141 76.3915 10.8401 76.4875 11.1881H75.1975Z" fill="white"/>
<path d="M40.612 24.0001H42.362L39.982 17.0001H37.942L35.562 24.0001H37.312L37.662 22.9001H40.262L40.612 24.0001ZM38.142 21.4001L38.962 18.8301L39.782 21.4001H38.142Z" fill="white"/>
<path d="M45.8989 18.8601C45.2289 18.8601 44.7389 19.0901 44.4089 19.4701V19.0001H42.9089V26.0001H44.4089V23.5301C44.7389 23.9101 45.2289 24.1401 45.8989 24.1401C47.2089 24.1401 48.2889 22.9901 48.2889 21.5001C48.2889 20.0101 47.2089 18.8601 45.8989 18.8601ZM45.5989 22.7201C44.9089 22.7201 44.4089 22.2501 44.4089 21.5001C44.4089 20.7501 44.9089 20.2801 45.5989 20.2801C46.2889 20.2801 46.7889 20.7501 46.7889 21.5001C46.7889 22.2501 46.2889 22.7201 45.5989 22.7201Z" fill="white"/>
<path d="M52.1294 18.8601C51.4594 18.8601 50.9694 19.0901 50.6394 19.4701V19.0001H49.1394V26.0001H50.6394V23.5301C50.9694 23.9101 51.4594 24.1401 52.1294 24.1401C53.4394 24.1401 54.5194 22.9901 54.5194 21.5001C54.5194 20.0101 53.4394 18.8601 52.1294 18.8601ZM51.8294 22.7201C51.1394 22.7201 50.6394 22.2501 50.6394 21.5001C50.6394 20.7501 51.1394 20.2801 51.8294 20.2801C52.5194 20.2801 53.0194 20.7501 53.0194 21.5001C53.0194 22.2501 52.5194 22.7201 51.8294 22.7201Z" fill="white"/>
<path d="M55.3698 24.0001H56.8698V16.7001H55.3698V24.0001Z" fill="white"/>
<path d="M59.3075 22.1001H62.8575C62.8975 21.9101 62.9175 21.7101 62.9175 21.5001C62.9175 19.9901 61.8375 18.8601 60.3775 18.8601C58.7975 18.8601 57.7175 20.0101 57.7175 21.5001C57.7175 22.9901 58.7775 24.1401 60.4875 24.1401C61.4375 24.1401 62.1775 23.7901 62.6675 23.1101L61.4675 22.4201C61.2675 22.6401 60.9175 22.8001 60.5075 22.8001C59.9575 22.8001 59.4975 22.6201 59.3075 22.1001ZM59.2775 20.9801C59.4175 20.4701 59.7975 20.1901 60.3675 20.1901C60.8175 20.1901 61.2675 20.4001 61.4275 20.9801H59.2775Z" fill="white"/>
<path d="M68.7683 24.1401C70.2883 24.1401 71.3683 23.3401 71.3683 21.9901C71.3683 20.5101 70.1783 20.1401 69.1183 19.8201C68.0283 19.4901 67.8583 19.2701 67.8583 18.9501C67.8583 18.6701 68.1083 18.4201 68.6083 18.4201C69.2483 18.4201 69.5783 18.7301 69.8183 19.2301L71.1683 18.4401C70.6583 17.4101 69.7583 16.8601 68.6083 16.8601C67.3983 16.8601 66.2583 17.6401 66.2583 18.9901C66.2583 20.3301 67.2783 20.8301 68.3183 21.1201C69.3683 21.4101 69.7683 21.5801 69.7683 22.0101C69.7683 22.2801 69.5783 22.5801 68.8183 22.5801C68.0283 22.5801 67.5983 22.1901 67.3483 21.6101L65.9683 22.4101C66.3583 23.4401 67.2983 24.1401 68.7683 24.1401Z" fill="white"/>
<path d="M74.9014 20.4401V19.0001H73.8714V17.6001L72.3714 18.0501V19.0001H71.5714V20.4401H72.3714V22.2101C72.3714 23.6101 72.9414 24.2001 74.9014 24.0001V22.6401C74.2414 22.6801 73.8714 22.6401 73.8714 22.2101V20.4401H74.9014Z" fill="white"/>
<path d="M78.053 24.1401C79.523 24.1401 80.703 22.9901 80.703 21.5001C80.703 20.0101 79.523 18.8601 78.053 18.8601C76.583 18.8601 75.403 20.0101 75.403 21.5001C75.403 22.9901 76.583 24.1401 78.053 24.1401ZM78.053 22.6801C77.403 22.6801 76.903 22.2101 76.903 21.5001C76.903 20.7901 77.403 20.3201 78.053 20.3201C78.703 20.3201 79.203 20.7901 79.203 21.5001C79.203 22.2101 78.703 22.6801 78.053 22.6801Z" fill="white"/>
<path d="M83.0515 19.8901V19.0001H81.5515V24.0001H83.0515V21.7401C83.0515 20.7501 83.9315 20.5001 84.5515 20.6001V18.9001C83.9215 18.9001 83.2515 19.2201 83.0515 19.8901Z" fill="white"/>
<path d="M86.4462 22.1001H89.9962C90.0362 21.9101 90.0562 21.7101 90.0562 21.5001C90.0562 19.9901 88.9762 18.8601 87.5162 18.8601C85.9361 18.8601 84.8562 20.0101 84.8562 21.5001C84.8562 22.9901 85.9162 24.1401 87.6262 24.1401C88.5762 24.1401 89.3162 23.7901 89.8062 23.1101L88.6062 22.4201C88.4062 22.6401 88.0562 22.8001 87.6462 22.8001C87.0962 22.8001 86.6362 22.6201 86.4462 22.1001ZM86.4162 20.9801C86.5562 20.4701 86.9362 20.1901 87.5062 20.1901C87.9562 20.1901 88.4062 20.4001 88.5662 20.9801H86.4162Z" fill="white"/>
</svg>
