<svg width="107" height="35" viewBox="0 0 107 35" fill="none" xmlns="http://www.w3.org/2000/svg">
<rect width="107" height="35" rx="17.5" fill="#016A70"/>
<path d="M28.5075 17.0013L18.4639 26.6725C17.9936 26.3511 17.7144 25.8165 17.7193 25.2468V8.75578C17.7144 8.18614 17.9936 7.6515 18.4639 7.33008L28.5075 17.0013Z" fill="white"/>
<path d="M32.0217 13.6236L28.5074 17.0018L18.4639 7.33053C18.5017 7.3012 18.5411 7.27392 18.5819 7.2488C19.1127 6.92708 19.7757 6.9167 20.3164 7.22156L32.0217 13.6236Z" fill="white"/>
<path d="M32.0217 20.3801L20.3164 26.7822C19.7745 27.0823 19.114 27.0719 18.5819 26.7549C18.5411 26.7298 18.5017 26.7025 18.4639 26.6732L28.5074 17.002L32.0217 20.3801Z" fill="white"/>
<path d="M47.8055 12.1921H44.9975V13.3121H46.4935C46.2935 13.8481 45.8055 14.1761 45.0615 14.1761C43.9735 14.1761 43.3015 13.4801 43.3015 12.5281C43.3015 11.5441 44.0055 10.8481 44.9495 10.8481C45.5815 10.8481 46.0855 11.1361 46.3175 11.5041L47.4055 10.8801C46.9335 10.1281 46.0295 9.6001 44.9575 9.6001C43.3095 9.6001 42.0215 10.8961 42.0215 12.5201C42.0215 14.1281 43.2855 15.4241 45.0455 15.4241C46.6135 15.4241 47.8055 14.3841 47.8055 12.6721V12.1921Z" fill="white"/>
<path d="M49.4071 14.0801V13.0881H51.4071V11.8721H49.4071V10.9441H51.6071V9.7121H48.1271V15.3121H51.6471V14.0801H49.4071Z" fill="white"/>
<path d="M55.7293 9.7121H51.5693V10.9441H53.0093V15.3121H54.2893V10.9441H55.7293V9.7121Z" fill="white"/>
<path d="M57.4896 9.7121V15.3121H58.7696V9.7121H57.4896Z" fill="white"/>
<path d="M63.0918 9.7121H58.9318V10.9441H60.3718V15.3121H61.6518V10.9441H63.0918V9.7121Z" fill="white"/>
<path d="M67.5241 15.4241C69.1321 15.4241 70.4361 14.1601 70.4361 12.5121C70.4361 10.8641 69.1321 9.6001 67.5241 9.6001C65.9161 9.6001 64.6121 10.8641 64.6121 12.5121C64.6121 14.1601 65.9161 15.4241 67.5241 15.4241ZM67.5241 14.1761C66.6121 14.1761 65.8921 13.5121 65.8921 12.5121C65.8921 11.5121 66.6121 10.8481 67.5241 10.8481C68.4361 10.8481 69.1561 11.5121 69.1561 12.5121C69.1561 13.5121 68.4361 14.1761 67.5241 14.1761Z" fill="white"/>
<path d="M73.8768 9.7121V12.7521L71.7168 9.7121H70.7568V15.3121H72.0368V12.2721L74.1968 15.3121H75.1568V9.7121H73.8768Z" fill="white"/>
<path d="M47.8055 21.7041V21.9201C47.8055 22.6188 47.5575 23.2081 47.0615 23.6881C46.5655 24.1628 45.9122 24.4001 45.1015 24.4001C44.2482 24.4001 43.5442 24.1228 42.9895 23.5681C42.4348 23.0081 42.1575 22.3228 42.1575 21.5121C42.1575 20.7014 42.4322 20.0188 42.9815 19.4641C43.5308 18.9041 44.2268 18.6241 45.0695 18.6241C45.5815 18.6241 46.0508 18.7468 46.4775 18.9921C46.9095 19.2374 47.2428 19.5654 47.4775 19.9761L47.1015 20.2001C46.9148 19.8481 46.6375 19.5654 46.2695 19.3521C45.9068 19.1388 45.5068 19.0321 45.0695 19.0321C44.3442 19.0321 43.7468 19.2721 43.2775 19.7521C42.8135 20.2268 42.5815 20.8134 42.5815 21.5121C42.5815 22.2108 42.8162 22.8001 43.2855 23.2801C43.7548 23.7548 44.3602 23.9921 45.1015 23.9921C45.7575 23.9921 46.2882 23.8134 46.6935 23.4561C47.0988 23.0988 47.3255 22.6481 47.3735 22.1041H44.9975V21.7041H47.8055Z" fill="white"/>
<path d="M53.4841 23.5601C52.9241 24.1201 52.2414 24.4001 51.4361 24.4001C50.6308 24.4001 49.9481 24.1201 49.3881 23.5601C48.8281 22.9948 48.5481 22.3121 48.5481 21.5121C48.5481 20.7121 48.8281 20.0321 49.3881 19.4721C49.9481 18.9068 50.6308 18.6241 51.4361 18.6241C52.2414 18.6241 52.9241 18.9068 53.4841 19.4721C54.0441 20.0321 54.3241 20.7121 54.3241 21.5121C54.3241 22.3121 54.0441 22.9948 53.4841 23.5601ZM49.6841 23.2721C50.1641 23.7521 50.7481 23.9921 51.4361 23.9921C52.1241 23.9921 52.7054 23.7521 53.1801 23.2721C53.6601 22.7868 53.9001 22.2001 53.9001 21.5121C53.9001 20.8241 53.6601 20.2401 53.1801 19.7601C52.7054 19.2748 52.1241 19.0321 51.4361 19.0321C50.7481 19.0321 50.1641 19.2748 49.6841 19.7601C49.2094 20.2401 48.9721 20.8241 48.9721 21.5121C48.9721 22.2001 49.2094 22.7868 49.6841 23.2721Z" fill="white"/>
<path d="M60.0154 23.5601C59.4554 24.1201 58.7727 24.4001 57.9674 24.4001C57.162 24.4001 56.4794 24.1201 55.9194 23.5601C55.3594 22.9948 55.0794 22.3121 55.0794 21.5121C55.0794 20.7121 55.3594 20.0321 55.9194 19.4721C56.4794 18.9068 57.162 18.6241 57.9674 18.6241C58.7727 18.6241 59.4554 18.9068 60.0154 19.4721C60.5754 20.0321 60.8554 20.7121 60.8554 21.5121C60.8554 22.3121 60.5754 22.9948 60.0154 23.5601ZM56.2154 23.2721C56.6954 23.7521 57.2794 23.9921 57.9674 23.9921C58.6554 23.9921 59.2367 23.7521 59.7114 23.2721C60.1914 22.7868 60.4314 22.2001 60.4314 21.5121C60.4314 20.8241 60.1914 20.2401 59.7114 19.7601C59.2367 19.2748 58.6554 19.0321 57.9674 19.0321C57.2794 19.0321 56.6954 19.2748 56.2154 19.7601C55.7407 20.2401 55.5034 20.8241 55.5034 21.5121C55.5034 22.2001 55.7407 22.7868 56.2154 23.2721Z" fill="white"/>
<path d="M67.2586 21.7041V21.9201C67.2586 22.6188 67.0106 23.2081 66.5146 23.6881C66.0186 24.1628 65.3653 24.4001 64.5546 24.4001C63.7013 24.4001 62.9973 24.1228 62.4426 23.5681C61.8879 23.0081 61.6106 22.3228 61.6106 21.5121C61.6106 20.7014 61.8853 20.0188 62.4346 19.4641C62.9839 18.9041 63.6799 18.6241 64.5226 18.6241C65.0346 18.6241 65.5039 18.7468 65.9306 18.9921C66.3626 19.2374 66.6959 19.5654 66.9306 19.9761L66.5546 20.2001C66.3679 19.8481 66.0906 19.5654 65.7226 19.3521C65.3599 19.1388 64.9599 19.0321 64.5226 19.0321C63.7973 19.0321 63.1999 19.2721 62.7306 19.7521C62.2666 20.2268 62.0346 20.8134 62.0346 21.5121C62.0346 22.2108 62.2693 22.8001 62.7386 23.2801C63.2079 23.7548 63.8133 23.9921 64.5546 23.9921C65.2106 23.9921 65.7413 23.8134 66.1466 23.4561C66.5519 23.0988 66.7786 22.6481 66.8266 22.1041H64.4506V21.7041H67.2586Z" fill="white"/>
<path d="M68.7452 23.9121H71.3852V24.3121H68.3212V18.7121H68.7452V23.9121Z" fill="white"/>
<path d="M72.6905 23.9121H75.4905V24.3121H72.2665V18.7121H75.4505V19.1121H72.6905V21.2881H75.2505V21.6881H72.6905V23.9121Z" fill="white"/>
<path d="M80.569 18.7121C81.0703 18.7121 81.4863 18.8774 81.817 19.2081C82.1477 19.5388 82.313 19.9521 82.313 20.4481C82.313 20.9441 82.1477 21.3574 81.817 21.6881C81.4863 22.0134 81.0703 22.1761 80.569 22.1761H79.089V24.3121H78.665V18.7121H80.569ZM80.569 21.7761C80.953 21.7761 81.2677 21.6508 81.513 21.4001C81.7637 21.1494 81.889 20.8321 81.889 20.4481C81.889 20.0588 81.7637 19.7388 81.513 19.4881C81.2677 19.2374 80.953 19.1121 80.569 19.1121H79.089V21.7761H80.569Z" fill="white"/>
<path d="M83.7843 23.9121H86.4243V24.3121H83.3603V18.7121H83.7843V23.9121Z" fill="white"/>
<path d="M91.2299 24.3121L90.6859 22.8881H87.8779L87.3339 24.3121H86.8859L89.0619 18.7121H89.5099L91.6779 24.3121H91.2299ZM88.0379 22.4881H90.5339L89.2859 19.2321L88.0379 22.4881Z" fill="white"/>
<path d="M95.6624 18.7121L93.6224 22.0081V24.3121H93.1984V22.0081L91.1584 18.7121H91.6384L93.4144 21.6001L95.1824 18.7121H95.6624Z" fill="white"/>
</svg>
