<svg width="133" height="40" viewBox="0 0 133 40" fill="none" xmlns="http://www.w3.org/2000/svg">
<path d="M17.7769 23.9161C17.7769 25.8748 17.2427 27.3785 16.1743 28.4271C15.1257 29.4757 13.6517 30 11.7524 30H8.90331C6.56866 30 4.90671 29.5944 3.91745 28.7832C2.94798 27.972 2.46325 26.5673 2.46325 24.569V8.86949H11.3962C13.4143 8.86949 14.9279 9.37401 15.9369 10.383C16.9657 11.3921 17.4802 12.8166 17.4802 14.6566C17.4802 15.725 17.2032 16.6351 16.6492 17.387C16.115 18.1388 15.5214 18.673 14.8685 18.9896C16.8075 19.8997 17.7769 21.5419 17.7769 23.9161ZM11.0698 17.1199C12.5932 17.1199 13.355 16.3582 13.355 14.8347C13.355 13.3112 12.5932 12.5495 11.0698 12.5495H6.58845V17.1199H11.0698ZM13.6517 23.7083C13.6517 22.7586 13.4836 22.0464 13.1472 21.5715C12.8109 21.0769 12.2074 20.8296 11.3369 20.8296H6.58845V24.1535C6.58845 24.9647 6.7863 25.5286 7.182 25.8451C7.59749 26.1617 8.27018 26.32 9.20008 26.32H11.3369C12.8801 26.32 13.6517 25.4494 13.6517 23.7083ZM58.7164 30H54.4131L53.226 26.3496H46.133L44.9756 30H40.6723L47.4389 10.6501C47.7356 9.97745 48.0621 9.5125 48.4182 9.2553C48.7941 8.99809 49.2492 8.86949 49.7834 8.86949C50.3176 8.86949 50.743 8.9882 51.0595 9.22562C51.3959 9.46304 51.6927 9.93788 51.9499 10.6501L58.7164 30ZM52.2763 22.8774L49.7834 14.5082L47.1718 22.8774H52.2763ZM78.0869 8.86949V27.8632C78.0869 28.5161 77.889 29.08 77.4933 29.5548C77.0976 30.0099 76.6327 30.2374 76.0985 30.2374C74.7333 30.2374 73.6154 29.446 72.7449 27.8632L65.4442 16.4373V30H61.319V8.86949H65.2958L73.9617 22.6993V8.86949H78.0869ZM81.0611 20.058V17.4463C81.0611 14.6962 81.7833 12.5495 83.2276 11.0063C84.6719 9.46304 86.6702 8.69142 89.2225 8.69142C91.7748 8.69142 93.8225 9.46304 95.3658 11.0063C96.4539 12.0945 96.998 13.7267 96.998 15.9031H93.1399C93.1399 13.5487 91.8836 12.3715 89.3709 12.3715C88.619 12.3715 87.976 12.5198 87.4418 12.8166C86.9274 13.0936 86.5416 13.4201 86.2844 13.796C86.0272 14.1719 85.8293 14.7259 85.6908 15.4579C85.5523 16.19 85.4732 16.8033 85.4534 17.2979C85.4336 17.7926 85.4237 18.4554 85.4237 19.2864C85.4237 20.1173 85.4237 20.6812 85.4237 20.978C85.4435 21.255 85.4732 21.7199 85.5128 22.3728C85.5721 23.006 85.6513 23.461 85.7502 23.738C85.8689 24.015 86.0272 24.3711 86.225 24.8064C86.4427 25.2417 86.7098 25.5483 87.0263 25.7264C87.8375 26.2408 88.7575 26.498 89.7864 26.498C91.5077 26.498 92.7244 25.766 93.4367 24.3019V22.8774H90.8844V19.4347H96.9684V25.8154C96.355 27.2598 95.3855 28.3479 94.0599 29.08C92.7343 29.812 91.2307 30.1781 89.5489 30.1781C86.5614 30.1781 84.3949 29.3471 83.0495 27.6851C81.7239 26.0034 81.0611 23.461 81.0611 20.058ZM105.032 26.0232C105.349 26.32 105.507 26.963 105.507 27.9522C105.507 28.9415 105.349 29.5944 105.032 29.911C104.736 30.2275 104.093 30.3858 103.103 30.3858C102.114 30.3858 101.461 30.2275 101.145 29.911C100.828 29.5944 100.67 28.9415 100.67 27.9522C100.67 26.963 100.828 26.32 101.145 26.0232C101.461 25.7066 102.114 25.5483 103.103 25.5483C104.093 25.5483 104.736 25.7066 105.032 26.0232ZM111.678 6.58431C112.608 6.58431 113.211 6.73269 113.488 7.02947C113.765 7.30646 113.904 7.90991 113.904 8.83981C113.904 9.74992 113.755 10.3534 113.458 10.6501C113.181 10.9271 112.578 11.0656 111.648 11.0656C110.738 11.0656 110.135 10.9172 109.838 10.6205C109.561 10.3237 109.422 9.72025 109.422 8.81013C109.422 7.90002 109.561 7.30646 109.838 7.02947C110.135 6.73269 110.748 6.58431 111.678 6.58431ZM113.577 30H109.719V13.6773H113.577V30ZM131.039 30H127.181V19.1676C127.181 18.1982 126.983 17.5354 126.588 17.1792C126.192 16.8231 125.638 16.645 124.926 16.645L121.453 18.0992V30H117.595V13.054H120.474L121.364 15.0721L126.113 12.876C127.438 12.876 128.586 13.3706 129.555 14.3599C130.545 15.3293 131.039 16.7539 131.039 18.6334V30Z" fill="white"/>
<mask id="mask0_0_2360" style="mask-type:alpha" maskUnits="userSpaceOnUse" x="8" y="34" width="119" height="6">
<rect width="117.392" height="5.27603" transform="matrix(-1 0 0 1 126.295 34.2942)" fill="#C4C4C4"/>
</mask>
<g mask="url(#mask0_0_2360)">
<path d="M107.058 33.6398L106.707 33.5784L107.389 33.4905L107.062 33.4261C106.734 33.4267 106.309 33.5232 106.078 33.4719C106.05 33.4223 106.407 33.4064 106.498 33.3668C106.579 33.3263 106.645 33.2861 106.695 33.2466C106.516 33.247 106.32 33.2565 106.117 33.2747C105.845 33.3043 105.578 33.3187 105.346 33.3162C104.87 33.3242 104.411 33.3163 103.895 33.318L104.067 33.1986L103.401 33.2265C103.33 33.2356 103.246 33.221 103.177 33.2323C102.6 33.3275 102.355 33.2756 102.078 33.2326C102.022 33.2214 101.953 33.2131 101.875 33.2079C101.105 33.2307 100.411 33.3641 99.7178 33.4327C99.5873 33.4502 99.4622 33.4726 99.3512 33.4984C99.1101 33.5486 98.8419 33.5896 98.5711 33.6177C98.3003 33.6457 98.0356 33.6598 97.8012 33.6589C97.2829 33.6578 96.6973 33.691 96.1012 33.7553C95.9239 33.7765 95.7465 33.7904 95.5802 33.7963C95.414 33.8022 95.2626 33.7998 95.1358 33.7894L94.7327 33.8576C94.558 33.8299 94.3364 33.8147 94.0815 33.813C93.8265 33.8112 93.5435 33.8229 93.2496 33.8473C92.9365 33.8737 92.6183 33.8916 92.2934 33.9196C91.6222 33.9731 90.9689 34.0058 90.3539 34.0167C89.438 34.0491 88.5432 34.0742 87.6192 34.1145C87.0412 34.134 86.4781 34.1447 85.9331 34.1466C85.2803 34.1542 84.5741 34.1911 83.8487 34.2555V34.2555C83.8831 34.3159 84.2012 34.2981 84.4147 34.296C85.1034 34.286 85.8082 34.26 86.5168 34.2404C86.8359 34.2328 87.1463 34.2299 87.4462 34.2318C87.9474 34.2293 88.4758 34.2132 89.0223 34.1838C89.8856 34.1514 90.7213 34.1358 91.5209 34.1372C91.5836 34.1396 91.641 34.1439 91.6923 34.1499C91.703 34.1551 91.7051 34.1617 91.6984 34.169C91.6917 34.1763 91.6765 34.1841 91.6542 34.1916C91.6318 34.1991 91.6032 34.2061 91.5709 34.212C91.5386 34.2178 91.5038 34.2222 91.4698 34.2249C91.1522 34.2658 90.8111 34.3098 90.5116 34.316C90.5001 34.3164 90.4877 34.3175 90.4755 34.3191C90.4633 34.3206 90.4515 34.3227 90.4411 34.3251C89.7706 34.4115 89.2194 34.3969 88.6971 34.4109C87.83 34.4489 86.9941 34.4667 86.2021 34.4639C86.0824 34.4641 85.9532 34.469 85.8191 34.4786C84.9896 34.5171 84.2139 34.5214 83.5285 34.4913C83.2464 34.4837 82.9841 34.4665 82.6809 34.4662C82.4942 34.4651 82.3316 34.4541 82.2031 34.4341C82.0745 34.414 81.9825 34.3853 81.9327 34.3496C81.8048 34.3684 81.6749 34.3852 81.5446 34.3997C81.4667 34.408 81.3921 34.4102 81.3357 34.4058C81.2793 34.4015 81.2455 34.3909 81.2409 34.3763C81.2175 34.3353 81.3952 34.3147 81.5493 34.2972C81.4564 34.2884 81.3516 34.2832 81.2376 34.2818C80.5952 34.2724 79.9063 34.2835 79.1857 34.3147C78.6262 34.3521 78.1796 34.3217 77.5909 34.3744C77.5204 34.3835 77.4623 34.3701 77.3973 34.3669C77.2279 34.35 77.0169 34.3462 76.7826 34.3559C76.5483 34.3655 76.2977 34.3882 76.0526 34.4221C75.7473 34.3295 75.0879 34.4353 74.6009 34.4449C74.451 34.492 74.623 34.4837 74.6304 34.4966C74.6378 34.5096 74.6304 34.4966 74.6892 34.489C75.1754 34.5558 75.8416 34.5703 76.5941 34.5306C76.7333 34.5308 76.8659 34.5339 76.9907 34.5397C77.1797 34.5481 77.3928 34.5472 77.6206 34.5373C77.8695 34.53 78.0982 34.5334 78.2956 34.5475C78.4091 34.5473 78.5052 34.5544 78.5748 34.5681C78.6444 34.5818 78.6853 34.6016 78.6937 34.6259C78.6179 34.6446 78.5338 34.6617 78.4448 34.6765C77.9799 34.7351 77.5162 34.7593 77.1451 34.7444C76.4993 34.7189 75.7307 34.7438 75.044 34.7351C74.5797 34.7316 74.0857 34.7416 73.5712 34.7651C73.5712 34.7651 73.5848 34.7889 73.586 34.791C73.5252 34.8013 73.4612 34.8096 73.3978 34.8153C73.3978 34.8153 73.3978 34.8153 73.3916 34.8045C73.4198 34.7941 73.4581 34.7844 73.5019 34.7764L73.6548 34.7567C73.5509 34.7516 73.4538 34.7363 73.3455 34.7456C73.1173 34.763 72.8991 34.7703 72.7042 34.7671C72.5093 34.764 72.3417 34.7505 72.2114 34.7274C71.9805 34.6978 71.6932 34.6843 71.3683 34.6879C71.1192 34.6846 70.8792 34.6777 70.6494 34.6671C70.6494 34.6671 70.6346 34.6412 70.5258 34.6274C70.6289 34.6104 70.7364 34.5966 70.8433 34.5865C71.3087 34.5612 71.7754 34.5381 72.2327 34.5209C72.4011 34.519 72.5595 34.5219 72.7047 34.5295C73.1071 34.5384 73.5592 34.5258 74.0346 34.4924C74.0346 34.4924 74.1287 34.4803 74.1757 34.4742C74.0423 34.4173 73.5824 34.4743 73.3963 34.4357C73.2831 34.4364 73.0838 34.4413 73.0906 34.4311C73.1061 34.4176 73.108 34.405 73.096 34.3943C73.0841 34.3836 73.0587 34.375 73.0215 34.3692C72.9844 34.3633 72.9366 34.3604 72.8814 34.3605C72.8262 34.3607 72.765 34.3639 72.7023 34.37C72.1788 34.4031 71.6856 34.4123 71.2531 34.397C71.0892 34.3973 70.9053 34.4071 70.7426 34.4096C70.643 34.4125 70.552 34.4109 70.4747 34.4047C70.0815 34.3595 69.5524 34.3562 68.9669 34.3953C68.6839 34.4094 68.4195 34.4113 68.1873 34.4009C68.0221 34.399 67.952 34.4312 67.8344 34.4464L67.335 34.4783L67.9764 34.5184C67.8393 34.6101 67.7303 34.6404 67.5063 34.6461C67.1795 34.6548 66.8613 34.6587 66.5534 34.6578C66.3257 34.657 66.1377 34.6373 65.8294 34.6724C65.7749 34.6781 65.7225 34.68 65.6809 34.6776C65.3199 34.6465 64.8851 34.6393 64.4064 34.6567C64.1585 34.5983 63.7363 34.655 63.3456 34.7008C63.2196 34.6568 63.448 34.6366 63.5843 34.6098C63.2575 34.6125 62.9284 34.611 62.5911 34.6174C62.4897 34.6151 62.3738 34.6191 62.2524 34.6291C62.1311 34.6391 62.0076 34.6549 61.8917 34.6751C61.8353 34.6882 61.7672 34.6981 61.7016 34.7027C61.636 34.7072 61.578 34.7062 61.5396 34.6997C61.3645 34.6806 61.0842 34.6982 60.9395 34.6659C60.8881 34.6584 60.8146 34.6574 60.7322 34.6629C60.6497 34.6685 60.5637 34.6802 60.4896 34.6961V34.6961C60.5708 34.701 60.643 34.7088 60.7048 34.7193C60.9262 34.7533 60.8449 34.8101 60.5636 34.8926C60.1318 34.8881 59.6906 34.8894 59.2903 34.8738C59.0672 34.8599 58.7939 34.8642 58.5009 34.8864C58.208 34.9087 57.9072 34.9478 57.6322 34.9996C57.5327 35.0195 57.4193 35.0332 57.3145 35.0382C57.2097 35.0431 57.1212 35.0388 57.0666 35.0262C57.0326 35.0115 57.0221 34.993 57.0359 34.9722L57.3182 34.9358C57.3182 34.9358 57.3071 34.9164 57.3047 34.9121L56.8988 34.9088C56.6841 34.9087 56.4601 34.9145 56.2571 34.9128C55.959 34.902 55.6187 34.908 55.2572 34.9306C54.9237 34.9537 54.596 34.9712 54.2769 34.9828C53.9681 34.9948 53.7443 34.9565 53.4504 34.9504C53.2282 34.9458 52.9838 34.9507 52.7264 34.965C52.2819 34.9903 51.8739 34.9904 51.5397 34.9651C51.1499 35.1011 50.9605 35.1232 50.5987 35.0864L50.4286 35.0759L50.3821 35.1051L50.2522 35.0987C50.009 35.093 49.7659 35.0873 49.5122 35.0852C49.1595 35.0978 48.7786 35.1318 48.4067 35.1837C48.3362 35.1928 48.2401 35.2237 48.1781 35.2479C48.1162 35.2721 47.981 35.3451 47.8818 35.3926C47.9899 35.4273 48.1098 35.4605 48.1957 35.5004C48.2043 35.5072 48.2034 35.5153 48.1932 35.5241C48.183 35.5329 48.1636 35.5421 48.1367 35.551C48.1099 35.5598 48.0762 35.5681 48.0384 35.5752C48.0007 35.5822 47.9599 35.5879 47.9193 35.5916C47.8403 35.5996 47.7622 35.605 47.6885 35.6074C47.325 35.6117 46.977 35.6085 46.6478 35.598C46.5275 35.5832 46.363 35.5818 46.1801 35.594C45.9973 35.6063 45.8066 35.6315 45.6384 35.6656C45.2076 35.6451 44.707 35.6512 44.1712 35.6834C43.6046 35.6638 42.9201 35.7034 42.3906 35.6605C42.4029 35.682 42.3483 35.7192 42.2721 35.7406C42.1516 35.7731 42.0151 35.8032 41.8683 35.8297L40.7488 35.8814C40.707 35.9079 40.6546 35.9348 40.5926 35.9617C40.55 35.9829 40.4759 36.0037 40.386 36.0196C40.2961 36.0355 40.1973 36.0454 40.1108 36.047C39.888 36.0548 39.7013 36.0372 39.4356 36.0807C39.8447 36.1219 40.3964 36.1164 40.9924 36.0653C41.5524 36.0265 42.0911 36.0071 42.5884 36.0078C42.7524 36.0075 42.9683 36.0098 43.0196 36.0333C43.1331 36.0997 43.4302 36.0892 43.7767 36.0769C44.0489 36.0635 44.2976 36.065 44.5022 36.0813C44.7069 36.0976 44.8616 36.1282 44.9538 36.1707C44.9771 36.2117 44.9213 36.2466 44.6824 36.2705L43.6889 36.3661C43.5424 36.3538 43.4035 36.3393 43.2726 36.3225C43.0522 36.3003 42.78 36.2942 42.4772 36.3047C42.1744 36.3152 41.8492 36.342 41.5269 36.3831C41.3623 36.4044 41.1976 36.4256 41.0782 36.4155C40.9734 36.4039 40.877 36.3901 40.7895 36.374C40.7718 36.3632 40.7647 36.3509 40.7686 36.3373C40.7052 36.3436 40.6417 36.3518 40.5804 36.3616C40.0899 36.4758 39.71 36.4738 39.3648 36.4442C39.2714 36.4354 39.2003 36.4214 39.1057 36.4104C39.0111 36.3994 38.9777 36.3852 38.8917 36.3894C38.206 36.4268 38.0085 36.3017 37.4306 36.3068C37.4024 36.3019 37.3849 36.2946 37.3798 36.2855C37.3746 36.2765 37.382 36.266 37.4011 36.255C37.4419 36.2451 37.4892 36.2365 37.5385 36.2302C37.5878 36.2238 37.6377 36.2198 37.6834 36.2186C37.9494 36.2026 38.1843 36.2075 38.3479 36.2325C38.4638 36.2428 38.5865 36.2509 38.7153 36.257L39.294 36.0758C38.7333 36.0924 38.2031 36.0923 37.7156 36.0755C37.6092 36.0661 37.4291 36.0823 37.2793 36.0854L36.1779 36.1024C35.9514 36.1038 35.7585 36.0754 35.4427 36.1416C35.4427 36.1416 35.2341 36.1522 35.1785 36.1432C35.1228 36.1342 34.8762 36.078 34.7291 36.0413C34.5583 36.0518 34.3218 36.0799 34.2154 36.0705C34.0296 36.0473 33.8687 36.0176 33.7356 35.9818L33.0703 36.0329C33.071 36.0782 33.0953 36.1208 33.1428 36.1601C33.1946 36.198 33.1929 36.2436 33.1376 36.2929C33.0823 36.3423 32.9752 36.3942 32.8248 36.4443L32.1678 36.7096C32.0606 36.7273 31.9463 36.7393 31.8405 36.7438C31.7347 36.7484 31.6424 36.7452 31.5762 36.7349C31.2936 36.7042 30.9769 36.6801 30.6942 36.6494C30.3296 36.6964 30.4233 36.7723 30.1582 36.8389L29.2996 36.9496C29.1686 37.0522 29.0352 37.1504 29.4335 37.1848C29.5127 37.1908 29.4593 37.2301 29.5316 37.2462C29.2219 37.3232 28.8815 37.3462 28.5676 37.3936C28.4439 37.4277 28.3404 37.4638 28.2622 37.5002C28.1763 37.5549 28.0021 37.6108 27.7773 37.6558C27.5526 37.7008 27.2952 37.7313 27.0608 37.7407C26.6676 37.7695 26.265 37.8128 25.8711 37.8686C25.7365 37.888 25.5982 37.9021 25.4655 37.91C25.3328 37.9179 25.2088 37.9195 25.1018 37.9145C24.7206 37.9057 24.398 37.8755 24.1549 37.8258C23.9145 37.7836 23.5905 37.7633 23.2122 37.7667C22.5652 37.8501 22.4348 37.9757 22.0433 38.0864L22.7195 38.0988C22.7441 38.142 22.6993 38.1964 22.9765 38.1954C23.2537 38.1944 23.1131 38.2357 23.0232 38.2773C22.9915 38.2983 22.9297 38.3199 22.8482 38.3384C22.7667 38.3569 22.6706 38.3713 22.576 38.379L22.0004 38.4323C21.7962 38.4526 21.5987 38.4613 21.4294 38.4574C21.2601 38.4535 21.1257 38.4371 21.0408 38.4101C20.9434 38.3845 20.8089 38.3672 20.6456 38.3592C20.4376 38.3383 20.2665 38.3072 20.1387 38.2671L19.326 38.3255C19.2914 38.2852 19.1797 38.2569 19.0099 38.2455C18.84 38.2341 18.6224 38.2401 18.3939 38.2627L17.8461 38.2986C17.2371 38.3377 17.1035 38.3248 16.9252 38.2112L17.6555 38.0082C17.5493 37.9548 17.4468 37.9078 17.3443 37.8608C17.5263 37.7939 17.769 37.7307 18.0479 37.6775C18.3082 37.6203 18.5759 37.5649 18.8499 37.5116C19.1471 37.457 19.461 37.4096 19.83 37.3482C19.8945 37.3283 19.988 37.2931 20.1076 37.2591C20.2272 37.2262 20.3521 37.1938 20.4817 37.1623C20.4571 37.1191 20.435 37.0803 20.4823 37.0302C20.255 37.0462 20.0202 37.0741 19.799 37.1115C19.5779 37.1489 19.3773 37.1946 19.2154 37.2445C19.1882 37.2533 19.1549 37.2616 19.1176 37.2688C19.0803 37.276 19.04 37.2819 18.9993 37.2862C18.6001 37.3168 18.4093 37.3808 18.2141 37.4592C18.0826 37.4993 17.9131 37.5349 17.7292 37.5611C17.3763 37.6066 17.0308 37.665 16.6934 37.7154C16.5901 37.7322 16.4828 37.7461 16.3758 37.7564C16.0231 37.7891 15.6681 37.8348 15.3289 37.8913C15.2182 37.9057 15.112 37.9246 15.0191 37.9467C14.9262 37.9687 14.8494 37.9932 14.7951 38.018C14.8791 38.0452 14.9244 38.0795 14.9283 38.1189C14.943 38.1448 14.6953 38.1976 14.5782 38.2358C14.4611 38.2741 14.6907 38.2561 14.7687 38.2599C15.0885 38.2673 15.1479 38.2828 14.9563 38.3677C14.8924 38.3944 14.8499 38.4211 14.8316 38.4462C14.8133 38.4713 14.8195 38.4942 14.8499 38.5134C14.8954 38.5933 15.0337 38.6588 15.1286 38.7369C14.9812 38.7883 14.7347 38.8432 14.7078 38.9069C14.6949 38.921 14.6676 38.936 14.628 38.9507C14.5883 38.9654 14.5373 38.9795 14.4786 38.992C14.3237 39.019 14.1829 39.0512 14.0671 39.0862C13.9513 39.1212 13.8636 39.1581 13.8107 39.1939C13.7934 39.2087 13.7516 39.2244 13.6937 39.2379C13.6358 39.2514 13.5661 39.2616 13.4985 39.2665C13.4178 39.2726 13.3455 39.2718 13.2966 39.2643C13.2477 39.2568 13.2259 39.2432 13.2358 39.2263C13.2338 39.1946 13.2445 39.1614 13.2677 39.1273C13.2542 39.1035 13.2407 39.0798 13.2941 39.0405C13.053 39.0548 12.7999 39.0836 12.5622 39.1236C12.3246 39.1636 12.1115 39.2134 11.9461 39.2675C11.7634 39.3235 11.5948 39.3823 11.3922 39.4477C11.434 39.5211 11.434 39.5211 11.0028 39.6508L8.71571 39.714L8.24697 39.7999C7.80983 39.8748 7.7059 39.8696 7.43134 39.8309L7.24652 39.7946C6.85836 39.8446 6.41137 39.9022 6.1686 39.8084C6.08977 39.8696 6.03832 39.8901 6.05623 39.8993C6.1721 39.9895 6.37346 40.066 6.65236 40.1259C6.72345 40.1399 6.7735 40.1612 6.85636 40.1737C7.12351 40.2441 7.18547 40.3529 7.02958 40.4778C6.95219 40.5331 6.83979 40.5898 6.696 40.6459C6.90647 40.7238 7.18527 40.7883 7.52493 40.8378C7.8132 40.876 8.05056 40.9273 8.23027 40.99C8.39161 41.0532 8.63321 41.1008 8.94123 41.1299C9.09748 41.1423 9.21149 41.1667 9.27194 41.2008C9.28991 41.2929 9.24859 41.3915 9.14885 41.4945C9.13006 41.5258 9.07669 41.5597 8.99292 41.5934C8.90916 41.6271 8.79728 41.6597 8.66604 41.6887C8.66604 41.6887 8.60284 41.7108 8.57247 41.7239C8.54715 41.8355 8.64189 41.9339 8.85031 42.0123C8.88446 42.0346 8.95433 42.0507 9.05242 42.0588C9.15051 42.067 9.27308 42.067 9.40696 42.0587C9.68978 42.0454 9.95399 42.0437 10.2275 42.0363C10.5222 42.0257 10.7819 42.034 10.979 42.0604C11.1762 42.0867 11.3037 42.1301 11.348 42.1859C11.3509 42.2017 11.3596 42.2169 11.3738 42.2312C11.3822 42.2386 11.3867 42.2466 11.3874 42.255L10.7592 42.4378L11.4698 42.5106C11.5116 42.584 11.1705 42.6279 10.9995 42.6824L11.1052 42.7128C11.2412 42.73 11.4245 42.6971 11.5904 42.678L11.7551 42.6568L11.7747 42.6913C11.8773 42.7383 12.2512 42.6855 12.397 42.7199C12.5429 42.7544 12.4388 42.7933 12.2202 42.8307C12.0683 42.8585 11.9051 42.8807 11.743 42.8956C11.5809 42.9105 11.4241 42.9177 11.2844 42.9166C11.2009 42.9129 11.1317 42.9045 11.0809 42.8919C10.7859 42.8381 10.4601 42.7919 10.1057 42.7536C9.83409 42.7192 9.49391 42.7045 9.10911 42.7107C8.9962 42.7081 8.86003 42.7163 8.72451 42.7337C8.58899 42.7512 8.46282 42.7769 8.36811 42.8062V42.8062L8.16886 42.8111C8.16886 42.8111 8.05984 42.8413 8.07529 42.8463C8.15113 42.9359 8.06299 43.0456 7.82398 43.1589V43.1589L8.03184 43.1691C8.32888 43.1586 8.14052 43.2269 8.18493 43.2606C8.39594 43.2542 8.67015 43.2258 8.77021 43.2685L8.91995 43.2654L8.86115 43.273L8.79003 43.259L8.51072 43.3228C8.64308 43.3335 8.73894 43.3466 8.85586 43.3524C8.92044 43.3574 8.97184 43.3663 9.00699 43.3784C9.04213 43.3906 9.0603 43.4059 9.06037 43.4233C9.06005 43.45 9.09486 43.4726 9.16151 43.4887C9.22816 43.5048 9.32444 43.514 9.44114 43.5154C9.58035 43.516 9.66005 43.5451 9.74168 43.5554L9.38702 43.7308C9.38702 43.7308 9.56345 43.7081 9.46741 43.739L9.45513 43.7174L9.24024 43.7613C9.0854 43.7998 8.97711 43.8091 8.88565 43.7816C8.79419 43.754 8.81504 43.7907 8.77116 43.7801C8.78713 43.8082 8.88667 43.8278 8.97198 43.8445C9.07063 43.8577 9.18196 43.8674 9.30412 43.8735C9.08396 43.9968 9.07342 44.0005 9.39503 44.0332C9.71664 44.0658 9.60568 44.1148 9.8748 44.1218C10.1439 44.1288 9.83791 44.2123 9.65779 44.2285C9.52427 44.2392 9.38812 44.2559 9.25869 44.2774C9.12925 44.2989 9.0096 44.3246 8.90799 44.353L8.96205 44.4479C9.04125 44.44 9.1206 44.4298 9.19731 44.4176C9.45801 44.3654 9.69518 44.3163 9.92708 44.3467L9.81665 44.4188L10.6261 44.377C10.6052 44.431 10.4818 44.4926 10.282 44.5487V44.5487C10.3121 44.5795 10.3306 44.6119 10.3373 44.6458C10.3508 44.6695 10.4307 44.6546 10.4827 44.6571C10.6681 44.6611 10.8202 44.6772 10.9257 44.704C11.0312 44.7307 11.0869 44.7674 11.0878 44.8107C11.1087 44.8474 10.8237 44.9235 10.6455 44.921C10.2006 44.9283 9.71953 44.9565 9.22825 45.0041C8.92876 45.0103 8.88647 44.9138 8.39368 44.9797C8.3839 45.0242 8.44702 45.0602 8.57351 45.0824C8.7 45.1045 8.88298 45.1115 9.09482 45.1023C8.97437 45.2012 8.30727 45.227 8.27776 45.3304C8.44387 45.3231 8.62151 45.3059 8.79308 45.2805C8.96464 45.2552 9.12419 45.2225 9.25596 45.1858C9.2844 45.1767 9.32011 45.1684 9.35977 45.1615C9.39944 45.1546 9.44181 45.1495 9.48291 45.1465C9.52402 45.1435 9.56255 45.1428 9.59494 45.1444C9.62732 45.146 9.65252 45.1499 9.66819 45.1558C9.57585 45.1932 9.47417 45.2364 9.3583 45.2768C9.24243 45.3172 9.21452 45.3347 9.13096 45.3431C8.50756 45.4235 8.21118 45.5682 7.67186 45.6632C7.53071 45.6814 7.51315 45.7392 7.63569 45.7327C7.75226 45.7262 7.85779 45.727 7.94048 45.7352C8.02317 45.7433 8.07976 45.7584 8.10388 45.7789C8.19434 45.8027 8.30699 45.8216 8.43899 45.8352C7.88589 45.9838 7.22641 46.115 6.52245 46.2166C6.38913 46.2367 6.25007 46.2489 6.12567 46.2515C5.73271 46.2517 5.31573 46.2635 4.8831 46.2866C4.72967 46.293 4.5879 46.2924 4.46548 46.2849C4.06399 46.2672 3.74517 46.306 3.4539 46.4153L2.97182 46.5886C2.98779 46.6166 3.06869 46.6479 3.13101 46.6908L2.75443 46.7833L-0.119319 46.5702L-0.696207 46.7766L-1.52344 46.7651C-1.58684 46.7711 -1.65055 46.7793 -1.7116 46.7894C-1.87892 46.8503 -2.00974 46.9088 -2.19127 46.967C-2.3728 47.0251 -2.69703 47.0322 -2.92316 47.1007C-3.14928 47.1692 -3.37575 47.1706 -3.65559 47.2113C-3.6819 47.2643 -3.65472 47.3121 -3.57574 47.3515C-3.54994 47.3968 -3.40774 47.4248 -3.38317 47.468C-3.38588 47.5116 -3.33305 47.5486 -3.22944 47.5757C-3.12583 47.6027 -2.97472 47.619 -2.78984 47.623C-2.27209 47.7159 -1.64773 47.782 -0.935675 47.8194C-0.873129 47.8221 -0.821264 47.8284 -0.783307 47.8378C-0.745351 47.8473 -0.722119 47.8597 -0.715022 47.8743C-0.716 47.9166 -0.668526 47.9532 -0.576042 47.9813C-0.483559 48.0095 -0.348397 48.0285 -0.180486 48.037C-0.135767 48.0387 -0.10202 48.044 -0.0834352 48.0522C-0.0197494 48.0576 0.0266764 48.0678 0.0512925 48.0819C0.0759086 48.0959 0.0778905 48.1134 0.0570964 48.1326C0.0363022 48.1519 -0.00658225 48.1721 -0.0674305 48.1915C-0.128279 48.2109 -0.205041 48.2287 -0.29027 48.2433C-0.413892 48.2668 -0.540165 48.2892 -0.668583 48.3106C-0.661212 48.3236 -0.533777 48.3257 -0.552387 48.3373C-0.602699 48.3745 -0.61434 48.4094 -0.586435 48.4392C-0.55853 48.4689 -0.491824 48.4928 -0.39159 48.5088L-1.0784 48.8104C-1.49528 48.8521 -1.90422 48.923 -2.2276 49.0094C-2.22803 49.0236 -2.20943 49.0355 -2.17363 49.0439C-2.13783 49.0523 -2.08611 49.0569 -2.02364 49.0572C-1.85598 49.0634 -1.69762 49.0754 -1.51698 49.0822C-1.40656 49.0873 -1.31468 49.0986 -1.24667 49.1152C-1.17865 49.1319 -1.13586 49.1537 -1.12079 49.1794L-1.52404 49.2916C-1.39484 49.3189 -1.29899 49.332 -1.21368 49.3488C-1.26201 49.3841 -1.34517 49.4205 -1.45668 49.4554C-1.5682 49.4902 -1.70509 49.5226 -1.85677 49.5498C-1.89743 49.5554 -1.93891 49.5595 -1.97877 49.5619C-2.01864 49.5642 -2.05608 49.5648 -2.08885 49.5635C-2.40116 49.525 -2.76648 49.593 -3.12128 49.6572C-3.47608 49.7215 -3.6687 49.7602 -3.93063 49.8102L-4.43183 49.8169C-4.55867 49.8406 -4.67188 49.8684 -4.76236 49.8981C-4.85284 49.9279 -4.91808 49.9588 -4.95289 49.9883C-4.92586 50.0357 -4.68816 50.0097 -4.54649 50.0146C-4.21039 50.0442 -3.7685 50.0379 -3.29409 49.9968C-3.17647 49.9816 -3.05587 49.9938 -2.94141 49.9953C-2.6945 50.0012 -2.45721 50.0108 -2.23062 50.0241C-2.0814 50.0364 -1.94195 50.0517 -1.81316 50.0698C-1.77877 50.1303 -2.32036 50.1769 -2.01297 50.2068C-2.11883 50.2204 -2.15849 50.2394 -2.21291 50.2325C-2.5616 50.2718 -2.90516 50.2911 -3.20373 50.2885C-3.77673 50.2801 -4.42737 50.3077 -5.10236 50.3688C-5.83096 50.4321 -6.52986 50.4587 -7.14141 50.4464C-7.37434 50.4456 -7.63469 50.4586 -7.90261 50.4843C-8.21903 50.5198 -8.53322 50.5422 -8.82481 50.5499C-8.92136 50.5502 -9.02893 50.5562 -9.13876 50.5675C-9.24858 50.5789 -9.35755 50.5952 -9.45681 50.6151V50.6151C-9.44821 50.6302 -9.35361 50.6412 -9.37468 50.6485C-9.67647 50.7615 -9.79883 50.8792 -10.2634 50.9947C-10.581 51.0356 -10.9456 51.0826 -11.1533 51.0283C-11.3609 50.974 -11.2865 50.9274 -10.8732 50.7884C-10.9629 50.7864 -11.0709 50.7929 -11.1784 50.8068C-11.2859 50.8206 -11.386 50.841 -11.4613 50.8643L-11.8188 50.9682L-12.1409 51.0676C-12.1127 51.1173 -12.0905 51.1561 -12.0672 51.1971C-12.0303 51.2406 -12.0708 51.2936 -12.1829 51.3486C-12.2506 51.3786 -12.3095 51.4087 -12.359 51.4385C-12.5604 51.5576 -12.6187 51.6701 -12.5275 51.7635C-12.3525 51.8978 -12.1089 52.0214 -11.7995 52.1328C-11.4726 52.2412 -11.2938 52.3779 -11.0245 52.4961C-10.8871 52.5498 -10.7203 52.5981 -10.5258 52.6402C-10.1568 52.7339 -9.7525 52.823 -9.38228 52.9189C-9.01205 53.0147 -8.59404 53.0836 -8.18291 53.1626C-7.57074 53.2563 -6.90905 53.3373 -6.2015 53.405C-5.76368 53.4644 -5.3141 53.5222 -4.90911 53.5904C-4.43078 53.6673 -3.86886 53.7225 -3.23735 53.7547C-2.67957 53.7932 -2.18122 53.8502 -1.75184 53.9245C-1.70681 53.9325 -1.67127 53.9427 -1.64619 53.9549C-1.56888 54.0306 -1.35221 54.084 -1.02931 54.1069C-1.04894 54.1291 -1.07402 54.1516 -1.10446 54.1745C-1.14927 54.2017 -1.15861 54.2272 -1.13122 54.2476C-1.10384 54.268 -1.04102 54.2824 -0.950896 54.289C-0.69259 54.3078 -0.477905 54.3396 -0.316439 54.3832C-0.257125 54.3941 -0.220351 54.4101 -0.209225 54.4296C-0.198098 54.4491 -0.212951 54.4717 -0.252557 54.4954C-0.287627 54.5198 -0.29021 54.5422 -0.259947 54.5597C-0.229685 54.5773 -0.167976 54.5892 -0.0828196 54.5939C0.135816 54.617 0.369912 54.6355 0.617976 54.6495C1.14584 54.6802 1.7598 54.6798 2.42283 54.6484C2.4934 54.6393 2.56449 54.6533 2.64682 54.6427C3.11568 54.6075 3.55114 54.602 3.90045 54.627C4.31001 54.6367 4.73819 54.6348 5.17004 54.6393C5.79397 54.6363 6.36953 54.6548 6.88064 54.6944C7.46489 54.6561 7.79317 54.7227 8.28629 54.7239C8.74157 54.7308 9.1731 54.7471 9.57677 54.7729C10.2275 54.8072 10.8758 54.8371 11.5173 54.8771C12.1191 54.8962 12.6731 54.9327 13.1701 54.9859C13.3606 55.01 13.7054 54.9725 13.8351 55.0229C13.9648 55.0734 14.2266 55.0674 14.4381 55.0842L15.1056 55.1255C15.2204 55.1353 15.3466 55.1416 15.4823 55.1441C16.1029 55.1475 16.5326 55.2148 17.1086 55.2285L17.1674 55.221C18.1901 55.3211 19.3605 55.376 20.644 55.3842C21.3938 55.4149 22.2136 55.4134 23.0093 55.4359C23.199 55.4809 23.6472 55.4255 23.8852 55.4666C24.1233 55.5077 24.512 55.4807 24.8188 55.4875C25.1257 55.4942 25.4257 55.5111 25.7536 55.5105C26.0384 55.5107 26.2789 55.5291 26.4532 55.5639C26.851 55.6216 27.336 55.6554 27.8864 55.664C28.6146 55.679 29.3031 55.713 30.0438 55.7055C30.0332 55.7475 30.0786 55.7832 30.1754 55.809C30.2722 55.8348 30.4168 55.8497 30.5945 55.8522C31.3864 55.8682 32.1046 55.91 32.907 55.9223L33.1217 55.9224L35.5217 55.9465C36.1682 55.9512 36.7913 55.9589 37.4508 55.9642C37.6978 55.9323 37.7038 55.9871 37.8746 55.9767C37.9224 55.9497 37.9787 55.9378 38.0628 55.9524L38.0812 55.9848L40.8202 56.0277C41.8926 56.0591 43.0206 56.0685 44.1947 56.0559C44.4732 56.0591 44.7332 56.0698 44.9704 56.0879C45.1904 56.0945 45.4197 56.0974 45.6572 56.0966C45.9783 56.0885 46.292 56.0844 46.5971 56.0843C47.3995 56.0966 48.2417 56.09 49.1203 56.0809C49.999 56.0719 50.6646 56.088 51.4467 56.0867C51.9764 56.0856 52.5036 56.0802 53.0518 56.0674C53.3136 56.0615 53.6361 56.0291 53.9071 56.0174C54.1782 56.0056 54.2667 56.0057 54.3025 56.0243C54.4204 56.0762 54.717 56.0426 54.954 56.0376C55.4162 56.0289 55.4818 56.0112 55.6074 55.8769L55.0402 55.8343C54.9012 55.8205 54.7264 55.8181 54.5326 55.8272C54.3387 55.8364 54.1325 55.8568 53.9336 55.8866C53.8554 55.8993 53.7736 55.9094 53.693 55.9162C53.6124 55.923 53.5345 55.9265 53.4639 55.9263C52.8916 55.919 52.3273 55.9037 51.7773 55.8913L51.6969 55.8831L51.6919 55.7634C51.7646 55.7516 51.8401 55.7419 51.9153 55.7345L54.674 55.6568C55.307 55.6378 55.9643 55.5947 56.5856 55.5772C57.2069 55.5596 57.5417 55.5489 58.0238 55.5307C58.2272 55.5204 58.4346 55.5068 58.6445 55.4901C58.6324 55.4785 58.6254 55.4663 58.6236 55.4534C58.6126 55.434 58.5978 55.4081 58.687 55.3873C58.7843 55.358 58.9144 55.333 59.0511 55.3172C59.1796 55.3068 59.3042 55.301 59.42 55.2998C59.9794 55.2898 60.6185 55.2265 61.2008 55.1235L61.4041 55.1923C62.2785 55.1536 63.166 55.1157 64.0794 55.079C64.2622 55.069 64.4542 55.0498 64.6408 55.0228C64.8408 54.9971 65.0247 54.9432 65.2352 54.9138C65.4432 54.8926 65.6498 54.8761 65.8511 54.8645C65.7966 54.8468 65.7247 54.8327 65.6378 54.8225C65.5522 54.819 65.4899 54.8079 65.4598 54.791C65.4297 54.774 65.4335 54.7521 65.4705 54.7283C65.5356 54.6875 65.5642 54.6491 65.4226 54.6442C65.2917 54.6349 65.198 54.6147 65.1527 54.5861C65.1073 54.5575 65.1121 54.5216 65.1665 54.4827C65.1903 54.4599 65.2072 54.4376 65.2169 54.416V54.416L65.2757 54.4084C65.4697 54.3278 65.8571 54.2987 66.1352 54.2328C66.2665 54.2136 66.4023 54.2026 66.5214 54.2015C66.829 54.1873 67.1285 54.1811 67.4466 54.1633C67.5985 54.1551 67.7575 54.1401 67.914 54.1193C68.1374 54.0905 68.161 54.0874 68.2907 53.9827C68.0892 53.9845 67.9295 53.9689 67.8385 53.9384C67.7475 53.9079 67.7309 53.8645 67.7915 53.8155C67.9577 53.7084 68.1333 53.5954 68.8854 53.5193C68.6402 53.5156 68.4041 53.5081 68.1783 53.497C68.1126 53.4946 68.0634 53.4867 68.0373 53.4745C68.0112 53.4622 68.0094 53.446 68.0322 53.4282C68.055 53.4104 68.1014 53.3918 68.165 53.3749C68.2286 53.3579 68.3064 53.3434 68.3881 53.3333C68.785 53.2727 69.1992 53.2322 69.584 53.2162C69.9082 53.2092 70.2009 53.2131 70.5795 53.213L71.0265 53.1553C71.0191 53.1424 71.0848 53.1247 71.0681 53.1176C70.9545 53.0512 70.8292 52.9863 70.7002 52.9149C70.9063 52.8764 71.0848 52.8298 71.2153 52.7807C71.3459 52.7315 71.4231 52.6816 71.4383 52.6368C71.4494 52.6233 71.4465 52.611 71.4297 52.6007C71.413 52.5905 71.3828 52.5826 71.3414 52.5775C71.2237 52.5689 71.1329 52.5523 71.0759 52.5291C71.0189 52.506 70.9973 52.4768 71.0128 52.4439L71.3604 52.3227C72.4069 52.2362 73.4347 52.1744 74.4245 52.1384L75.3181 52.1112C75.4259 52.0788 75.3925 52.0646 75.291 52.0638C75.1896 52.063 74.9043 52.072 74.705 52.0768C74.533 52.0832 74.3801 52.079 74.2614 52.0647C74.1426 52.0504 74.062 52.0264 74.0273 51.9951L74.3273 51.8569C74.3125 51.831 74.2917 51.7943 74.1289 51.7968C74.0177 51.7938 73.9358 51.7807 73.8964 51.7598C73.857 51.7388 73.8623 51.7111 73.9116 51.6812C73.9191 51.6596 73.9079 51.6398 73.8784 51.623C73.6378 51.6216 73.3983 51.6223 73.1799 51.6157C73.0782 51.6136 72.9923 51.6055 72.9281 51.5922C72.8639 51.5789 72.8228 51.5607 72.8078 51.5387C72.7999 51.5172 72.8191 51.4927 72.8638 51.4673C72.9085 51.4418 72.9775 51.416 73.0652 51.392C73.4074 51.3623 73.7205 51.362 73.9357 51.391C74.0125 51.4137 74.1357 51.4261 74.2892 51.4266C74.4428 51.427 74.6194 51.4155 74.7958 51.3936C74.9977 51.3682 75.1993 51.3571 75.3642 51.3622C75.5291 51.3672 75.6464 51.3882 75.6953 51.4212C75.9026 51.4084 76.0864 51.3986 76.2678 51.3844C76.4817 51.3666 76.6839 51.3614 76.8525 51.3693C77.1224 51.3748 77.4131 51.3716 77.7182 51.3596C78.5975 51.3296 79.4781 51.3018 80.3295 51.2893C80.5548 51.2857 80.7497 51.2953 80.9724 51.2875C81.1952 51.2796 81.3714 51.3009 81.6501 51.258C81.7031 51.2513 81.7565 51.2471 81.806 51.2455C81.8556 51.2439 81.8998 51.2452 81.9353 51.249C82.4246 51.2829 82.9982 51.2877 83.6226 51.2631C84.4777 51.2571 85.3644 51.24 86.2208 51.2362C86.4719 51.2395 86.7093 51.2484 86.9303 51.2628C87.0986 51.2715 87.2748 51.2774 87.458 51.2805C87.5985 51.2832 87.7328 51.2752 87.7091 51.3222C87.6854 51.3693 87.8959 51.3398 88.0172 51.3311C88.434 51.3083 88.8599 51.2774 89.2903 51.2388C89.7144 51.1969 90.1299 51.1724 90.512 51.167C90.7879 51.1639 91.0725 51.1758 91.4273 51.1116C91.4138 51.0878 91.4003 51.0641 91.3231 51.0393C91.6124 50.9711 91.9425 50.9125 92.2862 50.8682C92.6298 50.8239 92.977 50.7952 93.2991 50.7846L93.7433 50.6556C93.8527 50.6404 93.9643 50.6294 94.0715 50.6231C94.1786 50.6169 94.279 50.6156 94.3665 50.6192C94.4342 50.6211 94.5166 50.6163 94.5987 50.6057C94.6808 50.5951 94.7571 50.5795 94.8135 50.5616C94.8979 50.5389 95.0009 50.5193 95.1097 50.5053C95.2185 50.4912 95.3282 50.4834 95.4251 50.4828C95.7303 50.4687 96.0561 50.4363 96.3691 50.3889C96.4503 50.3611 96.5012 50.3323 96.5155 50.3062C96.5298 50.2801 96.5068 50.2577 96.4495 50.2419C96.357 50.2139 96.3051 50.1783 96.2969 50.1372C96.2887 50.0961 96.3243 50.0503 96.4016 50.0026C96.4412 49.9734 96.4545 49.9457 96.4405 49.9212C96.4266 49.8967 96.3858 49.876 96.3205 49.8602C96.0771 49.7874 96.1422 49.7466 96.5406 49.6258C96.6053 49.6056 96.6833 49.5868 96.7696 49.5705C96.856 49.5542 96.9487 49.5407 97.0421 49.531C97.2612 49.5113 97.4773 49.4967 97.6864 49.4873C97.804 49.4722 97.9247 49.4844 98.0602 49.4785C98.7378 49.4491 98.837 49.4015 99.0565 49.2992L99.2164 49.2253C99.513 49.1654 99.8375 49.1157 100.166 49.0798C100.495 49.0438 100.82 49.0224 101.118 49.0172C101.236 49.0168 101.373 49.0066 101.505 48.9881C101.938 48.9316 102.376 48.8925 102.791 48.8733C103.049 48.8626 103.328 48.8347 103.593 48.7932C103.859 48.7516 104.099 48.698 104.286 48.6389C104.454 48.5857 104.674 48.5379 104.916 48.5023C105.198 48.4659 105.224 48.4231 105.066 48.3902C104.909 48.3572 104.645 48.3149 104.41 48.2802C104.329 48.2685 104.278 48.2493 104.264 48.2249C104.25 48.2006 104.274 48.1719 104.332 48.1422C104.369 48.0913 104.375 48.043 104.351 47.9984C104.338 47.9799 104.347 47.9587 104.377 47.9362C104.408 47.9137 104.459 47.8905 104.528 47.868C104.596 47.8456 104.681 47.8245 104.775 47.8061C104.869 47.7877 104.971 47.7726 105.075 47.7616C105.51 47.7055 105.933 47.6509 106.377 47.6099C106.563 47.5906 106.749 47.5666 106.93 47.5386C107.3 47.4694 107.697 47.412 108.096 47.3698C108.286 47.3509 108.471 47.3179 108.612 47.2778C109.057 47.17 109.466 47.0566 109.834 46.9397C109.922 46.9035 110.038 46.8681 110.174 46.8359C110.31 46.8036 110.463 46.7751 110.623 46.7523C110.753 46.7356 110.858 46.6989 110.958 46.6744C111.03 46.6178 111.038 46.5655 110.98 46.5223C110.922 46.4791 110.801 46.4465 110.628 46.4275C110.463 46.4047 110.309 46.3782 110.167 46.3503C109.996 46.3276 109.792 46.314 109.563 46.31C109.293 46.2978 109.092 46.2631 108.989 46.2103C109.73 46.1148 110.435 45.9777 111.084 46.0097L111.578 45.923C111.558 45.8884 111.541 45.8582 111.525 45.8302C111.407 45.7791 111.371 45.7148 111.418 45.6425C111.457 45.6076 111.453 45.5758 111.408 45.5503C111.362 45.5249 111.276 45.5067 111.159 45.4976C110.462 45.4045 109.656 45.3417 109.002 45.236C108.797 45.2162 108.557 45.2072 108.293 45.2094C108.037 45.2031 108.047 45.1554 108.342 45.0965C108.507 45.0658 108.676 45.0363 108.847 45.0082C109.602 45.0036 109.91 45.1445 110.771 45.1053L111.17 44.9195C111.278 44.9166 111.383 44.9155 111.484 44.9161L112.929 44.9916C113.049 44.9954 113.143 45.0083 113.199 45.0289C113.255 45.0494 113.272 45.0769 113.247 45.108C113.238 45.1461 113.257 45.181 113.306 45.2115C113.338 45.2329 113.318 45.2613 113.25 45.2905C113.098 45.3564 113.293 45.3661 113.416 45.3826C113.448 45.3842 113.484 45.3841 113.523 45.3821C113.562 45.3802 113.603 45.3765 113.643 45.3712C113.684 45.366 113.723 45.3594 113.759 45.3517C113.795 45.344 113.826 45.3355 113.852 45.3265C114.068 45.2638 114.258 45.1977 114.471 45.1286C114.32 45.0624 114.498 44.9537 114.262 44.8939C114.235 44.8819 114.225 44.8673 114.231 44.851C114.237 44.8348 114.259 44.8171 114.296 44.7991C114.392 44.7528 114.438 44.7076 114.429 44.6681C114.42 44.6286 114.356 44.5963 114.244 44.5743L114.23 44.5506C114.526 44.4708 114.448 44.3998 114.564 44.3154L114.848 44.2602C115.555 44.1274 115.556 44.1296 116.165 44.1345C116.288 44.0839 116.132 44.0762 116.015 44.0704L115.036 44.0137C114.395 43.9758 113.737 43.9496 113.021 43.9353C112.306 43.9209 111.509 43.8732 110.77 43.8388C110.732 43.8362 110.704 43.8309 110.686 43.8235C110.669 43.816 110.663 43.8067 110.67 43.7961C110.699 43.7848 110.737 43.7738 110.782 43.764C110.827 43.7542 110.877 43.7459 110.928 43.7397C111.163 43.7094 111.404 43.6898 111.655 43.6645L112.122 43.6204L112.266 43.5625C112.36 43.5273 112.424 43.4843 112.548 43.459C112.651 43.4402 112.762 43.4258 112.871 43.4175C112.979 43.4093 113.081 43.4073 113.165 43.4119C113.399 43.4235 113.611 43.4402 113.834 43.4554C114.057 43.4706 114.18 43.4872 114.374 43.4946C114.767 43.498 115.148 43.507 115.513 43.5215C115.821 43.5558 116.105 43.5965 116.365 43.6432C116.527 43.6617 116.679 43.6839 116.955 43.6598C117.087 43.6379 117.2 43.6092 117.275 43.5788C117.35 43.5483 117.382 43.5181 117.366 43.4934C117.351 43.4741 117.309 43.4588 117.243 43.449C117.178 43.4391 117.092 43.4351 116.993 43.4373C116.715 43.4337 116.458 43.4218 116.227 43.4016C115.906 43.3651 115.515 43.3494 115.077 43.3553C114.929 43.3606 114.829 43.341 114.699 43.3346C114.57 43.3282 114.459 43.3123 114.315 43.324C113.865 43.3542 113.649 43.3079 113.379 43.2778C113.288 43.2645 113.231 43.2429 113.216 43.2155C113.2 43.1881 113.226 43.1559 113.291 43.1225C113.415 43.0559 113.568 42.9889 113.745 42.9227C113.837 42.8901 113.954 42.8591 114.087 42.8323C114.221 42.8054 114.368 42.7833 114.516 42.7678C114.604 42.727 114.651 42.6869 114.653 42.6511C114.655 42.6153 114.611 42.585 114.525 42.5628C114.307 42.5122 114.113 42.4607 113.625 42.489C113.395 42.4998 113.178 42.5019 112.984 42.4951C112.553 42.4859 112.057 42.5061 111.54 42.5539C111.407 42.5661 111.276 42.5744 111.15 42.5786C110.258 42.608 109.408 42.6226 108.555 42.633C108.104 42.6379 107.648 42.6364 107.177 42.6509C106.071 42.6823 105.064 42.6661 103.997 42.6764C103.438 42.6816 102.937 42.6605 102.522 42.6141C102.441 42.5985 102.372 42.5803 102.314 42.5598C102.59 42.5058 102.892 42.4631 103.193 42.4357C103.493 42.4084 103.782 42.3972 104.031 42.4034C104.168 42.4185 104.345 42.4212 104.542 42.4113C104.739 42.4015 104.949 42.3793 105.148 42.3474V42.3474L104.569 42.3293C104.186 42.3209 103.793 42.3182 103.42 42.3061C102.827 42.2853 102.278 42.2519 101.664 42.2383C101.169 42.2259 100.725 42.1941 100.348 42.144C100.075 42.1075 99.7639 42.0815 99.4201 42.0668C99.1757 42.0589 99.1757 42.0589 99.0195 41.9841C99.1434 41.9357 99.3037 41.9289 99.4547 41.928C100.36 41.8976 101.221 41.8922 102.021 41.9121C102.425 41.9139 102.783 41.9344 103.078 41.9727C103.151 41.9888 103.336 41.9812 103.484 41.9759C103.95 41.9679 104.395 41.9703 104.814 41.9828C105.393 42.0038 106.039 41.9989 106.725 41.9681C106.855 41.9305 106.705 41.9336 106.698 41.9207C106.166 41.8965 105.645 41.8687 105.103 41.8483C104.955 41.841 104.797 41.8374 104.63 41.8375C104.008 41.8502 103.489 41.815 103.146 41.737C103.129 41.7068 102.904 41.7104 102.804 41.6908C102.755 41.6738 102.723 41.6538 102.707 41.6315C102.852 41.5757 103.016 41.5754 103.143 41.5754C103.509 41.5816 103.861 41.5934 104.198 41.6107C104.511 41.6272 104.858 41.6316 105.228 41.6238C105.502 41.6163 105.736 41.6279 106.011 41.6247C106.161 41.6181 106.316 41.6074 106.473 41.593C106.298 41.5541 106.061 41.5302 105.777 41.523C105.562 41.4998 105.292 41.4928 105.258 41.4324C105.36 41.3892 105.473 41.3885 105.564 41.393C105.753 41.3928 105.936 41.3955 106.111 41.4011C106.483 41.4134 106.886 41.4136 107.311 41.4016C107.535 41.3971 107.747 41.3985 107.945 41.4056C108.392 41.4151 108.821 41.4363 109.23 41.446C110.069 41.456 110.834 41.4916 111.641 41.5105C111.82 41.5151 111.981 41.5314 112.217 41.5033C112.454 41.4751 112.464 41.4714 112.492 41.4539C112.558 41.4248 112.578 41.3965 112.548 41.3749C112.501 41.3548 112.41 41.3436 112.29 41.3433C111.57 41.3113 110.886 41.2664 110.244 41.2088C109.962 41.1973 109.714 41.1737 109.51 41.139C109.348 41.1151 109.156 41.0993 108.94 41.092C108.626 41.0748 108.299 41.0621 107.959 41.0541C107.801 41.0498 107.667 41.037 107.564 41.0164C107.461 40.9959 107.392 40.968 107.361 40.9344L107.777 40.8229C107.842 40.8177 107.907 40.8132 107.971 40.8094L111.426 40.8897L111.768 40.8919C112.143 40.8853 112.235 40.8688 112.59 40.7396C111.779 40.7092 111.141 40.6206 110.74 40.4827C110.836 40.4678 110.935 40.4551 111.034 40.4447C111.682 40.4121 112.296 40.4034 112.85 40.4191C113.179 40.4206 113.517 40.4164 113.857 40.4143C113.758 40.3507 113.377 40.3696 113.129 40.3553C112.536 40.3328 112.012 40.2865 111.574 40.2177C111.422 40.1909 111.233 40.1737 111.014 40.167C110.796 40.1647 110.613 40.1485 110.482 40.1197C110.351 40.091 110.277 40.0506 110.264 40.0021C110.243 39.9582 110.199 39.9173 110.131 39.8802C110.251 39.8276 110.441 39.7772 110.665 39.7384C110.889 39.6997 111.133 39.6754 111.35 39.6699C111.813 39.6482 112.294 39.6127 112.78 39.5644C113.022 39.5399 113.259 39.5259 113.476 39.5232C113.667 39.5212 113.885 39.5035 114.096 39.473C114.306 39.4425 114.498 39.4009 114.642 39.3544C114.837 39.2969 115.018 39.2387 115.2 39.1806C115.382 39.1225 115.592 39.049 115.804 38.9777C115.991 38.9665 116.173 38.9594 116.347 38.9563C116.483 38.9589 116.642 38.9511 116.804 38.9339C116.967 38.9166 117.126 38.8906 117.264 38.8589V38.8589C117.183 38.8277 117.092 38.8001 116.995 38.7639C117.128 38.7161 117.224 38.6673 117.277 38.6206C117.331 38.5739 117.341 38.5301 117.308 38.4921C117.288 38.4576 117.432 38.3997 117.482 38.3539C117.546 38.3144 117.558 38.2776 117.516 38.2482C117.475 38.2189 117.382 38.1984 117.249 38.1894C117.085 38.1727 116.951 38.1477 116.853 38.1153C116.821 38.1069 116.805 38.0954 116.806 38.0818C116.806 38.0682 116.825 38.053 116.859 38.0376C116.893 38.0222 116.941 38.007 117 37.9935C117.058 37.98 117.125 37.9685 117.194 37.9602C117.406 37.9366 117.616 37.9214 117.813 37.9152C118.151 37.904 118.476 37.897 118.785 37.8941C119.128 37.8897 119.509 37.863 119.89 37.8165C120.231 37.7725 120.537 37.7331 120.704 37.6491C120.871 37.5651 121.137 37.5677 121.342 37.5066C121.227 37.4514 121.022 37.4131 120.749 37.3955C120.57 37.3892 120.42 37.3727 120.31 37.3471C120.2 37.3214 120.131 37.2871 120.108 37.2465L120.731 37.0759C121.228 36.9956 121.503 37.0574 122.04 37.0253L121.487 36.9623C121.476 36.9561 121.472 36.9488 121.475 36.9407C121.528 36.8134 121.614 36.7861 122.18 36.7155L122.497 36.6746L123 36.626C123.08 36.5999 123.136 36.5727 123.161 36.5471C123.187 36.5215 123.181 36.4984 123.144 36.4801C123.07 36.4493 123.048 36.41 123.079 36.3657C123.128 36.3364 123.132 36.3094 123.09 36.2894C123.049 36.2693 122.965 36.2575 122.852 36.256C122.763 36.2537 122.756 36.2198 122.707 36.2006C122.659 36.1742 122.576 36.1539 122.464 36.1411C122.352 36.1284 122.214 36.1234 122.059 36.1267C121.602 36.1293 121.173 36.1194 120.78 36.0971L120.85 36.088C120.44 36.1076 120.056 36.11 119.718 36.095C119.379 36.0762 118.944 36.0883 118.584 36.0768C118.291 36.0794 118.068 36.0534 117.962 36.0041C117.859 35.9571 117.487 35.9681 117.201 35.9771C117.032 35.9829 116.869 35.9854 116.713 35.9845C116.504 35.9738 116.242 35.9838 115.972 36.0129C115.891 36.0218 115.811 36.0265 115.74 36.0266C115.052 36.0388 114.366 36.0531 113.688 36.0595C113.531 36.0558 113.348 36.0642 113.159 36.0837C113.079 36.0921 113.002 36.0956 112.937 36.0937C111.866 36.0744 110.656 36.1237 109.606 36.097C109.479 36.0907 109.338 36.0894 109.187 36.0931C108.849 36.1088 108.555 36.0987 108.35 36.0644C108.239 36.0462 108.098 36.0361 107.934 36.0349C107.77 36.0337 107.588 36.0413 107.399 36.0573C107.084 36.0785 106.793 36.0808 106.557 36.064C106.096 36.0484 105.611 36.042 105.107 36.0448C104.952 36.0475 104.816 36.0415 104.709 36.0271C104.603 36.0128 104.528 35.9905 104.491 35.962C104.615 35.9136 104.751 35.9077 104.879 35.912C105.378 35.901 105.876 35.8878 106.365 35.8826C106.803 35.8677 107.224 35.8632 107.62 35.869C107.817 35.8756 108.062 35.8606 108.303 35.8273C108.598 35.7851 108.902 35.7641 109.154 35.7686C109.34 35.7697 109.537 35.7661 109.741 35.7578C109.872 35.7477 110.006 35.7304 110.129 35.7077C110.178 35.6979 110.231 35.6896 110.286 35.6834C110.34 35.6772 110.394 35.6732 110.444 35.6718C110.494 35.6703 110.54 35.6714 110.578 35.6749C110.615 35.6784 110.644 35.6843 110.663 35.6921C110.852 35.7581 111.275 35.7244 111.637 35.7171C112.179 35.6055 112.583 35.6716 113.09 35.6086C113.13 35.6044 113.17 35.6018 113.206 35.6011C113.243 35.6004 113.275 35.6015 113.302 35.6044C114.284 35.6423 115.427 35.6107 116.457 35.6238C116.571 35.6257 116.703 35.6191 116.838 35.6048C117.721 35.5102 118.57 35.4833 119.219 35.5294C119.298 35.5336 119.388 35.5338 119.484 35.53C119.928 35.4923 120.353 35.4773 120.722 35.4862C121.301 35.4834 121.858 35.4857 122.447 35.477C122.852 35.4646 123.208 35.4778 123.478 35.5153C123.487 35.5304 123.667 35.5142 123.805 35.5126C123.885 35.4746 123.953 35.4402 124.035 35.4065C124.108 35.3648 124.218 35.3226 124.356 35.2828C124.495 35.243 124.659 35.2064 124.838 35.1757C125.144 35.1363 125.174 35.0791 124.96 35.058C124.409 34.9884 123.715 34.9599 122.931 34.9746C122.275 34.9758 121.607 34.9785 120.942 34.9855C120.554 34.9915 120.145 35.0048 119.768 35.0072C119.64 35.0123 119.509 35.0199 119.376 35.0298C119.213 35.0442 119.055 35.052 118.91 35.0529C118.444 35.0408 117.924 35.0514 117.375 35.0841C117.173 35.0912 116.98 35.0936 116.798 35.0913C116.367 35.0824 115.899 35.0889 115.408 35.1107C115.102 35.123 114.806 35.1294 114.522 35.1299C114.422 35.1312 114.34 35.1209 114.244 35.1287C113.394 35.2105 112.792 35.1514 112.027 35.1829C111.655 35.1916 111.3 35.1917 110.967 35.183C110.316 35.1834 109.646 35.1923 108.962 35.2098C108.056 35.2385 107.217 35.2285 106.353 35.2404C106.182 35.2429 106.018 35.2425 105.86 35.2391C105.093 35.2171 104.26 35.2217 103.381 35.253C103.181 35.2576 103.002 35.252 102.854 35.2368C102.706 35.2216 102.593 35.197 102.522 35.1645C102.492 35.1423 102.512 35.1134 102.577 35.0834C102.685 35.0451 102.808 35.0076 102.942 34.9714L107.835 34.8502C108.041 34.8439 108.241 34.8404 108.435 34.84C109.007 34.8389 109.596 34.8295 110.2 34.8117C110.796 34.795 111.366 34.798 111.944 34.793C112.114 34.7913 112.289 34.7873 112.467 34.7811C113.674 34.7316 114.851 34.7014 115.989 34.6907C116.468 34.6892 116.985 34.6665 117.474 34.6591C117.962 34.6518 118.629 34.6491 119.209 34.6462L121.002 34.6467C121.354 34.6452 121.698 34.6496 122.04 34.6518C122.455 34.494 122.598 34.4571 123.152 34.388C123.342 34.3625 123.535 34.3473 123.708 34.3441C124.258 34.3566 124.948 34.3047 125.47 34.3116C125.784 34.3082 126.051 34.3257 126.243 34.3623C126.41 34.3911 126.601 34.4138 126.812 34.4302C127.392 34.2953 127.443 34.2077 127.007 34.1736C126.889 34.1657 126.726 34.1681 126.641 34.1513C126.592 34.1411 126.525 34.1352 126.446 34.1342C126.366 34.1332 126.276 34.1371 126.183 34.1455C125.889 34.1676 125.613 34.1728 125.384 34.1605C125.168 34.1444 124.903 34.145 124.615 34.1624C124.403 34.1897 124.217 34.1512 124.034 34.14C123.851 34.1289 123.7 34.1089 123.414 34.1388C123.362 34.1448 123.31 34.1484 123.262 34.1493C123.215 34.1502 123.173 34.1484 123.14 34.1441C122.832 34.1249 122.466 34.1269 122.07 34.15C121.462 34.1728 120.892 34.1737 120.379 34.1526C120.072 34.1341 119.811 34.1014 119.604 34.0556C119.548 34.0403 119.465 34.0312 119.362 34.029C118.846 34.0385 118.286 34.0745 117.718 34.1344C117.504 34.1585 117.29 34.1775 117.081 34.1911C116.651 34.2212 116.236 34.2381 115.847 34.2413C115.281 34.2418 114.693 34.2534 114.086 34.276C113.712 34.2886 113.351 34.2932 113.008 34.2899C112.656 34.2883 112.28 34.2979 111.888 34.3185C111.499 34.3352 111.156 34.3256 110.9 34.2907C110.816 34.2719 110.748 34.2495 110.698 34.2241C111.268 34.1413 111.858 34.0992 112.348 34.1064C112.535 34.1009 112.689 34.1064 112.886 34.0742L112.892 34.085C112.931 34.0919 112.99 34.0936 113.057 34.0896C113.125 34.0856 113.196 34.0762 113.258 34.0632V34.0632C113.235 34.0222 113.213 33.9834 113.197 33.9553C112.823 33.9603 112.46 33.9599 112.11 33.9541C111.815 33.9459 111.414 34.0183 111.159 33.991C110.661 34.0252 110.344 33.9781 109.897 33.9917C109.45 34.0052 108.958 34.0502 108.511 34.0637C108.121 34.0712 107.743 34.0728 107.378 34.0686C107.252 34.0627 107.106 34.0641 106.951 34.0727C106.732 34.0889 106.528 34.0916 106.363 34.0805C106.199 34.0694 106.079 34.0449 106.018 34.0099C106.076 33.9771 106.152 33.9347 106.241 33.8909C106.078 33.8549 105.83 33.8397 105.535 33.8476L105.117 33.8459C105.006 33.8469 104.922 33.8371 104.881 33.8187C104.84 33.8003 104.845 33.7746 104.897 33.747C105.688 33.6078 105.718 33.5925 106.299 33.682L107.071 33.6404L107.058 33.6398ZM96.6192 34.022L96.678 34.0144L96.6192 34.022ZM0.44485 48.8247L0.458363 48.8485L0.443622 48.8226L0.314253 48.8393L0.305654 48.8242L0.44485 48.8247ZM19.2303 38.4235C19.4132 38.3976 19.5978 38.3738 19.7832 38.3523C19.8317 38.3489 19.8771 38.3482 19.9155 38.3501C19.954 38.352 19.9843 38.3564 20.004 38.3632C20.0188 38.389 19.9153 38.407 19.8212 38.4191C19.7026 38.4355 19.5814 38.4458 19.4701 38.4492C19.3588 38.4525 19.2615 38.4488 19.1882 38.4382L19.0818 38.4288L19.2303 38.4235ZM113.425 44.7331C113.305 44.7374 113.191 44.7381 113.086 44.7352C112.619 44.7143 112.173 44.6838 111.694 44.6644C111.091 44.6152 110.398 44.5951 109.64 44.605C109.344 44.6098 109.095 44.5938 108.92 44.5589C108.815 44.5402 108.68 44.5293 108.523 44.5268L106.521 44.4699C106.397 44.4581 106.29 44.4415 106.202 44.4206C106.379 44.3979 106.496 44.3827 106.567 44.3736C106.713 44.3711 106.839 44.378 106.932 44.3937C107.031 44.4204 107.2 44.4309 107.403 44.4233C107.609 44.4169 107.809 44.4135 108.003 44.4131C108.37 44.4144 108.74 44.42 109.108 44.4235C109.251 44.4977 109.674 44.4641 110.036 44.4568L110.315 44.4601C111.229 44.4985 112.103 44.5514 112.931 44.6185C113.091 44.6299 113.229 44.648 113.34 44.6723C113.382 44.6912 113.396 44.7149 113.379 44.7413L113.438 44.7337L113.425 44.7331ZM72.6043 51.8242C72.3825 51.8293 72.1515 51.8397 71.9149 51.8552C71.7325 51.8711 71.5546 51.8807 71.3882 51.8837C70.4558 51.9004 69.4842 51.9388 68.4865 51.9984C68.356 52.0074 68.2306 52.0119 68.1152 52.0115L67.2985 51.9964C67.0411 51.9879 67.0362 51.9793 67.2236 51.8648C67.3791 51.8426 67.5363 51.8223 67.6941 51.8042C67.7882 51.792 67.941 51.7723 67.9768 51.7909C68.195 51.8415 68.593 51.8087 68.9278 51.798C69.8969 51.7703 70.8963 51.7295 71.8747 51.696C72.0815 51.6878 72.2819 51.6837 72.4737 51.6836C72.5927 51.6819 72.7012 51.6851 72.7948 51.6932C72.8221 51.694 72.845 51.6964 72.8619 51.7002C72.8788 51.704 72.8893 51.7091 72.8928 51.7153C72.8963 51.7214 72.8926 51.7284 72.8821 51.7357C72.8715 51.7431 72.8543 51.7506 72.8316 51.7579C72.7515 51.7834 72.6591 51.8078 72.5572 51.8303L72.6043 51.8242ZM65.5054 35.212L64.5507 35.1984C64.4363 35.197 64.3392 35.1817 64.2167 35.1883C63.563 35.209 62.9578 35.2032 62.4267 35.1712C62.2459 35.1581 62.0343 35.1555 61.8037 35.1635C61.0975 35.1872 60.4313 35.1881 59.8231 35.1664C59.4301 35.162 59.0622 35.1474 58.725 35.1227C58.6991 35.117 58.6829 35.1092 58.6776 35.0999C58.6723 35.0906 58.678 35.0799 58.6943 35.0688C58.6986 35.0617 58.7101 35.0541 58.7282 35.0465C58.7462 35.0389 58.7704 35.0314 58.7989 35.0247C58.8275 35.0179 58.8597 35.012 58.8935 35.0073C58.9273 35.0026 58.9619 34.9993 58.9947 34.9976C59.4207 34.9642 59.825 34.9525 60.1748 34.9636C60.499 34.9769 60.8482 34.9808 61.2167 34.9752C61.5694 34.9737 61.8086 35.017 62.2444 34.984C62.4287 34.9731 62.5913 34.9767 62.7047 34.9941C62.9329 35.023 63.2514 35.0246 63.6037 34.9986C63.8144 34.9855 64.0158 34.9799 64.2002 34.982C64.6475 34.9915 65.075 35.0105 65.4895 35.0288C65.6201 35.0331 65.76 35.0337 65.9071 35.0306L67.9825 34.9946C68.4812 34.9836 68.9788 34.9704 69.4682 34.9652C69.8685 34.9539 70.241 34.9575 70.5726 34.9757C70.9261 34.9948 71.3117 35.0026 71.7221 34.9989C72.3594 35.0094 72.9929 35.0134 73.6866 35.012C74.1289 35.0128 74.5819 35.01 75.0441 35.0014C75.2779 34.9903 75.4764 34.9993 75.6015 35.0268C75.6775 35.0494 75.8564 35.031 76.0049 35.0257C76.7971 34.9751 77.54 34.9631 78.1817 34.9906C78.2637 34.9951 78.3537 34.9967 78.4497 34.9954C79.0678 34.9945 79.7082 34.9884 80.3016 34.9883C80.4578 34.9904 80.6048 34.9963 80.7408 35.0058C80.7262 35.0213 80.6847 35.0381 80.6249 35.0527C80.565 35.0673 80.4914 35.0786 80.4193 35.0843C79.8581 35.1276 79.3163 35.1504 78.8165 35.1519C77.9846 35.1464 77.1133 35.1588 76.2115 35.189C75.5117 35.2194 74.8737 35.213 74.3448 35.1702C73.9314 35.1383 73.3937 35.1503 72.8238 35.2042C72.58 35.2299 72.3433 35.2402 72.1462 35.2337C71.9565 35.2251 71.7387 35.2271 71.5058 35.2398C71.0146 35.2639 70.5423 35.275 70.098 35.2731C69.6637 35.2642 69.2585 35.24 68.8124 35.2327C68.3664 35.2253 67.687 35.2295 67.137 35.2171C66.587 35.2046 66.0431 35.2029 65.5054 35.212ZM105.063 33.9502C105.012 34.0169 104.834 34.0584 104.642 34.0762C103.981 34.1551 103.327 34.1888 102.79 34.1713C102.5 34.1471 102.113 34.1564 101.706 34.1975C101.232 34.2403 100.789 34.2474 100.455 34.2176C100.373 34.2124 100.311 34.2013 100.273 34.1855C100.265 34.1726 100.252 34.1488 100.249 34.1445C100.285 34.1336 100.328 34.1234 100.375 34.1149C100.423 34.1063 100.474 34.0996 100.524 34.0952L102.716 34.0188L103.097 34.002C103.795 33.958 104.46 33.9405 105.063 33.9502V33.9502ZM100.753 35.0059C100.411 35.1148 100.409 35.1127 100.234 35.1376C99.3889 35.241 98.5442 35.2968 97.8006 35.2984C97.6353 35.2981 97.4951 35.2876 97.3917 35.2678C97.3385 35.2651 97.3047 35.2565 97.2975 35.244C97.2904 35.2315 97.3106 35.216 97.3536 35.2009L97.6256 35.1242C98.1195 35.0909 98.6063 35.0645 99.083 35.0451C99.6381 35.0222 100.13 35.0213 100.706 35.012L100.753 35.0059ZM72.6453 51.3419C72.3266 51.4918 72.3254 51.4897 71.7918 51.5284C71.4201 51.5558 71.0595 51.5718 70.7206 51.5761C70.3067 51.5809 69.8822 51.5893 69.4695 51.5961C69.3687 51.6009 69.2832 51.597 69.2298 51.585C69.1763 51.5731 69.1586 51.554 69.1801 51.5316C69.2343 51.5072 69.319 51.4836 69.4205 51.4646C69.5221 51.4456 69.6344 51.4324 69.7393 51.4271L69.9645 51.4235C70.2381 51.416 70.5221 51.4049 70.7863 51.4032C70.9578 51.4095 71.1564 51.4047 71.3666 51.3892C71.5769 51.3738 71.793 51.3481 71.9982 51.3142L72.6453 51.3419ZM99.0509 34.1462C98.9658 34.1721 98.8696 34.197 98.7648 34.2201C98.3589 34.2841 97.9293 34.3205 97.5603 34.3221C97.3858 34.3261 97.2262 34.3119 97.0485 34.3325C96.7299 34.36 96.4211 34.3746 96.1388 34.3756C96.1388 34.3756 96.0596 34.3696 96.0336 34.3684L95.9796 34.2734C96.1132 34.2514 96.2526 34.2335 96.3913 34.2204C96.8567 34.1951 97.314 34.1779 97.7701 34.1584C98.2262 34.139 98.3852 34.1301 98.6835 34.1217C98.8165 34.1263 98.9396 34.1345 99.0509 34.1462ZM109.129 45.9468L108.52 46.1411C108.323 46.158 108.139 46.161 107.996 46.1498C107.853 46.1386 107.758 46.1137 107.727 46.0789C107.677 46.0626 107.672 46.0385 107.713 46.0116C107.754 45.9847 107.839 45.9571 107.948 45.9346C108.054 45.908 108.174 45.8841 108.302 45.8644C108.429 45.8447 108.562 45.8297 108.691 45.8203L109.129 45.9468ZM104.058 44.9795C104.457 44.9465 104.838 44.933 105.172 44.9401C105.383 44.9594 105.669 44.9532 105.971 44.9229C106.519 44.8624 107.049 44.8457 107.446 44.8762C107.446 44.8762 107.461 44.9021 107.529 44.9096C107.596 44.9171 107.329 44.9354 107.27 44.943C106.838 44.9615 106.405 44.9757 106.03 44.9824C105.797 44.9821 105.551 44.9882 105.295 45.0007C104.944 45.0198 104.61 45.026 104.308 45.019C104.308 45.019 104.191 45.0133 104.06 44.9816L104.058 44.9795ZM61.5173 34.86C61.7075 34.8234 61.9138 34.7937 62.1207 34.773C62.3276 34.7524 62.5297 34.7414 62.7119 34.7408C62.8514 34.7389 62.9643 34.7485 63.0327 34.7682C63.1011 34.7879 63.121 34.8166 63.0895 34.8496C62.9484 34.8678 62.7602 34.892 62.6543 34.9057C62.2874 34.9043 61.9744 34.8868 61.5173 34.86ZM25.9011 37.9434C26.0537 37.914 26.2219 37.8915 26.3864 37.8784C26.5509 37.8654 26.7051 37.8624 26.8313 37.8698C26.8963 37.873 26.8522 37.9065 26.8633 37.9259C26.8705 37.9303 26.8704 37.9358 26.863 37.9418C26.8556 37.9478 26.8412 37.954 26.8213 37.9599C26.8015 37.9658 26.7768 37.9711 26.75 37.9752C26.7231 37.9793 26.6951 37.9822 26.6688 37.9834C26.5031 37.9961 26.3468 37.9999 26.2137 37.9944C26.0806 37.9889 25.9749 37.9744 25.906 37.9521L25.9011 37.9434ZM23.5147 38.3645C23.5384 38.3471 23.5886 38.329 23.6563 38.3135C23.724 38.2979 23.8045 38.286 23.8832 38.28C24.0223 38.2791 24.1487 38.284 24.2575 38.2942C24.3756 38.3022 24.2906 38.3525 24.1309 38.3823C24.0632 38.3943 23.9909 38.4037 23.9198 38.4096C23.8486 38.4156 23.7805 38.418 23.7209 38.4167C23.6613 38.4154 23.6119 38.4104 23.5765 38.4021C23.5412 38.3938 23.5208 38.3824 23.5172 38.3688L23.5147 38.3645ZM92.856 34.331C93.212 34.2689 93.486 34.2846 93.7875 34.2596C94.0889 34.2346 94.1632 34.232 94.1228 34.272C94.0824 34.3119 93.8758 34.3038 93.7464 34.3205C93.5715 34.3426 93.3957 34.3553 93.2384 34.3572C93.0812 34.359 92.9488 34.35 92.856 34.331V34.331ZM18.6665 44.8388C18.8551 44.8249 19.0398 44.815 19.2179 44.8094C19.2414 44.8152 19.2561 44.8227 19.2611 44.8316C19.2662 44.8405 19.2615 44.8506 19.2474 44.8612C19.2474 44.8612 19.1267 44.893 19.0561 44.9021C18.7961 44.9333 18.7833 44.8886 18.6665 44.8388V44.8388ZM-7.98673 50.6248C-8.11437 50.6667 -8.17387 50.6952 -8.27605 50.7153C-8.32298 50.7223 -8.37152 50.7274 -8.41802 50.7302C-8.46451 50.733 -8.50778 50.7334 -8.54465 50.7314C-8.58956 50.7194 -8.60008 50.7009 -8.57413 50.6797C-8.57413 50.6797 -8.44407 50.6421 -8.39456 50.6403C-8.25333 50.6314 -8.11643 50.6262 -7.98673 50.6248V50.6248ZM98.9161 33.976C99.1866 33.9411 99.4454 33.9077 99.6327 33.9484C99.2032 33.9922 99.2031 33.9922 98.9161 33.976ZM94.5344 34.374C94.8076 34.2995 94.9679 34.2927 95.099 34.3013C95.1269 34.3034 95.1453 34.3082 95.1516 34.315C95.1578 34.3217 95.1515 34.33 95.1335 34.3386C95.1156 34.3472 95.087 34.3556 95.0522 34.3626C95.0173 34.3696 94.978 34.3747 94.9403 34.3773C94.7979 34.3794 94.662 34.3784 94.5344 34.374V34.374ZM80.4748 34.4056C80.4686 34.3948 80.4612 34.3818 80.5318 34.3727C80.5503 34.3681 80.572 34.3642 80.5947 34.3612C80.6174 34.3583 80.6403 34.3565 80.6612 34.3561C80.6612 34.3561 80.6685 34.369 80.6735 34.3776L80.4748 34.4056ZM70.7114 52.3137L70.8685 52.3236L70.7979 52.3327L70.6117 52.3381L70.7114 52.3137ZM15.3889 38.1962C15.4477 38.1886 15.5066 38.181 15.5151 38.1961C15.5276 38.1985 15.5352 38.2018 15.5376 38.206C15.5399 38.2101 15.5369 38.2149 15.5287 38.2199C15.5287 38.2199 15.4463 38.2305 15.411 38.235L15.3889 38.1962ZM24.5482 38.317C24.5869 38.3161 24.6218 38.3171 24.6509 38.3199C24.6509 38.3199 24.6583 38.3329 24.6583 38.3329L24.5406 38.348L24.5482 38.317ZM104.369 41.4011C104.414 41.3932 104.463 41.387 104.51 41.3829L104.569 41.3753C104.569 41.3753 104.506 41.3973 104.471 41.4019C104.435 41.4064 104.407 41.4008 104.369 41.4011Z" fill="white"/>
</g>
<path d="M29.2844 3.31343C28.9005 3.47293 28.7572 3.78725 28.7521 4.45341V4.81932H26.2495H23.7521L23.5832 4.92253C23.2352 5.14302 23.097 5.45264 23.184 5.82325C23.2403 6.07189 23.5167 6.34868 23.7828 6.41435C24.054 6.48472 35.2363 6.48003 35.5331 6.40966C35.9681 6.30646 36.2752 5.88893 36.1933 5.49956C36.1524 5.28376 35.9835 5.05858 35.7685 4.92722L35.5945 4.81932H33.0971H30.5945V4.42995C30.5945 3.7591 30.441 3.45886 30.0213 3.29466C29.7705 3.20084 29.5402 3.20553 29.2844 3.31343Z" fill="white"/>
<path d="M20.3741 7.82658C20.1336 7.89225 19.8726 8.15027 19.806 8.38484C19.76 8.54903 19.7856 8.80236 19.9289 9.81098C20.021 10.4818 20.1131 11.1058 20.1284 11.1855L20.1592 11.3403H21.0496C21.8838 11.3403 21.9452 11.3356 21.9452 11.2559C21.9452 11.1668 21.7661 9.8532 21.7098 9.56703L21.6842 9.41691H29.673C34.0641 9.41691 37.6567 9.43099 37.6567 9.44975C37.6567 9.47321 37.6004 9.87666 37.5288 10.3505C37.4571 10.8243 37.4008 11.2371 37.4008 11.2747C37.4008 11.3263 37.5646 11.3403 38.2964 11.3403C39.1818 11.3403 39.192 11.3403 39.2125 11.2324C39.2279 11.1761 39.32 10.5522 39.4223 9.8532C39.5759 8.77421 39.5963 8.54434 39.5452 8.37545C39.4786 8.1362 39.2125 7.89225 38.9464 7.82188C38.7007 7.7609 20.6095 7.76559 20.3741 7.82658Z" fill="white"/>
<path d="M22.355 26.5541C22.355 26.6854 22.7132 29.0733 22.749 29.153C22.8156 29.3313 22.9845 29.5002 23.1789 29.5893C23.3734 29.6832 23.4758 29.6832 29.7399 29.6738L36.1064 29.6597L36.2906 29.5283C36.3929 29.458 36.5158 29.336 36.5567 29.2609C36.6232 29.1483 36.9917 26.859 36.9917 26.5728C36.9917 26.5025 36.915 26.4931 36.1012 26.4931C35.221 26.4931 35.2107 26.4931 35.1852 26.5963C35.1698 26.6573 35.1186 27.0044 35.0675 27.375L34.9753 28.0412L29.6785 28.0318L24.3765 28.0178L24.2639 27.2671C24.2025 26.8543 24.1513 26.5119 24.1513 26.5025C24.1462 26.4978 23.7419 26.4931 23.2506 26.4931C22.5341 26.4931 22.355 26.5072 22.355 26.5541Z" fill="white"/>
<path d="M27.6397 11.6386C27.223 11.8085 27.0611 11.9866 26.5797 12.7957C26.2479 13.354 26.1468 13.5482 26.167 13.621C26.1832 13.6898 26.5271 13.9366 27.4697 14.5556C28.5702 15.2757 28.7644 15.385 28.8372 15.3526C28.8898 15.3283 29.1002 14.9804 29.3874 14.4383C29.6423 13.9568 29.8689 13.5684 29.885 13.5765C29.9174 13.5846 30.9248 15.4982 30.9208 15.5468C30.9208 15.5589 30.7104 15.6924 30.4555 15.8502C29.9417 16.1537 29.8405 16.2588 29.9134 16.3924C29.9376 16.4409 29.9983 16.4854 30.0469 16.4935C30.3058 16.5501 33.3684 16.8819 33.4332 16.8617C33.4736 16.8495 33.5545 16.7362 33.6152 16.6068C34.5295 14.6931 35.1324 13.3742 35.1324 13.2974C35.1324 13.2326 35.1 13.1841 35.0353 13.1558C34.9503 13.1153 34.8734 13.1436 34.4244 13.3823C34.0157 13.6008 33.9025 13.6453 33.8741 13.6008C33.8539 13.5684 33.6516 13.2205 33.4251 12.824C33.0974 12.2536 32.9638 12.0553 32.7818 11.8854C32.3974 11.5294 32.4824 11.5415 30.0186 11.5415H27.8703L27.6397 11.6386ZM29.3672 12.5004C29.5128 12.8038 29.6302 13.0749 29.6302 13.1072C29.6302 13.1598 28.7684 14.766 28.7077 14.8267C28.6835 14.8509 26.786 13.6413 26.6646 13.528C26.6363 13.4997 27.2027 12.5004 27.3362 12.3507C27.6113 12.0311 27.8662 11.9501 28.5661 11.9461H29.1042L29.3672 12.5004ZM32.1911 12.0108C32.5148 12.1201 32.6685 12.3021 33.1702 13.2003C33.4291 13.6574 33.6759 14.0661 33.7204 14.1106C33.7973 14.1915 33.8013 14.1915 34.129 14.0216C34.3151 13.9285 34.4689 13.8597 34.477 13.8678C34.4891 13.88 33.3563 16.3034 33.2754 16.4288C33.2511 16.4692 33.0043 16.449 32.0657 16.3357C31.4143 16.2588 30.8641 16.1941 30.8398 16.1941C30.7508 16.1941 30.8317 16.1092 31.1069 15.9231C31.2606 15.8138 31.3941 15.7005 31.4022 15.6641C31.4103 15.6277 31.0017 14.7983 30.5 13.8152C29.9983 12.8362 29.5897 12.0149 29.5897 11.9906C29.5897 11.9582 29.9457 11.9461 30.7953 11.9461C31.7906 11.9461 32.0374 11.9582 32.1911 12.0108Z" fill="white"/>
<path d="M26.4544 15.2114C26.3654 15.2194 25.5967 15.272 24.743 15.3246C23.7073 15.3894 23.1733 15.4379 23.1328 15.4703C23.0964 15.4986 23.0762 15.5714 23.0843 15.6443C23.0964 15.7535 23.1571 15.802 23.6224 16.1055C23.9137 16.2916 24.1726 16.4574 24.2009 16.4736C24.2454 16.4979 24.1564 16.7123 23.8287 17.4001C23.5941 17.8937 23.3796 18.3913 23.3554 18.5086C23.2987 18.7716 23.3311 19.1559 23.4363 19.4149C23.5779 19.7669 25.4875 23.1289 25.6574 23.319C25.8475 23.5334 26.2359 23.7398 26.5515 23.8004C26.6688 23.8207 26.9844 23.8409 27.2473 23.8409C27.9554 23.8409 27.8906 24.027 27.8906 22.0203C27.8906 20.4142 27.8866 20.3575 27.8097 20.2807C27.7328 20.2038 27.6762 20.1997 26.8792 20.1997C26.3654 20.1997 26.0296 20.1836 26.0296 20.1593C26.0296 20.0865 27.0936 18.2173 27.1381 18.2173C27.1624 18.2173 27.3889 18.2983 27.6438 18.3994C28.0767 18.5693 28.1131 18.5774 28.2021 18.5208C28.2507 18.4844 28.2952 18.4196 28.2952 18.3751C28.2952 18.2537 26.9682 15.2963 26.8873 15.2316C26.8225 15.183 26.778 15.183 26.4544 15.2114ZM27.1867 16.7771C27.4618 17.4001 27.6843 17.922 27.6802 17.9382C27.6721 17.9584 27.5427 17.918 27.3849 17.8492C27.0208 17.6954 26.9399 17.6995 26.8387 17.8613C26.7942 17.9341 26.3532 18.7271 25.8556 19.6212C25.362 20.5194 24.9453 21.2516 24.9332 21.2516C24.9211 21.2516 24.6621 20.8066 24.3587 20.2645C23.764 19.2004 23.7033 19.0265 23.768 18.63C23.7842 18.5208 23.9946 18.0272 24.2697 17.4527C24.5893 16.7851 24.7349 16.4413 24.7188 16.3806C24.7066 16.328 24.5529 16.2026 24.3223 16.0569C24.116 15.9234 23.9703 15.8101 23.9946 15.802C24.0755 15.7737 26.1874 15.6362 26.4463 15.6443L26.6809 15.6483L27.1867 16.7771ZM27.486 22.0203V23.3959H26.9884C26.5393 23.3959 26.4706 23.3878 26.2885 23.2947C26.1752 23.2381 26.0377 23.141 25.977 23.0803C25.8233 22.9185 25.1759 21.7695 25.1921 21.6926C25.2002 21.6562 25.3418 21.4094 25.4996 21.1384L25.7909 20.6448H26.6364H27.486V22.0203Z" fill="white"/>
<path d="M33.7165 17.1852C32.5757 17.8811 32.3612 18.0227 32.3491 18.1076C32.341 18.1764 32.4826 18.4839 32.782 19.0341C33.0288 19.4872 33.2392 19.8918 33.2553 19.9282C33.2796 19.9929 33.1987 19.997 32.2479 19.997H31.2163L31.2001 19.471C31.188 19.0058 31.1799 18.941 31.1071 18.8884C31.0625 18.852 30.9978 18.8278 30.9655 18.8358C30.9129 18.8439 28.7848 21.2228 28.6311 21.4413C28.5947 21.4979 28.5785 21.5708 28.5947 21.6234C28.6068 21.6759 29.1246 22.388 29.7436 23.2133C30.8886 24.7426 30.9574 24.8154 31.1111 24.69C31.1516 24.6536 31.1677 24.5403 31.1677 24.2409V23.8404H31.9971C32.8548 23.8404 33.1421 23.804 33.4091 23.6705C33.7368 23.5046 33.9107 23.2619 34.6632 21.9146C35.0638 21.2066 35.5331 20.3813 35.7111 20.0819C35.8891 19.7866 36.0752 19.4468 36.1278 19.3294C36.2492 19.0665 36.2896 18.67 36.2289 18.3827C36.2047 18.2654 35.9862 17.7597 35.7435 17.2621C35.3187 16.3963 35.2944 16.3558 35.1851 16.3599C35.1123 16.3599 34.6026 16.6471 33.7165 17.1852ZM35.4481 17.5533C35.6342 17.9458 35.8082 18.3625 35.8325 18.4839C35.9012 18.8116 35.8325 19.0665 35.5371 19.5722L35.2863 19.997L34.5176 19.9889L33.7449 19.9767L33.2877 19.1271C33.0328 18.6578 32.8265 18.2573 32.8265 18.2371C32.8305 18.2007 35.0355 16.8413 35.0921 16.8413C35.1042 16.8413 35.262 17.1609 35.4481 17.5533ZM30.84 20.3368C30.8886 20.3935 31.0909 20.4015 32.9519 20.4015C34.0847 20.4015 35.0112 20.4177 35.0112 20.438C35.0112 20.4663 33.7813 22.6672 33.5871 22.9827C33.5426 23.0555 33.4212 23.1729 33.3201 23.2457L33.1299 23.3752L32.0376 23.3873C30.9897 23.3994 30.9412 23.4035 30.8562 23.4844C30.7955 23.541 30.7632 23.6179 30.7632 23.7069C30.7632 23.7797 30.751 23.8404 30.7348 23.8364C30.6822 23.8323 29.0842 21.6557 29.0842 21.591C29.0842 21.5586 29.4564 21.1055 29.9136 20.5796L30.7429 19.6248L30.7632 19.9484C30.7753 20.1305 30.8077 20.2964 30.84 20.3368Z" fill="white"/>
</svg>
