<svg width="213" height="65" viewBox="0 0 213 65" fill="none" xmlns="http://www.w3.org/2000/svg">
<path d="M28.4698 38.8506C28.4698 41.9875 27.6143 44.3956 25.9033 46.075C24.2239 47.7543 21.8633 48.594 18.8215 48.594H14.2587C10.5197 48.594 7.85812 47.9444 6.27382 46.6453C4.72121 45.3462 3.9449 43.0965 3.9449 39.8962V14.7534H18.2511C21.4831 14.7534 23.9071 15.5614 25.523 17.1774C27.1707 18.7934 27.9945 21.0747 27.9945 24.0215C27.9945 25.7326 27.5509 27.1901 26.6637 28.3942C25.8082 29.5983 24.8576 30.4538 23.812 30.9608C26.9172 32.4183 28.4698 35.0482 28.4698 38.8506ZM17.7283 27.9664C20.1681 27.9664 21.388 26.7465 21.388 24.3067C21.388 21.8669 20.1681 20.647 17.7283 20.647H10.5514V27.9664H17.7283ZM21.8633 38.5179C21.8633 36.9969 21.594 35.8562 21.0553 35.0958C20.5167 34.3036 19.5502 33.9076 18.1561 33.9076H10.5514V39.2308C10.5514 40.5299 10.8683 41.433 11.502 41.9399C12.1674 42.4469 13.2447 42.7004 14.734 42.7004H18.1561C20.6276 42.7004 21.8633 41.3062 21.8633 38.5179ZM94.0345 48.594H87.1428L85.2416 42.7479H73.8822L72.0286 48.594H65.1369L75.9735 17.6051C76.4488 16.5278 76.9716 15.7832 77.542 15.3713C78.144 14.9594 78.8728 14.7534 79.7283 14.7534C80.5838 14.7534 81.2651 14.9435 81.772 15.3237C82.3107 15.704 82.786 16.4644 83.1979 17.6051L94.0345 48.594ZM83.7207 37.1871L79.7283 23.7839L75.5457 37.1871H83.7207ZM125.056 14.7534V45.1719C125.056 46.2175 124.74 47.1206 124.106 47.8811C123.472 48.6098 122.727 48.9742 121.872 48.9742C119.686 48.9742 117.895 47.7068 116.501 45.1719L104.809 26.8733V48.594H98.2026V14.7534H104.571L118.45 36.9019V14.7534H125.056ZM129.82 32.6718V28.4893C129.82 24.0849 130.976 20.647 133.289 18.1755C135.602 15.704 138.803 14.4682 142.89 14.4682C146.978 14.4682 150.257 15.704 152.729 18.1755C154.471 19.9182 155.343 22.5323 155.343 26.0178H149.164C149.164 22.2471 147.152 20.3618 143.128 20.3618C141.924 20.3618 140.894 20.5995 140.038 21.0747C139.215 21.5183 138.597 22.0412 138.185 22.6432C137.773 23.2452 137.456 24.1324 137.234 25.3048C137.012 26.4772 136.886 27.4595 136.854 28.2516C136.822 29.0438 136.806 30.1052 136.806 31.4361C136.806 32.7669 136.806 33.6699 136.806 34.1452C136.838 34.5888 136.886 35.3334 136.949 36.3791C137.044 37.393 137.171 38.1218 137.329 38.5654C137.519 39.009 137.773 39.5793 138.09 40.2764C138.438 40.9735 138.866 41.4647 139.373 41.7498C140.672 42.5737 142.146 42.9856 143.793 42.9856C146.55 42.9856 148.499 41.8132 149.639 39.4684V37.1871H145.552V31.6737H155.295V41.8924C154.313 44.2055 152.76 45.9482 150.637 47.1206C148.514 48.293 146.106 48.8792 143.413 48.8792C138.628 48.8792 135.159 47.5484 133.004 44.8867C130.881 42.1934 129.82 38.1218 129.82 32.6718ZM168.21 42.2251C168.717 42.7004 168.97 43.7302 168.97 45.3145C168.97 46.8988 168.717 47.9444 168.21 48.4514C167.734 48.9584 166.705 49.2119 165.12 49.2119C163.536 49.2119 162.49 48.9584 161.983 48.4514C161.476 47.9444 161.223 46.8988 161.223 45.3145C161.223 43.7302 161.476 42.7004 161.983 42.2251C162.49 41.7181 163.536 41.4647 165.12 41.4647C166.705 41.4647 167.734 41.7181 168.21 42.2251ZM178.852 11.0937C180.342 11.0937 181.308 11.3313 181.752 11.8066C182.195 12.2502 182.417 13.2166 182.417 14.7059C182.417 16.1634 182.179 17.1298 181.704 17.6051C181.261 18.0487 180.294 18.2705 178.805 18.2705C177.347 18.2705 176.381 18.0329 175.906 17.5576C175.462 17.0823 175.24 16.1159 175.24 14.6583C175.24 13.2008 175.462 12.2502 175.906 11.8066C176.381 11.3313 177.363 11.0937 178.852 11.0937ZM181.894 48.594H175.716V22.4531H181.894V48.594ZM209.86 48.594H203.681V31.2459C203.681 29.6933 203.364 28.6318 202.731 28.0615C202.097 27.4911 201.21 27.206 200.069 27.206L194.508 29.5349V48.594H188.329V21.455H192.94L194.365 24.6869L201.97 21.1698C204.093 21.1698 205.931 21.962 207.483 23.5462C209.068 25.0989 209.86 27.3802 209.86 30.3904V48.594Z" fill="#016A70"/>
<mask id="mask0_0_2531" style="mask-type:alpha" maskUnits="userSpaceOnUse" x="14" y="55" width="189" height="9">
<rect width="188.003" height="8.44959" transform="matrix(-1 0 0 1 202.262 55.5162)" fill="#C4C4C4"/>
</mask>
<g mask="url(#mask0_0_2531)">
<path d="M171.453 54.4682L170.892 54.37L171.984 54.2292L171.461 54.1261C170.935 54.127 170.255 54.2815 169.885 54.1994C169.839 54.1199 170.411 54.0944 170.557 54.0311C170.686 53.9662 170.792 53.9018 170.872 53.8385C170.586 53.8392 170.272 53.8545 169.948 53.8835C169.511 53.9309 169.084 53.954 168.712 53.9501C167.951 53.9629 167.215 53.9501 166.388 53.9529L166.663 53.7617L165.597 53.8064C165.484 53.821 165.349 53.7976 165.238 53.8156C164.314 53.9681 163.923 53.885 163.479 53.8161C163.388 53.7983 163.279 53.785 163.153 53.7765C161.92 53.813 160.809 54.0268 159.698 54.1365C159.489 54.1646 159.289 54.2005 159.111 54.2419C158.725 54.3223 158.296 54.3879 157.862 54.4328C157.428 54.4777 157.005 54.5004 156.629 54.4988C155.799 54.497 154.861 54.5502 153.906 54.6532C153.622 54.6871 153.338 54.7095 153.072 54.7189C152.806 54.7283 152.564 54.7246 152.36 54.7079L151.715 54.817C151.435 54.7727 151.08 54.7484 150.672 54.7456C150.264 54.7428 149.81 54.7614 149.34 54.8005C148.838 54.8429 148.329 54.8715 147.808 54.9163C146.733 55.002 145.687 55.0545 144.702 55.072C143.235 55.1238 141.802 55.1639 140.323 55.2285C139.397 55.2597 138.495 55.2769 137.622 55.2799C136.577 55.2921 135.446 55.3512 134.284 55.4543C134.339 55.5511 134.849 55.5225 135.19 55.5192C136.293 55.5031 137.422 55.4615 138.557 55.4302C139.068 55.4179 139.565 55.4133 140.045 55.4163C140.848 55.4123 141.694 55.3865 142.57 55.3394C143.952 55.2876 145.291 55.2627 146.571 55.2649C146.672 55.2688 146.764 55.2756 146.846 55.2852C146.863 55.2935 146.866 55.3041 146.855 55.3158C146.845 55.3274 146.82 55.3399 146.785 55.352C146.749 55.364 146.703 55.3753 146.651 55.3846C146.6 55.3939 146.544 55.4011 146.489 55.4053C145.981 55.4709 145.434 55.5413 144.955 55.5512C144.936 55.5519 144.916 55.5536 144.897 55.5561C144.877 55.5586 144.859 55.5619 144.842 55.5657C143.768 55.7041 142.885 55.6807 142.049 55.7032C140.66 55.7641 139.321 55.7925 138.053 55.7881C137.861 55.7884 137.654 55.7963 137.44 55.8115C136.111 55.8733 134.869 55.8802 133.771 55.8319C133.319 55.8197 132.899 55.7923 132.414 55.7918C132.115 55.7899 131.854 55.7724 131.649 55.7403C131.443 55.7082 131.295 55.6622 131.216 55.6051C131.011 55.6352 130.803 55.662 130.594 55.6852C130.469 55.6985 130.35 55.702 130.259 55.6951C130.169 55.6881 130.115 55.6712 130.108 55.6478C130.07 55.5821 130.355 55.5492 130.602 55.5211C130.453 55.507 130.285 55.4987 130.102 55.4964C129.074 55.4814 127.97 55.4991 126.816 55.5491C125.92 55.609 125.205 55.5603 124.262 55.6447C124.149 55.6593 124.056 55.6379 123.952 55.6327C123.681 55.6057 123.343 55.5996 122.968 55.6151C122.592 55.6305 122.191 55.6669 121.799 55.7212C121.31 55.5728 120.254 55.7423 119.474 55.7576C119.234 55.833 119.509 55.8198 119.521 55.8405C119.533 55.8612 119.521 55.8405 119.615 55.8283C120.394 55.9352 121.461 55.9585 122.666 55.895C122.889 55.8952 123.101 55.9001 123.301 55.9095C123.604 55.9229 123.945 55.9215 124.31 55.9056C124.708 55.8939 125.075 55.8994 125.391 55.922C125.573 55.9216 125.726 55.9329 125.838 55.9549C125.949 55.9768 126.015 56.0087 126.028 56.0475C125.907 56.0774 125.772 56.1048 125.63 56.1286C124.885 56.2223 124.143 56.2612 123.548 56.2374C122.514 56.1964 121.283 56.2364 120.183 56.2224C119.44 56.2167 118.649 56.2329 117.825 56.2705C117.825 56.2705 117.846 56.3085 117.848 56.312C117.751 56.3284 117.648 56.3416 117.547 56.3508C117.547 56.3508 117.547 56.3508 117.537 56.3336C117.582 56.317 117.643 56.3014 117.714 56.2885L117.959 56.257C117.792 56.2488 117.637 56.2243 117.463 56.2393C117.098 56.267 116.748 56.2787 116.436 56.2737C116.124 56.2687 115.856 56.247 115.647 56.2101C115.277 56.1626 114.817 56.1411 114.297 56.1468C113.898 56.1416 113.513 56.1305 113.145 56.1134C113.145 56.1134 113.122 56.072 112.947 56.05C113.112 56.0228 113.285 56.0006 113.456 55.9844C114.201 55.944 114.949 55.907 115.681 55.8793C115.951 55.8763 116.204 55.881 116.437 55.8931C117.081 55.9074 117.805 55.8871 118.567 55.8337C118.567 55.8337 118.717 55.8143 118.793 55.8046C118.579 55.7134 117.842 55.8047 117.544 55.7429C117.363 55.7441 117.044 55.7518 117.055 55.7356C117.08 55.7139 117.083 55.6938 117.064 55.6766C117.045 55.6594 117.004 55.6457 116.944 55.6363C116.885 55.627 116.808 55.6223 116.72 55.6225C116.631 55.6227 116.534 55.6279 116.433 55.6377C115.595 55.6907 114.805 55.7054 114.112 55.681C113.85 55.6815 113.555 55.6972 113.295 55.7011C113.135 55.7058 112.989 55.7032 112.866 55.6933C112.236 55.6208 111.389 55.6156 110.451 55.6783C109.998 55.7008 109.574 55.7038 109.202 55.6871C108.938 55.6842 108.825 55.7357 108.637 55.76L107.837 55.8112L108.865 55.8753C108.645 56.0223 108.47 56.0708 108.112 56.0799C107.588 56.0937 107.079 56.1 106.585 56.0986C106.221 56.0974 105.92 56.0658 105.426 56.122C105.339 56.1311 105.255 56.1341 105.188 56.1304C104.61 56.0805 103.914 56.069 103.147 56.0968C102.75 56.0033 102.074 56.0942 101.448 56.1674C101.246 56.097 101.612 56.0647 101.83 56.0217C101.307 56.0261 100.78 56.0236 100.24 56.0339C100.078 56.0302 99.8918 56.0366 99.6975 56.0526C99.5032 56.0687 99.3055 56.0939 99.1199 56.1264C99.0295 56.1473 98.9204 56.1631 98.8154 56.1705C98.7104 56.1778 98.6174 56.1761 98.5559 56.1657C98.2756 56.1351 97.8266 56.1633 97.595 56.1115C97.5126 56.0996 97.3949 56.098 97.2628 56.1069C97.1308 56.1157 96.9931 56.1345 96.8743 56.1599C97.0043 56.1679 97.1201 56.1803 97.219 56.1971C97.5735 56.2515 97.4433 56.3425 96.9929 56.4747C96.3013 56.4674 95.5948 56.4695 94.9537 56.4446C94.5965 56.4222 94.1586 56.4292 93.6895 56.4648C93.2204 56.5003 92.7386 56.5631 92.2983 56.6459C92.1389 56.6778 91.9573 56.6999 91.7895 56.7078C91.6216 56.7157 91.4799 56.7088 91.3924 56.6885C91.338 56.6651 91.3211 56.6355 91.3432 56.6022L91.7953 56.5439C91.7953 56.5439 91.7776 56.5128 91.7737 56.5059L91.1237 56.5007C90.7799 56.5005 90.4211 56.5096 90.0961 56.507C89.6186 56.4897 89.0737 56.4993 88.4946 56.5354C87.9606 56.5725 87.4357 56.6004 86.9247 56.6191C86.4302 56.6384 86.0717 56.577 85.6011 56.5672C85.2452 56.5599 84.8537 56.5677 84.4416 56.5906C83.7297 56.6311 83.0763 56.6312 82.541 56.5908C81.9168 56.8085 81.6135 56.8439 81.0341 56.7851L80.7616 56.7683L80.6871 56.815L80.4791 56.8047C80.0897 56.7955 79.7003 56.7864 79.294 56.7831C78.7291 56.8033 78.1191 56.8577 77.5236 56.9409C77.4106 56.9554 77.2568 57.0049 77.1575 57.0437C77.0582 57.0825 76.8418 57.1994 76.6829 57.2755C76.8561 57.331 77.0481 57.3841 77.1856 57.448C77.1994 57.4589 77.198 57.4719 77.1816 57.486C77.1652 57.5001 77.1342 57.5148 77.0912 57.529C77.0482 57.5432 76.9943 57.5565 76.9338 57.5678C76.8733 57.5791 76.808 57.5881 76.743 57.5941C76.6164 57.607 76.4915 57.6155 76.3733 57.6195C75.7913 57.6263 75.2338 57.6212 74.7066 57.6044C74.5141 57.5806 74.2505 57.5784 73.9577 57.598C73.6648 57.6176 73.3595 57.6579 73.09 57.7126C72.4002 57.6798 71.5985 57.6895 70.7404 57.7411C69.8329 57.7097 68.7367 57.7731 67.8888 57.7044C67.9085 57.7389 67.821 57.7984 67.699 57.8327C67.506 57.8848 67.2874 57.933 67.0523 57.9754L65.2594 58.0582C65.1924 58.1007 65.1086 58.1438 65.0092 58.1868C64.941 58.2208 64.8224 58.2541 64.6784 58.2796C64.5343 58.3051 64.3763 58.3208 64.2377 58.3234C63.8809 58.336 63.5818 58.3078 63.1564 58.3774C63.8114 58.4433 64.695 58.4346 65.6496 58.3528C66.5464 58.2906 67.4091 58.2595 68.2055 58.2606C68.4681 58.2602 68.814 58.2638 68.8961 58.3014C69.0779 58.4078 69.5536 58.391 70.1086 58.3714C70.5446 58.3499 70.9428 58.3523 71.2705 58.3784C71.5983 58.4045 71.8461 58.4535 71.9937 58.5215C72.0311 58.5871 71.9417 58.6432 71.559 58.6813L69.9679 58.8345C69.7334 58.8148 69.5109 58.7915 69.3014 58.7647C68.9483 58.729 68.5123 58.7193 68.0274 58.7361C67.5425 58.7529 67.0217 58.7959 66.5056 58.8617C66.2419 58.8957 65.9781 58.9297 65.787 58.9136C65.6192 58.895 65.4647 58.8728 65.3245 58.8471C65.2962 58.8299 65.2849 58.81 65.2911 58.7884C65.1896 58.7984 65.088 58.8115 64.9897 58.8272C64.2041 59.0101 63.5957 59.0069 63.043 58.9595C62.8934 58.9454 62.7795 58.923 62.628 58.9054C62.4765 58.8879 62.423 58.8651 62.2853 58.8717C61.1871 58.9317 60.8709 58.7314 59.9453 58.7394C59.9001 58.7316 59.8722 58.7199 59.8639 58.7054C59.8557 58.6909 59.8674 58.6741 59.8981 58.6565C59.9634 58.6406 60.0391 58.627 60.1181 58.6168C60.1971 58.6066 60.2769 58.6002 60.3502 58.5982C60.7762 58.5725 61.1523 58.5804 61.4143 58.6205C61.6 58.6369 61.7965 58.65 62.0028 58.6597L62.9295 58.3696C62.0316 58.3962 61.1825 58.396 60.4017 58.3691C60.2313 58.354 59.9429 58.38 59.703 58.385L57.9391 58.4121C57.5764 58.4143 57.2674 58.3689 56.7616 58.4749C56.7616 58.4749 56.4276 58.4919 56.3385 58.4775C56.2494 58.463 55.8544 58.373 55.6188 58.3144C55.3452 58.3311 54.9665 58.3762 54.7961 58.3611C54.4985 58.3239 54.2409 58.2763 54.0278 58.219L52.9622 58.3008C52.9634 58.3734 53.0023 58.4416 53.0783 58.5046C53.1614 58.5653 53.1585 58.6382 53.07 58.7173C52.9815 58.7964 52.8099 58.8794 52.5691 58.9596L51.5169 59.3845C51.3452 59.413 51.1622 59.4321 50.9927 59.4394C50.8232 59.4466 50.6754 59.4416 50.5695 59.4251C50.1168 59.3759 49.6096 59.3374 49.157 59.2882C48.573 59.3635 48.7231 59.4851 48.2986 59.5917L46.9235 59.7689C46.7137 59.9332 46.5 60.0905 47.1379 60.1455C47.2647 60.1551 47.1792 60.2181 47.2951 60.244C46.7991 60.3672 46.2539 60.4041 45.7512 60.48C45.553 60.5346 45.3873 60.5924 45.262 60.6506C45.1244 60.7383 44.8455 60.8278 44.4856 60.8999C44.1256 60.972 43.7134 61.0208 43.3381 61.0359C42.7083 61.082 42.0636 61.1513 41.4327 61.2407C41.2171 61.2717 40.9956 61.2944 40.7831 61.3071C40.5706 61.3197 40.372 61.3222 40.2006 61.3142C39.5902 61.3001 39.0735 61.2517 38.6842 61.1722C38.2992 61.1047 37.7803 61.0721 37.1744 61.0775C36.1384 61.2111 35.9294 61.4123 35.3024 61.5895L36.3854 61.6094C36.4248 61.6785 36.3531 61.7656 36.797 61.764C37.2409 61.7624 37.0157 61.8286 36.8718 61.8953C36.821 61.9289 36.722 61.9635 36.5915 61.9931C36.461 62.0228 36.307 62.0457 36.1557 62.0581L35.2337 62.1435C34.9068 62.1761 34.5904 62.19 34.3193 62.1837C34.0482 62.1774 33.8329 62.1512 33.697 62.108C33.5409 62.0669 33.3255 62.0392 33.0641 62.0264C32.7309 61.9929 32.4569 61.9431 32.2522 61.8789L30.9507 61.9725C30.8953 61.9079 30.7165 61.8626 30.4445 61.8443C30.1724 61.826 29.824 61.8357 29.4579 61.8719L28.5806 61.9294C27.6053 61.992 27.3914 61.9714 27.1058 61.7894L28.2754 61.4643C28.1053 61.3787 27.9412 61.3034 27.777 61.2282C28.0684 61.1211 28.4572 61.0198 28.9039 60.9346C29.3207 60.843 29.7493 60.7544 30.1882 60.6689C30.6642 60.5816 31.1669 60.5057 31.7579 60.4072C31.8611 60.3754 32.011 60.319 32.2024 60.2646C32.3941 60.2118 32.594 60.1601 32.8016 60.1095C32.7622 60.0404 32.7268 59.9783 32.8025 59.898C32.4385 59.9236 32.0625 59.9684 31.7083 60.0283C31.3541 60.0882 31.0329 60.1613 30.7736 60.2411C30.7301 60.2553 30.6766 60.2686 30.6169 60.2801C30.5572 60.2917 30.4926 60.3012 30.4275 60.308C29.7882 60.357 29.4826 60.4595 29.1699 60.5851C28.9594 60.6493 28.688 60.7063 28.3934 60.7482C27.8283 60.8211 27.2749 60.9146 26.7345 60.9954C26.5691 61.0223 26.3972 61.0445 26.2259 61.061C25.6611 61.1134 25.0926 61.1867 24.5494 61.2771C24.3721 61.3001 24.202 61.3305 24.0532 61.3658C23.9045 61.4011 23.7815 61.4402 23.6944 61.48C23.8289 61.5236 23.9015 61.5785 23.9078 61.6416C23.9314 61.6831 23.5346 61.7676 23.3471 61.8289C23.1596 61.8901 23.5273 61.8613 23.6522 61.8674C24.1644 61.8793 24.2594 61.9041 23.9527 62.0401C23.8502 62.0828 23.7822 62.1256 23.7529 62.1657C23.7235 62.2059 23.7335 62.2425 23.7822 62.2734C23.855 62.4013 24.0765 62.5062 24.2286 62.6313C23.9924 62.7136 23.5977 62.8016 23.5547 62.9035C23.534 62.9262 23.4903 62.9501 23.4268 62.9737C23.3633 62.9973 23.2816 63.0199 23.1875 63.0399C22.9395 63.083 22.7141 63.1346 22.5286 63.1907C22.3431 63.2468 22.2026 63.3058 22.1179 63.3632C22.0902 63.3869 22.0233 63.4121 21.9306 63.4337C21.8379 63.4553 21.7262 63.4716 21.618 63.4795C21.4887 63.4892 21.3729 63.488 21.2946 63.476C21.2163 63.464 21.1814 63.4422 21.1972 63.4151C21.194 63.3642 21.2111 63.3112 21.2483 63.2565C21.2267 63.2185 21.2051 63.1805 21.2905 63.1175C20.9044 63.1405 20.4991 63.1865 20.1185 63.2506C19.7379 63.3147 19.3966 63.3944 19.1318 63.4811C18.8391 63.5707 18.5692 63.6648 18.2447 63.7697C18.3116 63.8872 18.3116 63.8872 17.6211 64.0949L13.9583 64.1961L13.2076 64.3337C12.5075 64.4536 12.3411 64.4454 11.9013 64.3834L11.6054 64.3251C10.9837 64.4053 10.2679 64.4975 9.87907 64.3474C9.75283 64.4453 9.67043 64.4781 9.69911 64.493C9.88468 64.6374 10.2072 64.7599 10.6538 64.8557C10.7677 64.8781 10.8478 64.9123 10.9805 64.9323C11.4084 65.0451 11.5076 65.2193 11.2579 65.4194C11.134 65.508 10.954 65.5987 10.7237 65.6886C11.0608 65.8133 11.5073 65.9166 12.0512 65.9958C12.5129 66.0571 12.893 66.1392 13.1808 66.2396C13.4392 66.3409 13.8262 66.4171 14.3194 66.4637C14.5697 66.4835 14.7523 66.5227 14.8491 66.5772C14.8779 66.7247 14.8117 66.8827 14.6519 67.0476C14.6219 67.0978 14.5364 67.152 14.4022 67.206C14.2681 67.2599 14.0889 67.3122 13.8787 67.3587C13.8787 67.3587 13.7775 67.394 13.7289 67.4151C13.6883 67.5938 13.8401 67.7512 14.1738 67.8769C14.2285 67.9126 14.3404 67.9383 14.4975 67.9514C14.6546 67.9645 14.8509 67.9644 15.0653 67.9511C15.5183 67.9298 15.9414 67.9272 16.3794 67.9153C16.8514 67.8983 17.2672 67.9117 17.583 67.9538C17.8988 67.996 18.103 68.0655 18.174 68.1549C18.1786 68.1803 18.1924 68.2045 18.2153 68.2275C18.2286 68.2393 18.2359 68.252 18.2369 68.2655L17.2309 68.5583L18.369 68.6749C18.4359 68.7924 17.8896 68.8628 17.6157 68.95L17.785 68.9987C18.0029 69.0262 18.2964 68.9736 18.5621 68.943L18.8258 68.909L18.8573 68.9643C19.0215 69.0396 19.6203 68.955 19.854 69.0101C20.0876 69.0653 19.9208 69.1276 19.5708 69.1876C19.3275 69.2321 19.0662 69.2677 18.8066 69.2915C18.5469 69.3153 18.2958 69.3268 18.072 69.3251C17.9383 69.3192 17.8275 69.3058 17.7461 69.2855C17.2737 69.1995 16.7519 69.1255 16.1844 69.0641C15.7494 69.009 15.2046 68.9855 14.5883 68.9954C14.4075 68.9912 14.1894 69.0043 13.9724 69.0323C13.7553 69.0602 13.5533 69.1013 13.4016 69.1483L13.0825 69.1561C13.0825 69.1561 12.9079 69.2046 12.9326 69.2125C13.0541 69.3561 12.9129 69.5316 12.5302 69.7131L12.8631 69.7295C13.3388 69.7127 13.0371 69.8221 13.1082 69.876C13.4462 69.8658 13.8853 69.8203 14.0456 69.8886L14.2854 69.8837L14.1912 69.8958L14.0773 69.8734L13.63 69.9756C13.842 69.9928 13.9955 70.0138 14.1827 70.023C14.2862 70.031 14.3685 70.0453 14.4248 70.0648C14.4811 70.0843 14.5101 70.1087 14.5103 70.1366C14.5097 70.1794 14.5655 70.2155 14.6722 70.2413C14.779 70.2672 14.9332 70.2819 15.1201 70.2842C15.343 70.2851 15.4706 70.3317 15.6014 70.3482L15.0334 70.6291C15.0334 70.6291 15.3159 70.5927 15.1621 70.6422L15.1425 70.6076L14.7983 70.678C14.5503 70.7396 14.3769 70.7545 14.2304 70.7104C14.084 70.6662 14.1174 70.7249 14.0471 70.708C14.0727 70.7529 14.2321 70.7843 14.3687 70.8112C14.5267 70.8323 14.705 70.8479 14.9006 70.8576C14.548 71.0551 14.5312 71.061 15.0462 71.1133C15.5613 71.1656 15.3836 71.2441 15.8146 71.2553C16.2456 71.2665 15.7555 71.4001 15.467 71.4262C15.2532 71.4433 15.0352 71.47 14.8279 71.5044C14.6206 71.5388 14.4289 71.5801 14.2662 71.6255L14.3528 71.7775C14.4796 71.7649 14.6067 71.7485 14.7296 71.7289C15.1471 71.6454 15.5269 71.5668 15.8983 71.6154L15.7214 71.7309L17.0178 71.6639C16.9843 71.7505 16.7867 71.8491 16.4667 71.9389C16.5149 71.9883 16.5445 72.0402 16.5552 72.0944C16.5769 72.1324 16.7049 72.1085 16.7881 72.1126C17.085 72.1189 17.3286 72.1447 17.4976 72.1876C17.6666 72.2305 17.7557 72.2892 17.7571 72.3585C17.7906 72.4173 17.3342 72.5391 17.0489 72.5351C16.3363 72.5468 15.5659 72.592 14.7791 72.6682C14.2995 72.6781 14.2318 72.5237 13.4426 72.6291C13.4269 72.7004 13.528 72.7582 13.7305 72.7936C13.9331 72.829 14.2262 72.8403 14.5654 72.8256C14.3725 72.9839 13.3042 73.0252 13.2569 73.1908C13.5229 73.1791 13.8074 73.1516 14.0822 73.1109C14.357 73.0703 14.6125 73.018 14.8235 72.9592C14.869 72.9447 14.9262 72.9313 14.9898 72.9203C15.0533 72.9093 15.1211 72.901 15.187 72.8962C15.2528 72.8915 15.3145 72.8903 15.3664 72.8929C15.4182 72.8955 15.4586 72.9018 15.4837 72.9112C15.3358 72.971 15.173 73.0402 14.9874 73.1049C14.8018 73.1696 14.7571 73.1977 14.6233 73.2112C13.6249 73.3399 13.1503 73.5717 12.2865 73.7238C12.0605 73.7529 12.0324 73.8456 12.2286 73.8351C12.4153 73.8246 12.5843 73.826 12.7168 73.8391C12.8492 73.8521 12.9398 73.8763 12.9784 73.909C13.1233 73.9472 13.3037 73.9775 13.5151 73.9993C12.6293 74.2372 11.5732 74.4473 10.4458 74.6101C10.2322 74.6422 10.0096 74.6618 9.81032 74.666C9.181 74.6662 8.51319 74.6851 7.82034 74.7223C7.57463 74.7324 7.34758 74.7314 7.15151 74.7195C6.50853 74.6911 5.99794 74.7532 5.53148 74.9283L4.75941 75.2058C4.78499 75.2507 4.91456 75.3008 5.01436 75.3695L4.41127 75.5177L-0.191052 75.1764L-1.11494 75.5069L-2.43975 75.4885C-2.5413 75.498 -2.64333 75.5112 -2.74111 75.5273C-3.00906 75.6249 -3.21857 75.7187 -3.5093 75.8118C-3.80001 75.9049 -4.31928 75.9162 -4.68141 76.0259C-5.04355 76.1356 -5.40625 76.1379 -5.8544 76.2031C-5.89655 76.288 -5.85301 76.3645 -5.72651 76.4276C-5.6852 76.5002 -5.45747 76.545 -5.41812 76.6141C-5.42245 76.684 -5.33784 76.7432 -5.17192 76.7866C-5.00599 76.83 -4.76399 76.8561 -4.46789 76.8625C-3.63872 77.0112 -2.63881 77.1171 -1.49846 77.1769C-1.39829 77.1813 -1.31523 77.1913 -1.25443 77.2065C-1.19364 77.2216 -1.15644 77.2415 -1.14507 77.2649C-1.14664 77.3327 -1.07061 77.3912 -0.922498 77.4363C-0.774381 77.4814 -0.557926 77.5118 -0.289018 77.5254C-0.217392 77.5281 -0.163354 77.5366 -0.133581 77.5499C-0.0315929 77.5584 0.0427641 77.5747 0.0821852 77.5973C0.121606 77.6198 0.124777 77.6479 0.0914828 77.6786C0.0581732 77.7094 -0.0105023 77.7419 -0.107962 77.7729C-0.205406 77.804 -0.328334 77.8325 -0.464836 77.8559C-0.662816 77.8935 -0.865043 77.9294 -1.07071 77.9636C-1.0589 77.9844 -0.854812 77.9877 -0.884609 78.0064C-0.965185 78.066 -0.98384 78.1219 -0.939138 78.1695C-0.894451 78.2172 -0.787626 78.2554 -0.627092 78.281L-1.72702 78.764C-2.39467 78.8309 -3.04959 78.9443 -3.56748 79.0828C-3.56817 79.1055 -3.53837 79.1245 -3.48103 79.1379C-3.4237 79.1514 -3.34089 79.1588 -3.24082 79.1594C-2.97233 79.1693 -2.71871 79.1885 -2.42941 79.1994C-2.25258 79.2076 -2.10544 79.2255 -1.99651 79.2522C-1.88758 79.2789 -1.81905 79.3139 -1.7949 79.355L-2.44073 79.5346C-2.23381 79.5784 -2.08031 79.5994 -1.94366 79.6263C-2.02108 79.6828 -2.15426 79.7412 -2.33284 79.797C-2.51144 79.8528 -2.73066 79.9046 -2.97359 79.9482C-3.03871 79.9572 -3.10514 79.9638 -3.16898 79.9676C-3.23281 79.9713 -3.29279 79.9722 -3.34527 79.9702C-3.84542 79.9086 -4.43049 80.0173 -4.99871 80.1203C-5.56693 80.2232 -5.8754 80.2852 -6.29488 80.3652L-7.09756 80.376C-7.30069 80.4138 -7.48199 80.4584 -7.6269 80.5061C-7.77181 80.5537 -7.87628 80.6032 -7.93203 80.6504C-7.88875 80.7264 -7.50808 80.6848 -7.28118 80.6926C-6.74292 80.7399 -6.03522 80.7298 -5.27546 80.664C-5.0871 80.6397 -4.89395 80.6593 -4.71065 80.6617C-4.31522 80.6711 -3.93519 80.6865 -3.57231 80.7078C-3.33333 80.7276 -3.11001 80.752 -2.90375 80.7811C-2.84866 80.8778 -3.71602 80.9525 -3.22373 81.0003C-3.39328 81.0222 -3.45679 81.0526 -3.54395 81.0416C-4.10239 81.1044 -4.65258 81.1355 -5.13076 81.1312C-6.04842 81.1178 -7.09042 81.1619 -8.17142 81.2598C-9.33827 81.3612 -10.4576 81.4038 -11.437 81.384C-11.81 81.3829 -12.227 81.4037 -12.656 81.4448C-13.1628 81.5017 -13.666 81.5375 -14.1329 81.5498C-14.2876 81.5503 -14.4598 81.56 -14.6357 81.5781C-14.8116 81.5963 -14.9861 81.6224 -15.1451 81.6543C-15.1313 81.6785 -14.9798 81.6961 -15.0135 81.7078C-15.4969 81.8888 -15.6928 82.0773 -16.4368 82.2622C-16.9454 82.3277 -17.5294 82.403 -17.8619 82.3161C-18.1945 82.2291 -18.0753 82.1544 -17.4135 81.9319C-17.5571 81.9287 -17.7301 81.9391 -17.9022 81.9613C-18.0744 81.9835 -18.2347 82.016 -18.3553 82.0533L-18.9278 82.2198L-19.4437 82.379C-19.3984 82.4585 -19.363 82.5207 -19.3256 82.5863C-19.2666 82.656 -19.3314 82.7409 -19.511 82.829C-19.6193 82.8771 -19.7136 82.9252 -19.793 82.9729C-20.1155 83.1636 -20.2089 83.3439 -20.0627 83.4935C-19.7826 83.7086 -19.3925 83.9065 -18.8969 84.0849C-18.3734 84.2585 -18.087 84.4775 -17.6557 84.6667C-17.4357 84.7528 -17.1686 84.83 -16.857 84.8975C-16.2661 85.0475 -15.6186 85.1903 -15.0257 85.3438C-14.4328 85.4973 -13.7634 85.6076 -13.1049 85.7341C-12.1245 85.8842 -11.0648 86.0139 -9.93169 86.1224C-9.23053 86.2174 -8.51051 86.3101 -7.86192 86.4193C-7.09588 86.5424 -6.19596 86.6309 -5.18459 86.6824C-4.29131 86.7441 -3.49319 86.8353 -2.80556 86.9543C-2.73343 86.9671 -2.6765 86.9835 -2.63635 87.0029C-2.51253 87.1243 -2.16553 87.2098 -1.64842 87.2464C-1.67985 87.282 -1.72001 87.3181 -1.76876 87.3547C-1.84052 87.3982 -1.85548 87.439 -1.81162 87.4717C-1.76777 87.5044 -1.66717 87.5275 -1.52282 87.538C-1.10915 87.5681 -0.765327 87.6191 -0.506748 87.6889C-0.411757 87.7064 -0.352858 87.7319 -0.335041 87.7632C-0.317222 87.7945 -0.341013 87.8307 -0.404441 87.8686C-0.460595 87.9076 -0.464741 87.9435 -0.416279 87.9717C-0.367803 87.9998 -0.268982 88.0189 -0.132594 88.0264C0.217539 88.0633 0.592456 88.093 0.989731 88.1154C1.8351 88.1646 2.81837 88.164 3.88021 88.1136C3.99322 88.0991 4.10708 88.1215 4.23893 88.1045C4.98981 88.0481 5.68719 88.0393 6.24662 88.0793C6.90254 88.0949 7.58826 88.0918 8.27988 88.0991C9.2791 88.0942 10.2009 88.1239 11.0194 88.1873C11.9551 88.126 12.4808 88.2325 13.2706 88.2346C13.9997 88.2455 14.6908 88.2718 15.3373 88.3131C16.3795 88.3679 17.4177 88.4158 18.445 88.4799C19.4088 88.5105 20.2961 88.5689 21.092 88.6542C21.3971 88.6928 21.9492 88.6327 22.157 88.7135C22.3647 88.7942 22.784 88.7847 23.1227 88.8115L24.1917 88.8777C24.3755 88.8934 24.5776 88.9034 24.795 88.9075C25.7888 88.9129 26.4771 89.0207 27.3995 89.0427L27.4937 89.0306C29.1316 89.1909 31.0059 89.2789 33.0615 89.292C34.2623 89.3411 35.5753 89.3388 36.8494 89.3748C37.1534 89.4469 37.8711 89.3581 38.2523 89.4239C38.6336 89.4897 39.2561 89.4466 39.7475 89.4574C40.239 89.4682 40.7194 89.4953 41.2446 89.4944C41.7007 89.4947 42.0858 89.5241 42.3649 89.5799C43.0021 89.6721 43.7788 89.7264 44.6602 89.7402C45.8264 89.7642 46.9291 89.8186 48.1152 89.8066C48.0983 89.8738 48.1711 89.931 48.326 89.9723C48.481 90.0136 48.7127 90.0375 48.9972 90.0415C50.2655 90.0672 51.4156 90.134 52.7007 90.1538L53.0445 90.154L56.8881 90.1926C57.9236 90.2 58.9214 90.2123 59.9777 90.2208C60.3732 90.1698 60.3828 90.2576 60.6564 90.2409C60.7329 90.1976 60.8231 90.1786 60.9578 90.202L60.9873 90.2539L65.3737 90.3226C67.0912 90.3729 68.8977 90.388 70.778 90.3677C71.224 90.3728 71.6404 90.39 72.0204 90.419C72.3726 90.4295 72.7399 90.4342 73.1202 90.433C73.6344 90.4199 74.1369 90.4133 74.6255 90.4132C75.9106 90.433 77.2593 90.4223 78.6664 90.4078C80.0736 90.3933 81.1397 90.4191 82.3922 90.4171C83.2404 90.4153 84.0847 90.4066 84.9627 90.3862C85.3819 90.3766 85.8984 90.3249 86.3325 90.306C86.7666 90.2872 86.9083 90.2874 86.9657 90.3171C87.1546 90.4003 87.6295 90.3465 88.009 90.3384C88.7493 90.3246 88.8544 90.2962 89.0555 90.0811L88.1471 90.0128C87.9245 89.9907 87.6445 89.9869 87.3341 90.0015C87.0238 90.0162 86.6934 90.0489 86.375 90.0966C86.2497 90.117 86.1187 90.1331 85.9896 90.144C85.8604 90.155 85.7357 90.1604 85.6226 90.1602C84.7061 90.1485 83.8025 90.1241 82.9217 90.1041L82.7929 90.091L82.7848 89.8992C82.9013 89.8804 83.0221 89.8648 83.1427 89.8531L87.5607 89.7287C88.5745 89.6981 89.6272 89.6292 90.6221 89.601C91.6171 89.5729 92.1533 89.5557 92.9253 89.5267C93.2511 89.5101 93.5833 89.4884 93.9194 89.4616C93.9 89.4431 93.8888 89.4235 93.886 89.4028C93.8683 89.3718 93.8447 89.3303 93.9875 89.297C94.1434 89.2501 94.3516 89.21 94.5707 89.1848C94.7764 89.1681 94.976 89.1587 95.1614 89.1569C96.0574 89.1408 97.0808 89.0395 98.0134 88.8745L98.3389 88.9846C99.7393 88.9228 101.161 88.862 102.623 88.8032C102.916 88.7872 103.224 88.7564 103.523 88.7133C103.843 88.672 104.137 88.5858 104.475 88.5386C104.808 88.5047 105.138 88.4782 105.461 88.4597C105.373 88.4314 105.258 88.4088 105.119 88.3925C104.982 88.3868 104.882 88.3691 104.834 88.342C104.786 88.3149 104.792 88.2797 104.851 88.2416C104.956 88.1762 105.001 88.1147 104.775 88.1069C104.565 88.092 104.415 88.0597 104.342 88.0139C104.27 87.968 104.277 87.9106 104.364 87.8482C104.403 87.8118 104.43 87.7761 104.445 87.7414L104.539 87.7292C104.85 87.6002 105.47 87.5536 105.916 87.448C106.126 87.4174 106.344 87.3997 106.534 87.3979C107.027 87.3752 107.507 87.3653 108.016 87.3367C108.259 87.3236 108.514 87.2996 108.765 87.2662C109.122 87.2201 109.16 87.2152 109.368 87.0475C109.045 87.0504 108.789 87.0254 108.644 86.9766C108.498 86.9278 108.471 86.8582 108.568 86.7797C108.835 86.6082 109.116 86.4273 110.32 86.3054C109.928 86.2994 109.549 86.2875 109.188 86.2697C109.083 86.2658 109.004 86.2532 108.962 86.2336C108.92 86.2139 108.917 86.1881 108.954 86.1596C108.99 86.131 109.065 86.1012 109.166 86.0741C109.268 86.0469 109.393 86.0237 109.524 86.0076C110.16 85.9105 110.823 85.8456 111.439 85.82C111.958 85.8087 112.427 85.8151 113.033 85.8148L113.749 85.7225C113.737 85.7018 113.843 85.6734 113.816 85.662C113.634 85.5556 113.433 85.4517 113.227 85.3374C113.557 85.2757 113.843 85.2012 114.052 85.1224C114.261 85.0437 114.384 84.9638 114.409 84.8921C114.427 84.8704 114.422 84.8507 114.395 84.8343C114.368 84.8179 114.32 84.8052 114.254 84.7971C114.065 84.7832 113.92 84.7567 113.828 84.7196C113.737 84.6825 113.703 84.6358 113.727 84.5831L114.284 84.389C115.96 84.2504 117.606 84.1515 119.191 84.0939L120.622 84.0504C120.795 83.9985 120.741 83.9757 120.579 83.9744C120.416 83.9731 119.96 83.9874 119.64 83.9952C119.365 84.0054 119.12 83.9987 118.93 83.9758C118.74 83.9529 118.611 83.9145 118.555 83.8644L119.035 83.643C119.012 83.6015 118.978 83.5428 118.718 83.5467C118.54 83.5419 118.409 83.5211 118.345 83.4875C118.282 83.4539 118.291 83.4096 118.37 83.3617C118.382 83.327 118.364 83.2954 118.317 83.2684C117.931 83.2661 117.548 83.2674 117.198 83.2568C117.035 83.2533 116.898 83.2405 116.795 83.2192C116.692 83.1979 116.626 83.1686 116.602 83.1334C116.589 83.099 116.62 83.0598 116.692 83.019C116.763 82.9782 116.874 82.9369 117.014 82.8985C117.562 82.851 118.064 82.8504 118.408 82.8968C118.531 82.9332 118.729 82.9531 118.975 82.9538C119.22 82.9546 119.503 82.9362 119.786 82.901C120.109 82.8605 120.432 82.8426 120.696 82.8507C120.96 82.8589 121.148 82.8924 121.226 82.9452C121.558 82.9247 121.853 82.909 122.143 82.8864C122.486 82.8579 122.81 82.8495 123.08 82.8621C123.512 82.871 123.977 82.8658 124.466 82.8466C125.874 82.7986 127.285 82.754 128.648 82.734C129.009 82.7283 129.321 82.7437 129.678 82.7311C130.034 82.7185 130.317 82.7525 130.763 82.6839C130.848 82.6732 130.933 82.6664 131.013 82.6639C131.092 82.6614 131.163 82.6633 131.22 82.6695C132.003 82.7238 132.922 82.7315 133.922 82.6921C135.291 82.6824 136.711 82.6551 138.083 82.649C138.485 82.6543 138.865 82.6686 139.219 82.6916C139.489 82.7056 139.771 82.715 140.064 82.7199C140.289 82.7243 140.504 82.7114 140.466 82.7867C140.429 82.8621 140.766 82.8149 140.96 82.801C141.627 82.7645 142.31 82.715 142.999 82.6532C143.678 82.586 144.343 82.5469 144.955 82.5382C145.397 82.5331 145.853 82.5523 146.421 82.4494C146.4 82.4114 146.378 82.3734 146.254 82.3337C146.718 82.2245 147.246 82.1305 147.797 82.0596C148.347 81.9887 148.903 81.9428 149.419 81.9257L150.13 81.7191C150.305 81.6948 150.484 81.6772 150.656 81.6671C150.827 81.6571 150.988 81.655 151.128 81.6609C151.237 81.6639 151.369 81.6562 151.5 81.6393C151.632 81.6223 151.754 81.5972 151.844 81.5686C151.979 81.5322 152.144 81.5009 152.319 81.4784C152.493 81.4559 152.669 81.4434 152.824 81.4424C153.313 81.4199 153.834 81.368 154.336 81.292C154.466 81.2475 154.547 81.2014 154.57 81.1596C154.593 81.1178 154.556 81.082 154.464 81.0566C154.316 81.0118 154.233 80.9548 154.22 80.8889C154.207 80.823 154.264 80.7497 154.388 80.6734C154.451 80.6265 154.472 80.5822 154.45 80.543C154.428 80.5038 154.362 80.4706 154.258 80.4454C153.868 80.3287 153.972 80.2634 154.61 80.0699C154.714 80.0376 154.839 80.0075 154.977 79.9813C155.115 79.9552 155.264 79.9337 155.413 79.9181C155.764 79.8866 156.11 79.8631 156.445 79.8482C156.634 79.8239 156.827 79.8435 157.044 79.8341C158.129 79.7869 158.288 79.7108 158.639 79.5468L158.896 79.4285C159.371 79.3326 159.89 79.2531 160.417 79.1954C160.943 79.1378 161.464 79.1036 161.941 79.0953C162.131 79.0946 162.349 79.0783 162.561 79.0487C163.254 78.9581 163.956 78.8955 164.62 78.8649C165.034 78.8476 165.48 78.803 165.905 78.7364C166.33 78.6698 166.715 78.5841 167.015 78.4894C167.284 78.4042 167.636 78.3277 168.023 78.2705C168.475 78.2123 168.517 78.1438 168.264 78.0911C168.012 78.0383 167.589 77.9704 167.214 77.915C167.083 77.8961 167.002 77.8655 166.98 77.8264C166.958 77.7874 166.995 77.7415 167.088 77.6939C167.147 77.6123 167.158 77.535 167.118 77.4637C167.097 77.434 167.112 77.4001 167.161 77.364C167.21 77.328 167.292 77.2908 167.401 77.2548C167.511 77.2189 167.646 77.1851 167.797 77.1556C167.948 77.1262 168.112 77.1019 168.277 77.0844C168.974 76.9945 169.652 76.9071 170.363 76.8415C170.661 76.8105 170.959 76.7722 171.249 76.7273C171.842 76.6165 172.477 76.5246 173.117 76.4569C173.42 76.4266 173.717 76.3737 173.943 76.3096C174.655 76.1369 175.311 75.9553 175.899 75.7682C176.041 75.7101 176.226 75.6535 176.444 75.6018C176.661 75.5502 176.907 75.5046 177.164 75.4679C177.371 75.4412 177.539 75.3824 177.699 75.3433C177.815 75.2527 177.828 75.1688 177.735 75.0997C177.643 75.0305 177.448 74.9783 177.171 74.9478C176.907 74.9113 176.661 74.8689 176.433 74.8241C176.158 74.7879 175.832 74.7661 175.466 74.7596C175.033 74.7402 174.712 74.6846 174.546 74.6C175.733 74.4471 176.862 74.2274 177.902 74.2788L178.692 74.1398C178.661 74.0845 178.633 74.0362 178.608 73.9912C178.42 73.9095 178.361 73.8064 178.436 73.6907C178.499 73.6347 178.493 73.5838 178.42 73.543C178.347 73.5023 178.21 73.4731 178.021 73.4586C176.905 73.3095 175.614 73.2089 174.568 73.0397C174.239 73.0079 173.855 72.9935 173.431 72.997C173.021 72.9869 173.038 72.9105 173.51 72.8163C173.775 72.767 174.045 72.7198 174.319 72.6749C175.528 72.6674 176.021 72.8932 177.4 72.8303L178.04 72.5328C178.213 72.5282 178.381 72.5264 178.542 72.5274L180.856 72.6483C181.048 72.6543 181.198 72.675 181.288 72.7079C181.379 72.7409 181.406 72.7848 181.366 72.8346C181.35 72.8956 181.382 72.9516 181.461 73.0005C181.511 73.0347 181.479 73.0802 181.371 73.127C181.128 73.2325 181.44 73.2479 181.637 73.2744C181.687 73.277 181.745 73.2767 181.808 73.2736C181.87 73.2705 181.936 73.2646 182 73.2562C182.065 73.2479 182.128 73.2372 182.185 73.2249C182.243 73.2126 182.293 73.1989 182.334 73.1846C182.681 73.0842 182.985 72.9783 183.326 72.8676C183.084 72.7616 183.369 72.5876 182.991 72.4917C182.948 72.4726 182.931 72.4492 182.941 72.4231C182.95 72.397 182.986 72.3687 183.046 72.34C183.2 72.2657 183.273 72.1933 183.258 72.1301C183.244 72.0669 183.141 72.0151 182.962 71.9799L182.94 71.9419C183.414 71.8142 183.288 71.7005 183.474 71.5653L183.929 71.477C185.062 71.2642 185.064 71.2677 186.039 71.2755C186.235 71.1945 185.986 71.1822 185.798 71.173L184.23 71.0822C183.205 71.0215 182.15 70.9795 181.004 70.9565C179.859 70.9336 178.582 70.8571 177.398 70.802C177.338 70.7978 177.292 70.7893 177.264 70.7775C177.237 70.7656 177.227 70.7506 177.238 70.7337C177.285 70.7155 177.346 70.6979 177.418 70.6822C177.49 70.6666 177.569 70.6533 177.651 70.6433C178.028 70.5947 178.415 70.5634 178.816 70.5228L179.565 70.4523L179.795 70.3596C179.945 70.3032 180.047 70.2344 180.246 70.1938C180.411 70.1636 180.589 70.1407 180.763 70.1274C180.937 70.1141 181.1 70.111 181.235 70.1184C181.609 70.1368 181.948 70.1636 182.306 70.188C182.663 70.2124 182.86 70.2389 183.17 70.2508C183.8 70.2563 184.409 70.2706 184.994 70.2939C185.487 70.3488 185.943 70.4139 186.359 70.4888C186.619 70.5184 186.861 70.5539 187.304 70.5153C187.515 70.4803 187.696 70.4344 187.816 70.3856C187.936 70.3368 187.988 70.2884 187.961 70.2489C187.938 70.2179 187.87 70.1934 187.766 70.1777C187.661 70.1619 187.523 70.1555 187.364 70.159C186.92 70.1533 186.508 70.1341 186.139 70.1019C185.624 70.0434 184.998 70.0182 184.297 70.0277C184.059 70.0361 183.9 70.0048 183.692 69.9945C183.484 69.9842 183.307 69.9587 183.075 69.9775C182.355 70.0259 182.009 69.9518 181.577 69.9036C181.431 69.8822 181.341 69.8477 181.316 69.8038C181.291 69.7599 181.332 69.7084 181.436 69.6548C181.635 69.5482 181.879 69.441 182.163 69.3348C182.31 69.2826 182.497 69.2331 182.712 69.1901C182.926 69.147 183.16 69.1117 183.397 69.0868C183.539 69.0215 183.615 68.9573 183.617 68.8999C183.62 68.8426 183.55 68.794 183.412 68.7585C183.063 68.6774 182.753 68.595 181.97 68.6403C181.602 68.6576 181.256 68.6609 180.945 68.6501C180.255 68.6353 179.459 68.6677 178.632 68.7442C178.418 68.7638 178.208 68.7771 178.008 68.7839C176.579 68.8309 175.217 68.8543 173.852 68.8709C173.128 68.8788 172.399 68.8764 171.644 68.8996C169.873 68.9498 168.261 68.924 166.551 68.9404C165.656 68.9488 164.855 68.9149 164.189 68.8406C164.06 68.8157 163.949 68.7866 163.857 68.7536C164.298 68.6673 164.782 68.5989 165.263 68.555C165.745 68.5112 166.207 68.4933 166.606 68.5032C166.825 68.5273 167.108 68.5318 167.424 68.5159C167.74 68.5001 168.076 68.4646 168.395 68.4135L167.468 68.3846C166.854 68.371 166.225 68.3668 165.627 68.3474C164.678 68.314 163.798 68.2605 162.816 68.2389C162.022 68.219 161.312 68.1681 160.708 68.0878C160.271 68.0293 159.772 67.9878 159.222 67.9641C158.83 67.9515 158.83 67.9515 158.58 67.8317C158.779 67.7542 159.035 67.7434 159.277 67.7419C160.727 67.6931 162.106 67.6846 163.388 67.7164C164.034 67.7192 164.608 67.7521 165.081 67.8134C165.196 67.8393 165.493 67.827 165.731 67.8186C166.476 67.8058 167.189 67.8096 167.86 67.8297C168.788 67.8633 169.821 67.8553 170.92 67.8061C171.128 67.7459 170.889 67.7508 170.877 67.7301C170.026 67.6915 169.192 67.6469 168.324 67.6142C168.086 67.6025 167.833 67.5967 167.566 67.5969C166.569 67.6172 165.738 67.561 165.189 67.436C165.162 67.3876 164.801 67.3933 164.642 67.3619C164.563 67.3348 164.511 67.3028 164.486 67.267C164.719 67.1777 164.981 67.1772 165.183 67.1771C165.77 67.1871 166.334 67.206 166.874 67.2337C167.375 67.2601 167.93 67.2671 168.523 67.2547C168.961 67.2427 169.336 67.2612 169.778 67.2561C170.018 67.2455 170.266 67.2285 170.517 67.2053C170.237 67.1431 169.857 67.1048 169.402 67.0932C169.057 67.0561 168.626 67.0449 168.571 66.9481C168.734 66.8789 168.915 66.8778 169.061 66.885C169.364 66.8847 169.657 66.8891 169.938 66.898C170.534 66.9177 171.179 66.918 171.859 66.8988C172.218 66.8917 172.558 66.8939 172.874 66.9053C173.59 66.9205 174.277 66.9544 174.933 66.9699C176.276 66.9859 177.502 67.043 178.793 67.0732C179.08 67.0806 179.338 67.1068 179.716 67.0617C180.095 67.0166 180.112 67.0107 180.157 66.9827C180.263 66.9359 180.295 66.8906 180.246 66.8561C180.171 66.8239 180.025 66.806 179.834 66.8055C178.679 66.7543 177.585 66.6823 176.556 66.5901C176.104 66.5716 175.707 66.5339 175.381 66.4783C175.122 66.44 174.814 66.4147 174.468 66.4031C173.965 66.3754 173.441 66.3551 172.897 66.3423C172.644 66.3354 172.429 66.3149 172.264 66.282C172.1 66.2491 171.989 66.2044 171.939 66.1506L172.605 65.972C172.71 65.9636 172.814 65.9564 172.917 65.9504L178.449 66.0791L178.997 66.0826C179.598 66.072 179.744 66.0456 180.314 65.8387C179.014 65.79 177.992 65.6481 177.35 65.4271C177.504 65.4034 177.663 65.383 177.821 65.3664C178.86 65.3142 179.842 65.3003 180.729 65.3253C181.257 65.3278 181.799 65.321 182.343 65.3176C182.184 65.2157 181.574 65.2461 181.177 65.2231C180.228 65.1872 179.388 65.113 178.686 65.0028C178.443 64.9599 178.14 64.9324 177.79 64.9217C177.44 64.918 177.147 64.892 176.938 64.8459C176.728 64.7999 176.608 64.7352 176.588 64.6575C176.555 64.5872 176.484 64.5218 176.376 64.4624C176.567 64.378 176.871 64.2973 177.231 64.2353C177.59 64.1733 177.98 64.1342 178.328 64.1255C179.07 64.0908 179.839 64.034 180.617 63.9565C181.005 63.9174 181.385 63.8949 181.732 63.8906C182.039 63.8873 182.387 63.8591 182.725 63.8102C183.062 63.7614 183.369 63.6947 183.6 63.6202C183.912 63.5281 184.203 63.435 184.493 63.3419C184.784 63.2488 185.121 63.1311 185.461 63.0169C185.76 62.9991 186.051 62.9876 186.331 62.9826C186.548 62.9868 186.802 62.9744 187.062 62.9467C187.323 62.9191 187.578 62.8775 187.799 62.8268C187.67 62.7767 187.523 62.7325 187.369 62.6746C187.581 62.598 187.734 62.5199 187.82 62.4451C187.906 62.3702 187.923 62.3002 187.869 62.2392C187.837 62.1839 188.068 62.0912 188.147 62.0179C188.25 61.9547 188.269 61.8957 188.203 61.8487C188.136 61.8017 187.987 61.7688 187.775 61.7544C187.512 61.7278 187.298 61.6877 187.141 61.6358C187.089 61.6224 187.063 61.6039 187.065 61.5822C187.066 61.5604 187.095 61.5361 187.15 61.5114C187.204 61.4867 187.282 61.4624 187.375 61.4407C187.469 61.4191 187.577 61.4008 187.687 61.3874C188.026 61.3497 188.363 61.3252 188.677 61.3154C189.22 61.2974 189.739 61.2861 190.235 61.2815C190.784 61.2746 191.394 61.2317 192.005 61.1573C192.551 61.0869 193.041 61.0237 193.308 60.8892C193.575 60.7546 194.002 60.7589 194.33 60.6609C194.146 60.5726 193.818 60.5113 193.38 60.4831C193.093 60.473 192.854 60.4466 192.677 60.4055C192.5 60.3644 192.39 60.3095 192.354 60.2444L193.351 59.9713C194.147 59.8427 194.588 59.9416 195.448 59.8901L194.562 59.7893C194.544 59.7793 194.537 59.7676 194.542 59.7547C194.628 59.5508 194.765 59.5072 195.671 59.3941L196.18 59.3285L196.985 59.2507C197.114 59.2089 197.203 59.1653 197.243 59.1243C197.284 59.0833 197.274 59.0463 197.216 59.017C197.098 58.9677 197.062 58.9047 197.111 58.8339C197.19 58.7869 197.196 58.7437 197.13 58.7116C197.063 58.6795 196.929 58.6606 196.749 58.6581C196.605 58.6544 196.594 58.6002 196.516 58.5694C196.438 58.5271 196.305 58.4946 196.126 58.4742C195.947 58.4537 195.726 58.4458 195.478 58.451C194.747 58.4553 194.06 58.4394 193.429 58.4036L193.542 58.3891C192.885 58.4205 192.27 58.4243 191.729 58.4003C191.186 58.3702 190.489 58.3895 189.912 58.3711C189.443 58.3753 189.086 58.3336 188.916 58.2548C188.752 58.1795 188.155 58.1971 187.698 58.2115C187.428 58.2208 187.166 58.2247 186.917 58.2232C186.581 58.2062 186.162 58.2223 185.729 58.2687C185.599 58.283 185.471 58.2906 185.358 58.2907C184.257 58.3102 183.158 58.3332 182.072 58.3434C181.821 58.3375 181.527 58.351 181.224 58.3822C181.097 58.3957 180.973 58.4013 180.869 58.3982C179.153 58.3673 177.217 58.4463 175.534 58.4036C175.33 58.3935 175.105 58.3914 174.863 58.3973C174.321 58.4224 173.851 58.4063 173.523 58.3513C173.346 58.3221 173.119 58.306 172.857 58.304C172.595 58.302 172.303 58.3143 172 58.3399C171.496 58.3739 171.03 58.3776 170.651 58.3506C169.913 58.3257 169.137 58.3154 168.329 58.3199C168.081 58.3243 167.863 58.3146 167.692 58.2916C167.522 58.2686 167.402 58.2329 167.343 58.1873C167.542 58.1098 167.759 58.1004 167.965 58.1072C168.764 58.0895 169.56 58.0684 170.344 58.0601C171.046 58.0363 171.719 58.0291 172.354 58.0384C172.669 58.0489 173.063 58.0249 173.448 57.9715C173.921 57.9039 174.408 57.8703 174.81 57.8776C175.109 57.8794 175.424 57.8735 175.751 57.8602C175.96 57.8441 176.174 57.8164 176.372 57.7801C176.451 57.7643 176.536 57.751 176.623 57.7411C176.71 57.7312 176.796 57.7248 176.877 57.7225C176.957 57.7201 177.03 57.7218 177.09 57.7274C177.151 57.7331 177.197 57.7425 177.227 57.7551C177.53 57.8607 178.207 57.8068 178.787 57.7951C179.656 57.6164 180.302 57.7222 181.114 57.6212C181.179 57.6146 181.242 57.6105 181.3 57.6093C181.359 57.6082 181.411 57.6099 181.454 57.6145C183.026 57.6753 184.857 57.6246 186.507 57.6456C186.689 57.6487 186.9 57.6382 187.116 57.6153C188.531 57.4637 189.89 57.4206 190.93 57.4946C191.056 57.5012 191.2 57.5015 191.355 57.4954C192.066 57.4351 192.745 57.4111 193.337 57.4253C194.265 57.4207 195.156 57.4245 196.099 57.4105C196.748 57.3907 197.318 57.4119 197.751 57.4719C197.765 57.4961 198.054 57.4701 198.275 57.4675C198.402 57.4067 198.512 57.3517 198.643 57.2977C198.76 57.2309 198.935 57.1633 199.157 57.0996C199.379 57.0358 199.642 56.9773 199.929 56.928C200.418 56.8649 200.467 56.7732 200.125 56.7395C199.241 56.628 198.131 56.5824 196.874 56.606C195.824 56.6079 194.754 56.6122 193.689 56.6234C193.068 56.633 192.413 56.6544 191.808 56.6582C191.604 56.6664 191.395 56.6785 191.182 56.6944C190.921 56.7174 190.667 56.73 190.435 56.7314C189.688 56.712 188.856 56.7289 187.976 56.7813C187.654 56.7927 187.344 56.7966 187.052 56.7928C186.362 56.7786 185.613 56.789 184.826 56.8239C184.336 56.8436 183.862 56.8539 183.407 56.8547C183.247 56.8568 183.116 56.8403 182.962 56.8528C181.601 56.9837 180.637 56.8892 179.412 56.9395C178.816 56.9536 178.248 56.9536 177.713 56.9396C176.671 56.9403 175.599 56.9547 174.503 56.9826C173.053 57.0286 171.709 57.0127 170.325 57.0316C170.051 57.0356 169.788 57.0349 169.535 57.0296C168.306 56.9943 166.972 57.0018 165.564 57.0519C165.245 57.0591 164.958 57.0503 164.721 57.0259C164.485 57.0015 164.304 56.9621 164.19 56.9102C164.141 56.8745 164.173 56.8282 164.277 56.7802C164.451 56.7188 164.647 56.6588 164.863 56.6009L172.699 56.4067C173.028 56.3966 173.349 56.3911 173.66 56.3904C174.575 56.3887 175.518 56.3736 176.485 56.3451C177.441 56.3184 178.353 56.3231 179.279 56.3151C179.551 56.3124 179.831 56.306 180.117 56.296C182.05 56.2169 183.934 56.1685 185.757 56.1513C186.524 56.1489 187.352 56.1125 188.134 56.1007C188.916 56.089 189.985 56.0847 190.913 56.0801L193.785 56.0808C194.349 56.0784 194.899 56.0854 195.447 56.089C196.112 55.8364 196.341 55.7772 197.229 55.6665C197.532 55.6257 197.841 55.6013 198.119 55.5963C199 55.6162 200.105 55.5331 200.94 55.5441C201.444 55.5387 201.872 55.5667 202.179 55.6254C202.446 55.6715 202.752 55.7079 203.091 55.7342C204.019 55.5181 204.101 55.3777 203.403 55.3231C203.213 55.3104 202.953 55.3144 202.816 55.2875C202.738 55.2711 202.631 55.2617 202.503 55.2601C202.376 55.2585 202.232 55.2647 202.083 55.2781C201.612 55.3135 201.17 55.3218 200.802 55.3023C200.456 55.2764 200.032 55.2774 199.571 55.3053C199.232 55.349 198.934 55.2873 198.64 55.2694C198.347 55.2516 198.107 55.2196 197.649 55.2675C197.565 55.277 197.481 55.2827 197.405 55.2842C197.329 55.2857 197.262 55.2829 197.209 55.276C196.717 55.2451 196.13 55.2484 195.495 55.2854C194.522 55.3219 193.609 55.3233 192.788 55.2895C192.296 55.2599 191.877 55.2075 191.547 55.1342C191.457 55.1097 191.323 55.095 191.159 55.0916C190.333 55.1069 189.435 55.1644 188.525 55.2604C188.182 55.2989 187.84 55.3294 187.505 55.3511C186.817 55.3994 186.152 55.4265 185.529 55.4316C184.624 55.4323 183.681 55.4509 182.71 55.4872C182.11 55.5073 181.532 55.5148 180.983 55.5094C180.419 55.5069 179.817 55.5223 179.19 55.5552C178.566 55.582 178.017 55.5666 177.607 55.5107C177.473 55.4806 177.364 55.4448 177.284 55.404C178.197 55.2715 179.141 55.2041 179.926 55.2155C180.225 55.2067 180.472 55.2156 180.787 55.1639L180.797 55.1812C180.859 55.1924 180.953 55.195 181.062 55.1886C181.17 55.1822 181.284 55.1671 181.383 55.1464C181.346 55.0807 181.31 55.0185 181.285 54.9736C180.687 54.9815 180.106 54.9809 179.545 54.9717C179.072 54.9584 178.431 55.0745 178.022 55.0308C177.224 55.0854 176.716 55.01 176 55.0318C175.285 55.0535 174.497 55.1255 173.781 55.1472C173.157 55.1592 172.55 55.1618 171.966 55.155C171.764 55.1455 171.531 55.1477 171.282 55.1615C170.932 55.1875 170.606 55.1919 170.342 55.1741C170.078 55.1563 169.886 55.1171 169.789 55.061C169.88 55.0084 170.004 54.9406 170.146 54.8704C169.884 54.8127 169.488 54.7884 169.014 54.8011L168.345 54.7984C168.168 54.7999 168.033 54.7843 167.967 54.7548C167.901 54.7253 167.91 54.6842 167.992 54.6399C169.261 54.4171 169.307 54.3925 170.238 54.5358L171.474 54.4692L171.453 54.4682ZM154.736 55.0803L154.83 55.0682L154.736 55.0803ZM0.712469 78.787L0.73411 78.825L0.710501 78.7836L0.503307 78.8103L0.489535 78.7861L0.712469 78.787ZM30.7975 62.1294C31.0903 62.088 31.386 62.0498 31.6828 62.0153C31.7605 62.0099 31.8333 62.0087 31.8948 62.0118C31.9564 62.0148 32.005 62.022 32.0366 62.0328C32.0602 62.0742 31.8945 62.103 31.7438 62.1224C31.5538 62.1485 31.3597 62.1652 31.1814 62.1705C31.0032 62.1759 30.8474 62.1698 30.73 62.153L30.5596 62.1378L30.7975 62.1294ZM181.651 72.2342C181.458 72.2412 181.275 72.2423 181.107 72.2376C180.36 72.2041 179.645 72.1553 178.879 72.1242C177.913 72.0453 176.802 72.0132 175.589 72.0291C175.116 72.0368 174.715 72.0112 174.435 71.9553C174.268 71.9253 174.051 71.9078 173.799 71.9038L170.593 71.8127C170.395 71.7938 170.224 71.7673 170.083 71.7338C170.366 71.6974 170.554 71.6731 170.667 71.6585C170.902 71.6544 171.103 71.6655 171.252 71.6907C171.411 71.7334 171.681 71.7503 172.007 71.7381C172.336 71.7279 172.657 71.7225 172.968 71.7217C173.555 71.7238 174.147 71.7329 174.737 71.7385C174.966 71.8572 175.643 71.8034 176.223 71.7917L176.671 71.797C178.135 71.8586 179.533 71.9433 180.859 72.0507C181.115 72.0689 181.336 72.0979 181.515 72.1368C181.582 72.1672 181.603 72.205 181.578 72.2474L181.672 72.2352L181.651 72.2342ZM116.276 83.5907C115.921 83.5988 115.551 83.6154 115.172 83.6403C114.88 83.6658 114.595 83.6812 114.328 83.686C112.835 83.7126 111.279 83.7741 109.681 83.8697C109.472 83.8841 109.272 83.8912 109.087 83.8907L107.779 83.8664C107.367 83.8528 107.359 83.839 107.659 83.6557C107.908 83.6201 108.16 83.5877 108.412 83.5586C108.563 83.5391 108.808 83.5076 108.865 83.5373C109.215 83.6183 109.852 83.5658 110.388 83.5486C111.94 83.5043 113.541 83.439 115.108 83.3853C115.439 83.3722 115.76 83.3656 116.067 83.3655C116.258 83.3628 116.431 83.3679 116.581 83.3808C116.625 83.3821 116.662 83.386 116.689 83.3921C116.716 83.3982 116.733 83.4064 116.738 83.4162C116.744 83.426 116.738 83.4372 116.721 83.4489C116.704 83.4607 116.677 83.4728 116.64 83.4845C116.512 83.5253 116.364 83.5644 116.201 83.6005L116.276 83.5907ZM104.907 56.9862L103.378 56.9645C103.195 56.9621 103.04 56.9377 102.843 56.9481C101.796 56.9813 100.827 56.972 99.9767 56.9208C99.6871 56.8999 99.3483 56.8957 98.9789 56.9085C97.8479 56.9464 96.7809 56.9479 95.807 56.9131C95.1775 56.9062 94.5884 56.8827 94.0484 56.8431C94.0068 56.8339 93.9809 56.8215 93.9724 56.8066C93.9639 56.7917 93.9731 56.7747 93.9992 56.7568C94.006 56.7454 94.0245 56.7333 94.0534 56.7211C94.0823 56.7089 94.121 56.697 94.1667 56.6861C94.2125 56.6753 94.2641 56.6658 94.3183 56.6583C94.3724 56.6509 94.4277 56.6456 94.4803 56.6428C95.1625 56.5893 95.8101 56.5706 96.3702 56.5884C96.8894 56.6096 97.4486 56.6158 98.0388 56.6069C98.6036 56.6046 98.9868 56.6738 99.6846 56.621C99.9798 56.6036 100.24 56.6093 100.422 56.6372C100.787 56.6835 101.297 56.6861 101.862 56.6445C102.199 56.6234 102.522 56.6144 102.817 56.6178C103.533 56.633 104.218 56.6634 104.882 56.6928C105.091 56.6996 105.315 56.7005 105.55 56.6956L108.874 56.638C109.673 56.6204 110.47 56.5992 111.254 56.5909C111.895 56.5728 112.491 56.5785 113.022 56.6077C113.589 56.6384 114.206 56.6508 114.863 56.6448C115.884 56.6616 116.899 56.668 118.009 56.6658C118.718 56.6672 119.443 56.6627 120.183 56.6489C120.558 56.6311 120.876 56.6455 121.076 56.6896C121.198 56.7258 121.484 56.6963 121.722 56.6879C122.991 56.6068 124.181 56.5876 125.208 56.6316C125.34 56.6388 125.484 56.6414 125.637 56.6393C126.627 56.6378 127.653 56.628 128.603 56.6279C128.853 56.6313 129.089 56.6407 129.307 56.6559C129.283 56.6807 129.217 56.7076 129.121 56.731C129.025 56.7544 128.907 56.7725 128.792 56.7816C127.893 56.8509 127.025 56.8876 126.225 56.8899C124.893 56.8811 123.497 56.901 122.053 56.9493C120.932 56.998 119.911 56.9878 119.064 56.9193C118.401 56.8682 117.54 56.8874 116.628 56.9737C116.237 57.0149 115.858 57.0314 115.542 57.0209C115.239 57.0071 114.89 57.0104 114.517 57.0307C113.73 57.0692 112.974 57.0871 112.262 57.0839C111.567 57.0698 110.918 57.031 110.203 57.0193C109.489 57.0075 108.401 57.0142 107.52 56.9943C106.639 56.9743 105.768 56.9716 104.907 56.9862ZM168.258 54.9653C168.178 55.0721 167.892 55.1386 167.585 55.1671C166.525 55.2936 165.478 55.3474 164.618 55.3196C164.154 55.2807 163.535 55.2956 162.883 55.3615C162.124 55.43 161.414 55.4413 160.879 55.3936C160.748 55.3852 160.648 55.3676 160.587 55.3422C160.575 55.3215 160.554 55.2835 160.55 55.2766C160.606 55.2591 160.675 55.2428 160.751 55.2291C160.828 55.2154 160.909 55.2046 160.99 55.1976L164.499 55.0753L165.111 55.0484C166.228 54.9779 167.292 54.9498 168.258 54.9653ZM161.356 56.6561C160.808 56.8306 160.806 56.8271 160.525 56.867C159.172 57.0326 157.819 57.122 156.628 57.1246C156.363 57.1241 156.139 57.1072 155.973 57.0755C155.888 57.0712 155.834 57.0575 155.822 57.0374C155.811 57.0174 155.843 56.9926 155.912 56.9684L156.348 56.8455C157.139 56.7923 157.918 56.75 158.682 56.7189C159.571 56.6822 160.359 56.6808 161.28 56.6658L161.356 56.6561ZM116.342 82.8183C115.831 83.0584 115.829 83.0549 114.975 83.1169C114.38 83.1608 113.802 83.1865 113.259 83.1934C112.596 83.2009 111.917 83.2144 111.256 83.2254C111.094 83.2331 110.957 83.2267 110.872 83.2076C110.786 83.1885 110.758 83.158 110.792 83.122C110.879 83.0829 111.015 83.0451 111.177 83.0147C111.34 82.9844 111.52 82.9632 111.688 82.9546L112.049 82.9489C112.487 82.937 112.941 82.9191 113.365 82.9165C113.639 82.9265 113.957 82.9188 114.294 82.894C114.631 82.8693 114.977 82.8282 115.305 82.7739L116.342 82.8183ZM158.63 55.2792C158.494 55.3208 158.34 55.3606 158.172 55.3976C157.522 55.5002 156.834 55.5585 156.243 55.561C155.964 55.5673 155.708 55.5446 155.424 55.5776C154.913 55.6217 154.419 55.6451 153.967 55.6467C153.967 55.6467 153.84 55.6371 153.798 55.6351L153.712 55.4831C153.926 55.4478 154.149 55.4191 154.371 55.3981C155.116 55.3576 155.849 55.33 156.579 55.2989C157.31 55.2678 157.564 55.2535 158.042 55.2401C158.255 55.2475 158.452 55.2606 158.63 55.2792ZM174.771 74.178L173.796 74.4891C173.48 74.5162 173.185 74.5211 172.956 74.5031C172.727 74.4851 172.576 74.4452 172.526 74.3895C172.445 74.3634 172.437 74.3248 172.503 74.2818C172.569 74.2387 172.704 74.1945 172.879 74.1585C173.048 74.1158 173.241 74.0775 173.446 74.046C173.65 74.0145 173.862 73.9905 174.069 73.9755L174.771 74.178ZM166.65 72.6288C167.288 72.576 167.898 72.5544 168.434 72.5657C168.771 72.5966 169.229 72.5867 169.712 72.5382C170.591 72.4414 171.439 72.4146 172.076 72.4634C172.076 72.4634 172.099 72.5049 172.207 72.5169C172.315 72.529 171.887 72.5582 171.793 72.5703C171.102 72.6 170.408 72.6228 169.807 72.6335C169.434 72.633 169.04 72.6428 168.631 72.6627C168.068 72.6934 167.534 72.7034 167.05 72.6922C167.05 72.6922 166.863 72.6829 166.652 72.6322L166.65 72.6288ZM98.5202 56.4225C98.8249 56.3639 99.1553 56.3163 99.4866 56.2832C99.818 56.2501 100.142 56.2324 100.433 56.2315C100.657 56.2284 100.838 56.2439 100.947 56.2755C101.057 56.307 101.089 56.3529 101.038 56.4057C100.812 56.4349 100.511 56.4737 100.341 56.4956C99.7536 56.4934 99.2523 56.4653 98.5202 56.4225ZM41.4807 61.3606C41.7252 61.3134 41.9945 61.2773 42.2579 61.2565C42.5214 61.2356 42.7683 61.2309 42.9705 61.2427C43.0745 61.2478 43.004 61.3014 43.0217 61.3325C43.0332 61.3396 43.0331 61.3483 43.0212 61.3579C43.0094 61.3675 42.9864 61.3775 42.9545 61.3869C42.9227 61.3963 42.8832 61.4048 42.8402 61.4114C42.7972 61.4181 42.7523 61.4226 42.7101 61.4246C42.4449 61.4449 42.1945 61.451 41.9814 61.4422C41.7682 61.4334 41.5989 61.4101 41.4886 61.3744L41.4807 61.3606ZM37.659 62.0349C37.6968 62.0071 37.7773 61.9781 37.8857 61.9532C37.9941 61.9283 38.1231 61.9093 38.2491 61.8995C38.4718 61.8982 38.6742 61.9059 38.8485 61.9224C39.0377 61.9351 38.9016 62.0157 38.6457 62.0635C38.5374 62.0827 38.4216 62.0976 38.3076 62.1072C38.1936 62.1167 38.0846 62.1206 37.9892 62.1185C37.8938 62.1164 37.8146 62.1084 37.758 62.0951C37.7013 62.0818 37.6688 62.0635 37.6629 62.0418L37.659 62.0349ZM148.709 55.5753C149.279 55.4758 149.718 55.5009 150.201 55.4609C150.684 55.4209 150.803 55.4167 150.738 55.4807C150.673 55.5446 150.342 55.5317 150.135 55.5584C149.855 55.5938 149.574 55.6142 149.322 55.6172C149.07 55.6201 148.858 55.6057 148.709 55.5753ZM29.8946 72.4035C30.1966 72.3812 30.4924 72.3654 30.7777 72.3564C30.8152 72.3657 30.8387 72.3778 30.8468 72.392C30.8549 72.4063 30.8474 72.4224 30.8249 72.4394C30.8249 72.4394 30.6315 72.4903 30.5184 72.5048C30.102 72.5548 30.0815 72.4833 29.8946 72.4035ZM-12.7908 81.6698C-12.9951 81.7369 -13.0904 81.7826 -13.2541 81.8148C-13.3292 81.826 -13.407 81.8341 -13.4814 81.8386C-13.5559 81.8431 -13.6252 81.8437 -13.6843 81.8406C-13.7562 81.8213 -13.773 81.7917 -13.7315 81.7577C-13.7315 81.7577 -13.5232 81.6975 -13.4439 81.6947C-13.2177 81.6804 -12.9985 81.6721 -12.7908 81.6698ZM158.415 55.0067C158.848 54.9508 159.262 54.8974 159.562 54.9626C158.874 55.0327 158.874 55.0327 158.415 55.0067ZM151.397 55.6442C151.835 55.5247 152.091 55.5139 152.302 55.5276C152.346 55.5311 152.376 55.5388 152.386 55.5496C152.396 55.5603 152.385 55.5736 152.357 55.5874C152.328 55.6011 152.282 55.6146 152.226 55.6258C152.171 55.637 152.108 55.6453 152.047 55.6494C151.819 55.6528 151.602 55.6511 151.397 55.6442ZM128.881 55.6947C128.871 55.6774 128.859 55.6567 128.972 55.6421C129.002 55.6347 129.036 55.6283 129.073 55.6237C129.109 55.619 129.146 55.6161 129.179 55.6154C129.179 55.6154 129.191 55.6361 129.199 55.6499L128.881 55.6947ZM113.245 84.3746L113.496 84.3904L113.383 84.405L113.085 84.4137L113.245 84.3746ZM24.6455 61.7653C24.7396 61.7532 24.8338 61.7411 24.8476 61.7653C24.8675 61.769 24.8798 61.7744 24.8836 61.781C24.8873 61.7876 24.8824 61.7953 24.8693 61.8033C24.8693 61.8033 24.7374 61.8203 24.6809 61.8275L24.6455 61.7653ZM39.3141 61.9588C39.3761 61.9574 39.4319 61.959 39.4785 61.9635L39.4903 61.9843L39.3019 62.0086L39.3141 61.9588ZM167.147 66.898C167.22 66.8854 167.297 66.8755 167.374 66.8689L167.468 66.8567C167.468 66.8567 167.367 66.892 167.31 66.8993C167.253 66.9066 167.208 66.8976 167.147 66.898Z" fill="#016A70"/>
</g>
<path d="M46.8987 5.90051C46.284 6.15595 46.0545 6.65933 46.0463 7.72618V8.3122H42.0384H38.0387L37.7682 8.47749C37.2109 8.83061 36.9896 9.32647 37.1289 9.92C37.2191 10.3182 37.6617 10.7615 38.0879 10.8667C38.5223 10.9793 56.4307 10.9718 56.9061 10.8591C57.6028 10.6938 58.0945 10.0252 57.9634 9.4016C57.8978 9.056 57.6273 8.69537 57.2831 8.485L57.0044 8.3122H53.0047H48.9969V7.68862C48.9969 6.61425 48.751 6.13341 48.0789 5.87045C47.6773 5.72019 47.3085 5.72771 46.8987 5.90051Z" fill="#016A70"/>
<path d="M32.6292 13.1282C32.244 13.2334 31.826 13.6466 31.7195 14.0223C31.6457 14.2852 31.6867 14.6909 31.9162 16.3062C32.0637 17.3806 32.2112 18.3798 32.2358 18.5076L32.285 18.7555H33.7111C35.0471 18.7555 35.1454 18.748 35.1454 18.6203C35.1454 18.4775 34.8586 16.3738 34.7684 15.9155L34.7274 15.6751H47.5215C54.5538 15.6751 60.3074 15.6977 60.3074 15.7277C60.3074 15.7653 60.2173 16.4114 60.1025 17.1702C59.9878 17.9291 59.8976 18.5902 59.8976 18.6503C59.8976 18.733 60.1599 18.7555 61.3319 18.7555C62.7498 18.7555 62.7662 18.7555 62.799 18.5827C62.8236 18.4925 62.9711 17.4933 63.1351 16.3738C63.3809 14.6458 63.4137 14.2777 63.3318 14.0072C63.2252 13.6241 62.799 13.2334 62.3728 13.1207C61.9794 13.023 33.0063 13.0305 32.6292 13.1282Z" fill="#016A70"/>
<path d="M35.8013 43.1204C35.8013 43.3307 36.375 47.1549 36.4324 47.2826C36.5389 47.5681 36.8094 47.8386 37.1208 47.9813C37.4323 48.1316 37.5962 48.1316 47.6282 48.1166L57.8242 48.094L58.1192 47.8837C58.2831 47.771 58.4798 47.5756 58.5454 47.4554C58.652 47.2751 59.2421 43.6087 59.2421 43.1504C59.2421 43.0377 59.1191 43.0227 57.816 43.0227C56.4062 43.0227 56.3898 43.0227 56.3489 43.188C56.3243 43.2857 56.2423 43.8416 56.1603 44.4352L56.0128 45.502L47.5299 45.487L39.0387 45.4645L38.8584 44.2624C38.7601 43.6012 38.6781 43.0528 38.6781 43.0377C38.6699 43.0302 38.0224 43.0227 37.2356 43.0227C36.0881 43.0227 35.8013 43.0452 35.8013 43.1204Z" fill="#016A70"/>
<path d="M44.2652 19.2331C43.5979 19.5052 43.3387 19.7903 42.5677 21.0862C42.0364 21.9803 41.8744 22.2913 41.9068 22.4079C41.9327 22.5181 42.4834 22.9133 43.9931 23.9046C45.7555 25.058 46.0665 25.2329 46.1831 25.1811C46.2673 25.1422 46.6042 24.585 47.0643 23.7167C47.4725 22.9457 47.8353 22.3237 47.8612 22.3367C47.9131 22.3496 49.5264 25.4143 49.5199 25.4921C49.5199 25.5115 49.183 25.7253 48.7748 25.978C47.9519 26.464 47.7899 26.6324 47.9066 26.8462C47.9455 26.924 48.0426 26.9953 48.1204 27.0082C48.5351 27.0989 53.4399 27.6302 53.5435 27.5978C53.6083 27.5784 53.7379 27.397 53.8351 27.1896C55.2994 24.1249 56.2648 22.0127 56.2648 21.8896C56.2648 21.7859 56.213 21.7082 56.1093 21.6628C55.9732 21.598 55.8501 21.6434 55.1309 22.0257C54.4765 22.3755 54.2951 22.4468 54.2498 22.3755C54.2174 22.3237 53.8934 21.7665 53.5306 21.1315C53.0057 20.218 52.7919 19.9005 52.5004 19.6283C51.8848 19.0582 52.0209 19.0776 48.075 19.0776H44.6346L44.2652 19.2331ZM47.0319 20.6132C47.2651 21.0991 47.453 21.5332 47.453 21.5851C47.453 21.6693 46.0729 24.2416 45.9758 24.3388C45.9369 24.3776 42.8981 22.4403 42.7037 22.2589C42.6584 22.2136 43.5655 20.6132 43.7793 20.3735C44.2199 19.8616 44.6281 19.732 45.749 19.7255H46.6107L47.0319 20.6132ZM51.5544 19.8292C52.0727 20.0041 52.3189 20.2957 53.1224 21.7341C53.537 22.4663 53.9323 23.1207 54.0036 23.1919C54.1267 23.3215 54.1331 23.3215 54.658 23.0494C54.956 22.9004 55.2022 22.7902 55.2152 22.8032C55.2346 22.8226 53.4204 26.7037 53.2908 26.9045C53.252 26.9693 52.8567 26.9369 51.3535 26.7555C50.3104 26.6324 49.4292 26.5287 49.3903 26.5287C49.2478 26.5287 49.3774 26.3927 49.818 26.0946C50.0642 25.9197 50.278 25.7383 50.2909 25.68C50.3039 25.6216 49.6495 24.2934 48.8461 22.7189C48.0426 21.151 47.3882 19.8357 47.3882 19.7968C47.3882 19.745 47.9584 19.7255 49.3191 19.7255C50.9129 19.7255 51.3082 19.745 51.5544 19.8292Z" fill="#016A70"/>
<path d="M42.3669 24.9549C42.2243 24.9679 40.9933 25.0521 39.6261 25.1363C37.9674 25.24 37.1122 25.3178 37.0474 25.3696C36.9891 25.415 36.9567 25.5316 36.9696 25.6482C36.9891 25.8231 37.0863 25.9009 37.8314 26.3868C38.2979 26.6849 38.7126 26.9505 38.7579 26.9765C38.8292 27.0153 38.6866 27.3587 38.1618 28.4602C37.786 29.2507 37.4426 30.0476 37.4037 30.2355C37.313 30.6567 37.3649 31.2722 37.5333 31.6869C37.7601 32.2506 40.8183 37.6348 41.0904 37.9394C41.395 38.2828 42.017 38.6132 42.5224 38.7104C42.7103 38.7428 43.2156 38.7752 43.6368 38.7752C44.7707 38.7752 44.667 39.0732 44.667 35.8595C44.667 33.2872 44.6605 33.1965 44.5374 33.0734C44.4143 32.9503 44.3236 32.9438 43.0472 32.9438C42.2243 32.9438 41.6865 32.9179 41.6865 32.8791C41.6865 32.7624 43.3906 29.769 43.4618 29.769C43.5007 29.769 43.8636 29.8986 44.2718 30.0606C44.965 30.3327 45.0233 30.3457 45.1659 30.255C45.2436 30.1966 45.3149 30.093 45.3149 30.0217C45.3149 29.8273 43.1897 25.091 43.0601 24.9873C42.9565 24.9096 42.8852 24.9096 42.3669 24.9549ZM43.5396 27.4624C43.9802 28.4602 44.3365 29.296 44.3301 29.3219C44.3171 29.3543 44.1098 29.2895 43.8571 29.1794C43.2739 28.9332 43.1444 28.9397 42.9824 29.1988C42.9111 29.3155 42.2049 30.5854 41.4079 32.0173C40.6175 33.4557 39.9501 34.6285 39.9307 34.6285C39.9112 34.6285 39.4965 33.9157 39.0106 33.0475C38.0581 31.3435 37.961 31.0649 38.0646 30.4299C38.0905 30.255 38.4275 29.4645 38.8681 28.5444C39.3799 27.4754 39.6132 26.9246 39.5873 26.8274C39.5678 26.7432 39.3216 26.5423 38.9523 26.3091C38.6218 26.0953 38.3886 25.9139 38.4275 25.9009C38.5571 25.8555 41.9392 25.6352 42.3539 25.6482L42.7297 25.6547L43.5396 27.4624ZM44.0191 35.8595V38.0625H43.2221C42.5029 38.0625 42.3928 38.0495 42.1012 37.9005C41.9198 37.8098 41.6995 37.6543 41.6023 37.5571C41.3561 37.2979 40.3194 35.4578 40.3453 35.3347C40.3583 35.2764 40.5851 34.8811 40.8377 34.447L41.3043 33.6566H42.6584H44.0191V35.8595Z" fill="#016A70"/>
<path d="M53.9974 28.1161C52.1703 29.2305 51.8269 29.4573 51.8075 29.5933C51.7945 29.7035 52.0213 30.1959 52.5007 31.0771C52.896 31.8028 53.2329 32.4507 53.2588 32.509C53.2977 32.6127 53.1681 32.6191 51.6455 32.6191H49.9933L49.9674 31.7768C49.9479 31.0317 49.935 30.9281 49.8183 30.8438C49.7471 30.7855 49.6434 30.7466 49.5916 30.7596C49.5073 30.7725 46.0992 34.5824 45.853 34.9322C45.7947 35.0229 45.7688 35.1396 45.7947 35.2238C45.8142 35.308 46.6435 36.4484 47.6348 37.7701C49.4685 40.2193 49.5786 40.3359 49.8248 40.1351C49.8896 40.0768 49.9155 39.8953 49.9155 39.4159V38.7744H51.2438C52.6174 38.7744 53.0774 38.7161 53.505 38.5023C54.0298 38.2367 54.3085 37.8479 55.5136 35.6903C56.155 34.5564 56.9066 33.2347 57.1917 32.7552C57.4768 32.2822 57.7749 31.738 57.8591 31.5501C58.0535 31.1289 58.1183 30.4939 58.0211 30.0339C57.9822 29.846 57.6323 29.0361 57.2436 28.2392C56.5632 26.8526 56.5244 26.7878 56.3494 26.7943C56.2328 26.7943 55.4164 27.2543 53.9974 28.1161ZM56.7706 28.7057C57.0686 29.3342 57.3472 30.0015 57.3861 30.1959C57.4962 30.7207 57.3861 31.1289 56.9131 31.9388L56.5114 32.6191L55.2803 32.6062L54.0428 32.5867L53.3106 31.2261C52.9025 30.4745 52.572 29.8331 52.572 29.8007C52.5785 29.7423 56.1097 27.5653 56.2004 27.5653C56.2198 27.5653 56.4725 28.0772 56.7706 28.7057ZM49.3907 33.1634C49.4685 33.2541 49.7924 33.2671 52.7729 33.2671C54.5871 33.2671 56.0708 33.293 56.0708 33.3254C56.0708 33.3707 54.1011 36.8954 53.7901 37.4008C53.7188 37.5175 53.5245 37.7054 53.3625 37.822L53.058 38.0293L51.3086 38.0488C49.6304 38.0682 49.5527 38.0747 49.4166 38.2043C49.3194 38.295 49.2676 38.4181 49.2676 38.5606C49.2676 38.6772 49.2482 38.7744 49.2222 38.768C49.138 38.7615 46.5787 35.2756 46.5787 35.172C46.5787 35.1201 47.1748 34.3945 47.907 33.5521L49.2352 32.023L49.2676 32.5414C49.287 32.833 49.3389 33.0986 49.3907 33.1634Z" fill="#016A70"/>
</svg>
